<svg xmlns="http://www.w3.org/2000/svg" height="1024" preserveAspectRatio="none" style="display: block;" version="1.1" viewBox="0 0 2048 2048" width="1024">
<path d="M 1226.01 299.087 C 1344.96 301.165 1468.25 299.576 1587.3 299.026 C 1579.61 309.457 1568.03 322.402 1559.44 332.576 L 1510.98 390.042 C 1464.42 444.884 1418.44 500.23 1373.08 556.068 C 1356.52 576.428 1330 606.155 1315.78 627.204 L 1607.17 621.273 C 1602.35 627.072 1597.44 632.77 1592.43 638.407 C 1562.54 672.045 1533.64 706.614 1504.78 741.143 C 1459.52 796.064 1414.86 851.483 1370.82 907.388 C 1353.39 929.299 1336.17 951.367 1319.14 973.59 C 1308.86 986.736 1296.64 1001.34 1287.23 1014.88 L 1614.03 1016.05 C 1594.41 1038.46 1573.35 1060.07 1552.64 1081.52 C 1503.85 1132.03 1456.95 1184.99 1408.23 1235.5 C 1390.3 1253.47 1372.79 1273.2 1355.33 1291.68 L 1221.92 1433.98 C 1202.08 1455.17 1171.74 1489.78 1151.6 1508.44 L 1282.21 1139.04 C 1207.81 1138.6 1127.79 1141.81 1052.82 1142.85 C 1056.99 1130.24 1068.56 1107.62 1074.44 1095.05 L 1110.36 1016.8 L 1239.38 734.311 L 1095.49 737.389 C 1071.11 737.955 1046.1 739.019 1021.76 738.761 C 1025.34 728.759 1033.92 711.447 1038.59 701.409 L 1073.08 627.894 L 1183.46 389.819 C 1197.12 360.258 1213.45 328.475 1226.01 299.087 z" fill="rgb(245,241,235)" transform="translate(0,0)"></path>
<path d="M 634.714 944.533 C 643.924 944.232 651.97 944.311 661.178 944.529 L 661.052 1322.79 C 628.668 1322.6 596.283 1322.58 563.899 1322.72 C 496.332 1322.86 447.627 1325.9 390.808 1278.8 C 281.097 1187.65 310.731 1014.45 440.756 960.305 C 481.338 943.406 512.273 944.838 554.527 944.799 C 581.256 944.887 607.986 944.798 634.714 944.533 z" fill="rgb(196,101,42)" transform="translate(0,0)"></path>
<path d="M 1678.69 1026.73 C 1678.89 1027.47 1679.13 1028.3 1679.21 1029.05 C 1705.84 1263.15 1611.06 1489.81 1464.81 1668.58 C 1452.48 1683.66 1435.55 1701.64 1424.67 1717.04 L 1423.68 1718.45 C 1374.21 1665.41 1303.79 1608.31 1245.58 1564.62 C 1231.94 1554.75 1218.45 1544.67 1205.12 1534.39 C 1226.38 1511.45 1251.58 1485.86 1271.8 1462.83 C 1285.48 1474.43 1303.47 1486.7 1318 1498.34 C 1351.01 1524.45 1383 1551.85 1413.87 1580.47 C 1422.27 1571.16 1430.33 1558.25 1437.24 1547.7 C 1451.25 1526.68 1464.38 1505.08 1476.59 1482.97 C 1485.57 1466.66 1495.85 1450.02 1504.29 1433.67 C 1540.05 1365.05 1564.93 1291.3 1578.04 1215.05 C 1582.73 1188.93 1588.16 1149.45 1586.41 1122.85 C 1615.22 1095.19 1650.78 1056.22 1678.69 1026.73 z" fill="rgb(196,101,42)" transform="translate(0,0)"></path>
<path d="M 479.142 1374.17 C 557.852 1374.82 636.566 1374.75 715.275 1373.97 C 722.083 1410.06 732.764 1451.46 741.491 1487.45 C 715.82 1487.02 690.117 1487.5 664.191 1487.02 C 674.015 1530.74 684.223 1574.38 694.815 1617.93 C 719.873 1617.45 745.516 1617.47 770.591 1617.42 C 772.106 1630.32 776.833 1648.94 779.854 1661.63 C 782.317 1677.29 790.411 1706.83 794.555 1722.91 C 716.215 1724.88 635.25 1721.28 556.586 1723.56 C 549.795 1688.75 540.696 1651.77 532.924 1617 L 498.718 1461.6 C 492.385 1433.17 484.427 1402.55 479.142 1374.17 z" fill="rgb(196,101,42)" transform="translate(0,0)"></path>
<path d="M 715.8 1227.23 C 837.903 1227.34 933.379 1255.5 1041.05 1312.23 C 1074.63 1329.92 1110.33 1350.45 1140.52 1373.3 C 1134.22 1392.97 1123.56 1418.66 1116 1438.66 C 1112.29 1448.31 1109.9 1455.1 1106.99 1465.04 C 1082.91 1445.98 1045.19 1424.92 1018.77 1409.48 C 941.278 1364.19 859.258 1330.78 768.963 1324.04 C 750.795 1322.69 733.49 1322.46 715.15 1322.13 C 716.426 1291.18 715.985 1258.25 715.8 1227.23 z" fill="rgb(196,101,42)" transform="translate(0,0)"></path>
<path d="M 1149.01 793.97 C 1149.21 798.071 1096.57 921.941 1091.05 933.488 C 1070.72 946.642 1035.9 960.632 1013.03 970.691 C 910.958 1015.58 826.897 1039.28 715.337 1040.78 C 715.72 1007.78 716.195 978.247 715 945.049 C 735.94 945.175 757.806 945.586 778.745 942.951 C 878.195 930.435 970.146 890.594 1058.29 844.734 C 1088.72 828.898 1119.55 808.723 1149.01 793.97 z" fill="rgb(196,101,42)" transform="translate(0,0)"></path>
<path d="M 1573.65 742.772 C 1579.47 749.049 1586.87 763.385 1591.3 770.967 C 1618.75 817.99 1639.17 867.799 1656.03 919.447 C 1660.78 933.966 1667.53 952.098 1669.62 967.187 C 1646.61 967.337 1623.05 966.947 1599.99 966.809 L 1570.4 966.961 C 1553.68 909.341 1534.69 870.366 1503.98 819.708 C 1527.2 795.335 1550.96 767.987 1573.65 742.772 z" fill="rgb(196,101,42)" transform="translate(0,0)"></path>
<metadata><recraft-signature>{"signed_by": "recraft", "signature_b64": "Et4LciXW6/h2VE0TQqHrrCZMN9RtNlQNeUNeVf2TerSq15QfCv88Efy77Wt98Cg7+nlLQXLvKJtZOcjn31rcBw==", "signing_algo": "Ed25519", "generation_timestamp": 1774143488, "identifier": "2f9616fc-e820-4684-a2b9-e52e08d23379"}</recraft-signature></metadata></svg>