<svg xmlns="http://www.w3.org/2000/svg" height="1024" preserveAspectRatio="none" style="display: block;" version="1.1" viewBox="0 0 2048 2048" width="1024">
<path d="M 0 0 L 140.216 0 L 435.658 0 L 712.142 0 L 926.794 0 L 1123.17 0 L 1337.78 0 L 1616.17 0 L 1911.42 0 L 2048 0 L 2048 139.511 L 2048 433.484 L 2048 712.274 L 2048 932.821 L 2048 1120.2 L 2048 1338.54 L 2048 1615.53 L 2048 1908.86 L 2048 2048 L 1910.87 2048 L 1611.46 2048 L 1339.64 2048 L 1121.44 2048 L 928.493 2048 L 708.444 2048 L 438.502 2048 L 134.377 2048 L 0 2048 L 0 1904.55 L 0 1613.34 L 0 1335.62 L 0 1119.34 L 0 934.493 L 0 711.356 L 0 431.468 L 0 137.315 L 0 0 z" fill="rgb(107,63,160)" transform="translate(0,0)"></path>
<path d="M 1616.17 0 L 1911.42 0 L 2048 0 L 2048 139.511 L 2048 433.484 C 2036.1 495.635 2011.74 535.711 1949.21 556.814 C 1935.94 542.285 1919.17 527.023 1904.93 513.012 L 1811.65 420.908 C 1768.61 418.504 1723.51 420.932 1680.29 420.336 C 1664.67 420.12 1646.16 423.367 1630.58 425.682 C 1637.21 369.61 1635.11 295.187 1634.86 237.385 C 1618.19 218.387 1587.3 189.313 1568.27 171.072 C 1543.63 147.458 1515.55 118.142 1490.9 95.7201 C 1514.3 34.809 1555.26 11.8826 1616.17 0 z" fill="rgb(107,63,160)" transform="translate(0,0)"></path>
<path d="M 1911.42 0 L 2048 0 L 2048 139.511 C 2045.56 130.064 2044.27 120.549 2041.35 110.945 C 2020.86 43.5297 1976.55 14.725 1911.42 0 z" fill="rgb(245,241,235)" transform="translate(0,0)"></path>
<path d="M 1787.21 265.514 C 1789.98 265.717 1788.05 274.223 1787.84 276.999 C 1786.09 300.417 1786.26 323.781 1788.99 347.093 L 1709.93 346.993 C 1708.33 346.596 1707.83 346.402 1707.82 344.568 C 1707.71 318.226 1708.33 291.705 1707.75 265.384 C 1742.86 268.629 1751.82 269.136 1787.21 265.514 z" fill="rgb(245,241,235)" transform="translate(0,0)"></path>
<path d="M 0 0 L 140.216 0 L 435.658 0 C 482.77 11.4788 516.958 24.7347 543.559 68.6657 C 548.132 76.2179 554.021 87.2849 556.996 95.5348 C 544.862 106.615 532.707 118.801 521.145 130.541 C 485.75 166.48 448.568 200.998 412.96 236.627 L 412.963 335.665 C 412.967 365.38 411.865 397.643 417.489 426.802 C 391.674 420.255 365.574 419.714 339.113 420.032 C 304.986 420.442 270.628 419.513 236.525 420.125 C 207.104 449.647 177.518 479.003 147.767 508.192 C 136.615 519.071 107.421 546.029 98.3713 557.12 C 61.6897 543.708 30.6238 519.25 14.5072 483.323 C 3.26332 458.258 5.77535 454.425 0 431.468 L 0 137.315 L 0 0 z" fill="rgb(107,63,160)" transform="translate(0,0)"></path>
<path d="M 0 0 L 140.216 0 C 103.804 6.88258 74.5457 15.6024 47.4523 42.6052 C 26.5368 63.4508 11.8425 88.3811 4.72212 117.178 C 3.11598 123.631 1.86669 131.03 0 137.315 L 0 0 z" fill="rgb(245,241,235)" transform="translate(0,0)"></path>
<path d="M 258.819 264.6 C 295.998 269.986 303.872 267.871 340.301 265.759 C 340.449 292.221 340.626 320.61 340.077 347.007 L 258.097 347.092 C 262.55 315.725 260.231 295.414 258.819 264.6 z" fill="rgb(245,241,235)" transform="translate(0,0)"></path>
<path d="M 1950.27 1491.11 C 2011.92 1519.51 2035.13 1548.38 2048 1615.53 L 2048 1908.86 L 2048 2048 L 1910.87 2048 L 1611.46 2048 C 1595.53 2043.49 1586.6 2043.6 1569.42 2035.68 C 1530.46 2017.72 1506.78 1991.74 1491.44 1952.18 C 1539.55 1905.96 1587.05 1859.11 1633.93 1811.64 C 1634.71 1756.09 1637.35 1677.53 1630.51 1623.72 C 1667.52 1629.56 1693.99 1628.66 1731.02 1628.56 C 1757.86 1628.4 1784.7 1628.51 1811.54 1628.88 C 1832.09 1610.52 1848.37 1593.3 1867.56 1574.11 C 1895.41 1546.72 1922.98 1519.05 1950.27 1491.11 z" fill="rgb(107,63,160)" transform="translate(0,0)"></path>
<path d="M 2048 1908.86 L 2048 2048 L 1910.87 2048 C 1941.41 2039.99 1952.15 2041.24 1981.48 2020.95 C 2023 1992.24 2038.87 1956.87 2048 1908.86 z" fill="rgb(245,241,235)" transform="translate(0,0)"></path>
<path d="M 1707.8 1701.9 C 1734.17 1701.66 1763 1701.3 1789.23 1701.62 C 1786.19 1736.75 1786.26 1749.97 1789.13 1785.48 C 1756.99 1780.85 1739.83 1780.67 1707.64 1784.8 C 1707.55 1757.17 1707.6 1729.54 1707.8 1701.9 z" fill="rgb(245,241,235)" transform="translate(0,0)"></path>
<path d="M 435.658 0 L 712.142 0 C 700.3 2.22071 686.494 4.63371 675.034 8.10753 C 632.731 21.242 596.128 48.326 571.199 84.94 C 535.136 137.272 537.887 176.89 537.917 236.613 L 537.989 342.64 L 538.026 407.353 C 538.084 469.305 535.813 463.09 580.269 506.508 L 654.938 579.863 C 666.174 590.798 698.046 620.763 705.627 632.091 C 672.938 661.423 655.824 676.791 627.813 709.944 L 505.618 589.838 C 498.243 582.651 490.721 575.362 483.547 567.977 C 470.429 554.297 457.67 540.653 437.28 540.251 C 355.804 538.645 272.632 539.674 191.34 539.649 C 103.985 539.623 27.6428 598.179 6.19208 682.826 C 3.80987 692.226 2.41633 702.089 0 711.356 L 0 431.468 C 5.77535 454.425 3.26332 458.258 14.5072 483.323 C 30.6238 519.25 61.6897 543.708 98.3713 557.12 C 107.421 546.029 136.615 519.071 147.767 508.192 C 177.518 479.003 207.104 449.647 236.525 420.125 C 270.628 419.513 304.986 420.442 339.113 420.032 C 365.574 419.714 391.674 420.255 417.489 426.802 C 411.865 397.643 412.967 365.38 412.963 335.665 L 412.96 236.627 C 448.568 200.998 485.75 166.48 521.145 130.541 C 532.707 118.801 544.862 106.615 556.996 95.5348 C 554.021 87.2849 548.132 76.2179 543.559 68.6657 C 516.958 24.7347 482.77 11.4788 435.658 0 z" fill="rgb(245,241,235)" transform="translate(0,0)"></path>
<path d="M 1421.28 1338.82 C 1455.84 1375.77 1496.56 1412.75 1532.49 1448.93 C 1549.58 1464.38 1565.16 1483.53 1583.04 1497.85 C 1599.03 1510.65 1630.33 1508.13 1649.42 1508.13 L 1718.65 1508.09 L 1817.4 1508.08 C 1842.29 1508.06 1872.61 1508.9 1896.59 1504.76 C 1920.25 1500.86 1942.79 1491.91 1962.68 1478.51 C 2015.26 1442.74 2036.78 1398.89 2048 1338.54 L 2048 1615.53 C 2035.13 1548.38 2011.92 1519.51 1950.27 1491.11 C 1922.98 1519.05 1895.41 1546.72 1867.56 1574.11 C 1848.37 1593.3 1832.09 1610.52 1811.54 1628.88 C 1784.7 1628.51 1757.86 1628.4 1731.02 1628.56 C 1693.99 1628.66 1667.52 1629.56 1630.51 1623.72 C 1637.35 1677.53 1634.71 1756.09 1633.93 1811.64 C 1587.05 1859.11 1539.55 1905.96 1491.44 1952.18 C 1506.78 1991.74 1530.46 2017.72 1569.42 2035.68 C 1586.6 2043.6 1595.53 2043.49 1611.46 2048 L 1339.64 2048 C 1348.69 2045.91 1356.6 2044.92 1365.95 2042.4 C 1399.42 2033.44 1429.98 2015.9 1454.58 1991.5 C 1519.4 1926.6 1509.9 1853.27 1509.88 1770.31 L 1510.04 1609.43 C 1509.74 1576.71 1497.11 1568.88 1475.2 1547.22 C 1462.02 1534.19 1448.31 1521.2 1434.97 1508.3 L 1340.73 1415.41 C 1368.42 1395.33 1398.98 1364.95 1421.28 1338.82 z" fill="rgb(245,241,235)" transform="translate(0,0)"></path>
<path d="M 1337.78 0 L 1616.17 0 C 1555.26 11.8826 1514.3 34.809 1490.9 95.7201 C 1515.55 118.142 1543.63 147.458 1568.27 171.072 C 1587.3 189.313 1618.19 218.387 1634.86 237.385 C 1635.11 295.187 1637.21 369.61 1630.58 425.682 C 1646.16 423.367 1664.67 420.12 1680.29 420.336 C 1723.51 420.932 1768.61 418.504 1811.65 420.908 L 1904.93 513.012 C 1919.17 527.023 1935.94 542.285 1949.21 556.814 C 2011.74 535.711 2036.1 495.635 2048 433.484 L 2048 712.274 C 2045.92 703.782 2044.96 693.662 2042.61 684.211 C 2034.2 649.924 2016.37 618.672 1991.13 593.988 C 1967.7 571.405 1935.86 551.618 1903.65 544.903 C 1861.25 536.062 1812.63 540.497 1769.04 539.638 C 1719.96 538.671 1670.89 540.33 1621.85 539.776 C 1589.67 539.412 1577.8 554.201 1556.56 575.445 C 1546.9 585.026 1536.99 594.823 1527.36 604.378 C 1491.62 639.196 1456.32 674.464 1421.47 710.172 C 1412.99 701.019 1405.38 690.816 1396.55 681.742 C 1379.3 664.023 1360.44 647.27 1341.45 631.491 C 1354.66 620.187 1366.93 607.333 1379.37 595.173 C 1402.3 572.9 1425.05 550.446 1447.61 527.813 C 1465.04 510.446 1485.75 491.723 1501.46 473.259 C 1512.16 460.693 1509.99 419.973 1510 403.36 L 1510.02 327.971 L 1510.01 231.607 C 1509.99 179.972 1511.4 132.805 1480.12 87.4503 C 1443.61 34.5028 1399.97 11.4488 1337.78 0 z" fill="rgb(245,241,235)" transform="translate(0,0)"></path>
<path d="M 415.835 1811.5 C 440.769 1787.95 465.356 1764.04 489.589 1739.78 C 504.18 1725.15 522.967 1705.27 538.145 1691.79 L 538.135 1800.53 C 538.117 1822.59 537.177 1855.32 539.454 1876.83 C 544.404 1920.55 564.059 1961.28 595.198 1992.36 C 617.593 2014.5 648.985 2032.85 679.346 2041.41 C 689.306 2044.21 699.242 2045.55 708.444 2048 L 438.502 2048 C 497.194 2034.4 535.334 2008.46 557.86 1950.32 C 535.274 1928.82 513.224 1906.78 490.545 1885.39 C 465.025 1861.33 441.306 1835.64 415.835 1811.5 z" fill="rgb(245,241,235)" transform="translate(0,0)"></path>
<path d="M 0 1335.62 C 1.68003 1344.26 3.73778 1361.06 6.10801 1368.49 C 21.318 1416.17 45.9537 1452.95 88.3969 1480.2 C 108.132 1492.88 126.327 1500.72 149.45 1504.8 C 174.716 1509.25 204.705 1508.06 230.649 1508.05 C 270.445 1507.69 310.245 1507.85 350.037 1508.53 C 337.365 1522.4 323.816 1534.71 310.748 1548.02 C 285.6 1573.65 258.999 1598.59 233.86 1624.1 C 201.817 1593.73 171.012 1560.13 138.757 1529.76 C 128.742 1520.33 109.197 1499.72 98.3024 1492.1 C 61.4256 1505.26 31.7797 1530.68 14.4121 1566.13 C 5.77099 1583.76 4.86249 1595.47 0 1613.34 L 0 1335.62 z" fill="rgb(245,241,235)" transform="translate(0,0)"></path>
<path d="M 0 1904.55 C 1.67554 1913.52 3.18519 1926.73 5.42715 1934.75 C 14.4914 1967.2 35.9491 2000.45 64.0124 2019.6 C 87.214 2035.43 107.604 2042.34 134.377 2048 L 0 2048 L 0 1904.55 z" fill="rgb(245,241,235)" transform="translate(0,0)"></path>
<path d="M 1024.41 2006.51 C 1046.38 2020.74 1063.48 2032.5 1089.16 2040.13 C 1100.33 2043.44 1111.11 2045.08 1121.44 2048 L 928.493 2048 C 971.626 2039.51 988.236 2031.54 1024.41 2006.51 z" fill="rgb(245,241,235)" transform="translate(0,0)"></path>
<path d="M 926.794 0 L 1123.17 0 C 1079.12 9.8396 1063.43 12.2332 1024.27 40.133 C 984.61 12.5384 972.74 9.34364 926.794 0 z" fill="rgb(245,241,235)" transform="translate(0,0)"></path>
<path d="M 0 934.493 C 8.29174 972.031 16.5452 993.422 39.0552 1025.12 C 24.7422 1046.44 14.0716 1063.68 7.1889 1088.97 C 4.44386 1099.06 2.57854 1109.72 0 1119.34 L 0 934.493 z" fill="rgb(245,241,235)" transform="translate(0,0)"></path>
<path d="M 2048 932.821 L 2048 1120.2 C 2046.15 1112.59 2045.29 1103.29 2043.11 1094.64 C 2035.89 1066.08 2025.22 1048.56 2009.34 1024.89 C 2033.81 990.423 2039.31 973.107 2048 932.821 z" fill="rgb(245,241,235)" transform="translate(0,0)"></path>
<path d="M 995.501 594.445 C 1232.86 578.387 1438.33 757.725 1454.51 995.079 C 1470.68 1232.43 1291.45 1437.99 1054.1 1454.28 C 816.587 1470.59 610.856 1291.2 594.669 1053.68 C 578.482 816.157 757.973 610.515 995.501 594.445 z" fill="rgb(245,241,235)" transform="translate(0,0)"></path>
<path d="M 1001.45 704.384 C 1178.09 691.773 1331.47 824.817 1343.94 1001.46 C 1356.41 1178.11 1223.24 1331.38 1046.59 1343.71 C 870.132 1356.03 717.067 1223.05 704.61 1046.6 C 692.153 870.152 825.016 716.981 1001.45 704.384 z" fill="rgb(107,63,160)" transform="translate(0,0)"></path>
<path d="M 1061.72 780.461 C 1098.99 789.284 1127.27 797.419 1160.11 819.504 C 1200.64 846.762 1235.63 887.518 1253.98 933.008 C 1261.64 951.976 1264.84 967.35 1268.7 987.007 C 1225.48 986.613 1179.47 986.392 1136.35 987.242 C 1125.3 994.457 995.11 1123.3 988.544 1133.68 C 987.253 1145.93 987.869 1168.17 987.883 1181.24 C 988.028 1209.81 987.98 1238.38 987.738 1266.95 C 950.419 1259.7 915.396 1248.87 884.411 1226.39 C 824.863 1183.18 793.028 1133.68 780.406 1061.84 C 823.222 1060.47 866.32 1062.33 908.968 1060.17 C 917.48 1059.74 941.179 1034.29 947.738 1027.86 L 989.67 986.793 C 1004.52 972.205 1019.28 957.517 1033.93 942.729 C 1042 934.605 1054.29 923.123 1060.56 914.175 C 1063.13 872.256 1058.51 821.936 1061.72 780.461 z" fill="rgb(245,241,235)" transform="translate(0,0)"></path>
<path d="M 1166.75 1061.1 C 1200.09 1060.46 1235.01 1060.88 1268.43 1061.08 C 1259.82 1137.57 1205.2 1204.38 1139.36 1240.97 C 1110.68 1256.24 1092.05 1260.63 1061.17 1266.39 C 1061.09 1232.24 1061.31 1198.09 1061.82 1163.94 C 1067.92 1155.33 1090.83 1133.91 1099.82 1125.53 C 1120.37 1106.37 1145.56 1078.15 1166.75 1061.1 z" fill="rgb(245,241,235)" transform="translate(0,0)"></path>
<path d="M 984.57 781.089 L 986.399 781.213 C 988.22 783.968 987.835 872.786 987.879 881.704 C 979.392 892.112 961.968 908.174 951.974 917.957 C 928.549 940.597 905.459 963.581 882.712 986.902 L 783.75 986.735 L 781.324 986.45 L 780.602 985.116 C 785.012 956.728 794.669 929.409 809.08 904.556 C 837.519 856.234 882.315 817.791 934.209 796.286 C 949.409 789.987 968.552 785.28 984.57 781.089 z" fill="rgb(245,241,235)" transform="translate(0,0)"></path>
<path d="M 628.703 1338.78 C 640.701 1351.94 651.006 1365.29 663.942 1378.14 C 677.876 1391.98 691.8 1402.85 706.861 1415.33 C 683.473 1441.93 649.792 1473.03 624.231 1498.31 L 489.916 1631.9 L 345.887 1775.53 C 325.45 1796.06 267.751 1858.79 245.973 1869.28 C 223.468 1876.3 204.843 1873.37 187.146 1856.46 C 176.208 1846.05 169.964 1831.64 169.844 1816.53 C 169.771 1807.99 172.049 1796.33 177.366 1789.57 C 192.667 1770.11 212.517 1752.66 230.229 1735.05 L 327.085 1638.79 L 628.703 1338.78 z" fill="rgb(245,241,235)" transform="translate(0,0)"></path>
<path d="M 90.9919 1061.23 C 136.975 1060.28 185.792 1061.26 232.005 1061.21 L 518.747 1061.08 C 523.603 1137.17 546.325 1211.05 585.072 1276.71 C 564.129 1296.41 540.405 1320.35 520.076 1340.78 C 500.012 1361.19 478.391 1380.73 458.802 1401.47 C 443.943 1386.02 419.004 1365.02 406.389 1349.42 L 406.195 1251.95 C 406.198 1224.55 405.639 1197.74 409.078 1170.48 C 375.106 1176.13 342.017 1175.14 307.754 1175.07 L 204.538 1175.02 C 181.362 1151.73 158.016 1128.6 134.501 1105.65 C 122.341 1093.75 100.829 1073.73 90.9919 1061.23 z" fill="rgb(245,241,235)" transform="translate(0,0)"></path>
<path d="M 1061.79 91.7386 C 1067.28 95.4702 1089.15 117.786 1095.27 123.792 C 1122.59 150.187 1149.49 177.021 1175.94 204.283 L 1176.18 316.215 C 1176.31 352.977 1177.67 384.882 1171.55 421.37 C 1198.26 414.557 1242.85 415.845 1271.35 415.683 C 1297.27 415.536 1327.52 414.81 1353.26 415.774 C 1369.82 432.73 1386.6 449.466 1403.6 465.978 C 1384.8 482.97 1364.74 503.671 1346.56 521.766 C 1323.96 543.097 1300.46 567.233 1278.2 589.253 C 1215.57 552.571 1134.19 526.543 1061.41 521.841 L 1061.47 219.945 L 1061.15 135.408 C 1061.11 125.597 1060.42 100.044 1061.79 91.7386 z" fill="rgb(245,241,235)" transform="translate(0,0)"></path>
<path d="M 1530.86 1061.29 L 1798.21 1061.12 C 1847.91 1061.06 1909.21 1059.27 1957.51 1062.01 C 1945.11 1075.56 1928.31 1090.79 1914.91 1103.9 L 1843.08 1175.15 L 1739.03 1175.12 C 1710.46 1175.14 1686.26 1175.84 1657.76 1172.74 C 1651.24 1172.25 1645.57 1171.52 1639.09 1170.63 C 1643.07 1194.92 1642.37 1223.73 1642.38 1248.65 L 1642.02 1349.46 C 1626.32 1366.46 1606.76 1384.92 1590.2 1401.6 C 1550.17 1358.59 1503.78 1319.07 1463.57 1276.56 C 1502.55 1213.96 1524.49 1134.43 1530.86 1061.29 z" fill="rgb(245,241,235)" transform="translate(0,0)"></path>
<path d="M 985.966 93.7837 L 986.521 94.3043 C 988.472 100.175 987.373 178.213 987.378 190.451 L 987.025 522.813 C 913.358 526.282 834.324 552.563 770.824 589.776 C 748.765 570.592 726.195 545.721 704.791 525.122 C 688.604 509.083 660.579 482.652 646.464 465.908 C 662.21 449.227 680.62 432.355 695.504 415.614 C 753.087 417.731 822.452 411.518 877.69 420.856 C 871.388 387.097 872.937 352.95 872.934 318.669 L 872.964 204.488 C 891.102 186.043 910.037 168.497 928.333 150.279 C 947.522 131.172 965.731 111.915 985.966 93.7837 z" fill="rgb(245,241,235)" transform="translate(0,0)"></path>
<path d="M 1277.27 1459.99 C 1282.58 1461.38 1390.9 1569.7 1403.14 1582.86 C 1390.87 1596.59 1367.51 1618.14 1353.62 1631.96 L 1268.37 1632.12 C 1229.21 1632.28 1210.72 1633.94 1171.79 1626.63 C 1176.64 1664.49 1175.87 1693.6 1175.91 1731.8 L 1176.05 1841.94 C 1165.2 1855.01 1143.69 1875.08 1131.08 1887.5 C 1108.22 1910.24 1083.75 1932.73 1061.34 1955.42 C 1060.17 1904.33 1061.18 1849.62 1061.29 1798.21 L 1061.06 1526.59 C 1141.54 1520.25 1206.96 1498.55 1277.27 1459.99 z" fill="rgb(245,241,235)" transform="translate(0,0)"></path>
<path d="M 771.785 1458.76 C 778.596 1463.68 792.012 1470.66 799.782 1474.63 C 857.897 1504.32 922.552 1519.96 987.135 1526.88 L 987.247 1788.87 C 986.848 1844.42 987.057 1899.96 987.874 1955.5 C 965.539 1933.02 942.014 1910.59 919.416 1888.17 C 903.735 1873.43 888.297 1858.44 873.108 1843.2 C 872.527 1797.79 873.983 1752.03 873.077 1706.63 C 872.509 1678.17 873.742 1654.45 877.83 1626.4 C 844.749 1633.16 814.98 1631.93 781.6 1631.89 L 695.135 1631.75 C 678.91 1615.02 661.368 1599.55 645.144 1582.43 C 675.317 1555.48 704.403 1524 733.476 1495.8 C 746.257 1483.4 758.27 1470.5 771.785 1458.76 z" fill="rgb(245,241,235)" transform="translate(0,0)"></path>
<path d="M 456.854 648.618 C 461.368 650.218 576.332 763.83 584.593 772.246 C 547.517 838.913 521.996 910.154 518.787 986.994 C 417.537 985.7 313.001 987.045 211.5 987.02 L 90.6803 986.959 C 104.99 971.817 119.681 958.765 134.168 944.284 C 157.656 920.805 180.786 897.963 204.807 875.012 C 234.151 875.051 263.494 874.85 292.835 874.408 C 334.91 873.93 367.645 872.49 409.339 880.659 C 403.909 825.447 406.472 756.5 406.765 699.602 C 420.196 684.343 441.933 663.652 456.854 648.618 z" fill="rgb(245,241,235)" transform="translate(0,0)"></path>
<path d="M 1590.88 647.736 C 1597.86 652.868 1633.77 691.129 1641.75 699.463 C 1643.01 736.522 1641.56 774.293 1642.23 811.395 C 1642.65 834.663 1641.68 856.391 1638.7 879.468 C 1654.76 878.192 1669.55 875.017 1686.15 874.563 C 1707.8 873.971 1729.4 874.239 1751.04 874.309 L 1842.68 874.074 C 1880.92 910.633 1918.68 951.136 1957.21 987.148 L 1839.5 987.015 L 1530.17 987.022 C 1526.42 930.216 1512.69 874.514 1489.62 822.472 C 1481.87 805.315 1473.02 789.676 1464.36 773.025 C 1475.11 760.562 1495.72 741.79 1508.07 729.717 C 1535.89 702.609 1563.49 675.281 1590.88 647.736 z" fill="rgb(245,241,235)" transform="translate(0,0)"></path>
<path d="M 736.899 1705.01 C 756.476 1705.04 778.905 1704.77 798.337 1705.42 C 797.976 1735.41 798.353 1765.49 797.805 1795.41 C 797.797 1795.86 795.923 1796.36 796.063 1796.31 C 772.93 1793.4 759.99 1795 737.561 1795.6 C 740.483 1767.27 742.204 1733.16 736.899 1705.01 z" fill="rgb(245,241,235)" transform="translate(0,0)"></path>
<path d="M 243.724 737.906 C 246.117 738.669 248.55 739.304 251.01 739.81 C 280.338 745.606 304.123 745.084 332.888 737.315 L 333.08 798.25 C 333.065 799.168 333.04 801.226 332.499 801.25 C 316.134 801.976 257.62 801.678 244.74 801.452 C 245.887 775.234 247.049 765.267 243.724 737.906 z" fill="rgb(245,241,235)" transform="translate(0,0)"></path>
<path d="M 737.086 251.801 C 760.246 254.461 775.144 255.334 798.546 252.064 C 798.161 262.13 798.889 340.982 796.879 342.483 C 778.529 342.381 753.877 344.12 736.226 342.384 C 741.196 313.94 742.755 280.337 737.086 251.801 z" fill="rgb(245,241,235)" transform="translate(0,0)"></path>
<path d="M 1249.32 1705.2 C 1267.53 1704.99 1292.4 1704.53 1310.12 1705.84 C 1305.24 1738.33 1305.66 1762.94 1309.57 1795.61 C 1302.57 1795.93 1289.26 1794.45 1281.5 1794.34 C 1270.23 1794.19 1260.63 1795.14 1249.53 1796.1 C 1249.23 1766.34 1248.92 1734.93 1249.32 1705.2 z" fill="rgb(245,241,235)" transform="translate(0,0)"></path>
<path d="M 1716.21 737.936 C 1748.88 745.949 1772.93 745.724 1805.4 738.221 C 1803.34 760.124 1801.19 774.072 1804.85 796.776 C 1804.88 796.935 1805.73 800.88 1804.88 800.894 C 1775.64 801.394 1745.57 802.105 1716.18 801.848 C 1716.02 780.544 1716.04 759.24 1716.21 737.936 z" fill="rgb(245,241,235)" transform="translate(0,0)"></path>
<path d="M 1249.73 252.75 C 1276.45 253.806 1283.32 254.084 1310.13 252.777 C 1304.52 283.68 1307.08 310.351 1309.45 341.157 C 1308.5 342.822 1255.4 342.536 1249.52 342.452 C 1249.1 312.93 1249.57 282.355 1249.73 252.75 z" fill="rgb(245,241,235)" transform="translate(0,0)"></path>
<path d="M 1792.18 1248.49 C 1796.64 1248.45 1800.86 1248.58 1805.31 1248.71 C 1802.44 1269.08 1801.99 1289.35 1806.49 1309.53 C 1778.82 1303.92 1763.29 1304.92 1735.66 1306.09 C 1727.98 1307.28 1723.64 1307.87 1715.92 1309.6 L 1716.26 1248.74 C 1741.56 1248.87 1766.87 1248.78 1792.18 1248.49 z" fill="rgb(245,241,235)" transform="translate(0,0)"></path>
<path d="M 244.784 1248.99 C 274.313 1248.8 303.842 1248.78 333.371 1248.93 C 333.456 1259.03 333.934 1296.37 332.794 1308.73 C 332.721 1309.52 329.593 1308.87 328.777 1308.73 C 298.412 1303.71 274.602 1303.4 244.383 1308.96 C 247.733 1282.37 245.846 1273.87 244.784 1248.99 z" fill="rgb(245,241,235)" transform="translate(0,0)"></path>
<metadata><recraft-signature>{"signed_by": "recraft", "signature_b64": "qZyl84yruO11v7upSpqO6qSaFiZ+KXJOKaQPjRlmbwZdAtGiEKYq4pXFljQXfILZvR3VGP4r8ks9Yx6qrUjWCg==", "signing_algo": "Ed25519", "generation_timestamp": 1774143348, "identifier": "c618047e-d406-473c-9b0a-98e8d939476f"}</recraft-signature></metadata></svg>