<svg xmlns="http://www.w3.org/2000/svg" height="1024" preserveAspectRatio="none" style="display: block;" version="1.1" viewBox="0 0 2048 2048" width="1024">
<path d="M 1358.84 274.807 C 1368.78 274.608 1379.2 274.235 1389.11 274.428 L 1389.25 312.656 C 1433.85 306.819 1465.96 306.379 1509.22 322.877 L 1509.23 275.023 L 1540.36 275.051 C 1540.44 295.112 1541.01 317.988 1540.49 337.828 C 1587.65 367.533 1609.2 393.535 1630.61 445.17 L 1743.58 445.011 C 1743.52 454.464 1743.34 464.115 1743.42 473.549 C 1708.47 473.452 1673.52 473.556 1638.57 473.859 C 1643.48 510.767 1643.24 534.638 1632.21 570.793 C 1669.17 570.879 1706.86 570.432 1743.72 570.851 L 1743.81 599.219 L 1622.21 599.247 C 1608.91 622.032 1594.08 642.749 1574.5 660.738 C 1626.72 659.064 1691.53 658.983 1743.83 659.775 L 1743.85 688.66 L 1540.01 688.975 C 1540.43 748.642 1540.48 808.311 1540.16 867.979 L 1743.97 867.87 L 1743.89 897.804 C 1676.17 897.465 1608.46 897.494 1540.75 897.888 L 1540.53 1030 L 1743.77 1030 L 1743.82 1059.94 L 1540.72 1059.95 L 1541.01 1239.17 L 1674.67 1239.48 C 1696.5 1239.55 1721.44 1239.04 1743.07 1239.81 L 1743.15 1268.03 L 1540.89 1268.1 C 1541.08 1374.65 1542.68 1487.08 1540.75 1593.24 L 1743.71 1593.58 L 1743.67 1621.32 L 1541.04 1621.09 L 1540.66 1752.97 L 1509.61 1752.99 C 1509.19 1709.21 1509.01 1665.42 1509.09 1621.64 L 1389.34 1621.7 C 1389.33 1631.34 1390.28 1667.16 1388.76 1673.9 C 1389.73 1683.42 1389.31 1691.43 1389.03 1700.95 L 1454.99 1701.03 L 1455.08 1771.57 L 595.838 1771.81 C 595.58 1748.38 595.888 1724.33 595.926 1700.85 C 617.632 1700.71 639.339 1700.75 661.045 1700.96 C 660.872 1687.34 660.655 1679.34 663.141 1666.11 C 663.006 1651.12 662.978 1636.12 663.059 1621.13 L 539.381 1621.76 L 539.199 1753.23 L 509.025 1753.29 L 509.035 1621.18 C 442.844 1621.27 375.181 1620.61 309.104 1621.54 L 309.002 1593.4 L 509.023 1593.22 L 508.937 1268 L 308.823 1268.15 C 308.772 1258.73 308.6 1249.06 308.697 1239.66 C 374.566 1238.22 442.894 1239.79 509.059 1239.43 L 509.016 1059.74 L 308.814 1060.06 L 308.723 1030.18 L 509.049 1030.01 L 508.988 897.622 L 308.968 898.086 L 308.879 867.895 L 509.082 868.111 L 509.242 688.752 C 443.002 688.965 375.103 689.704 308.991 688.845 L 308.975 660.015 L 478.021 660.502 C 461.586 643.875 441.424 620.133 430.766 599.276 C 390.816 599.114 349.035 598.653 309.097 599.323 L 309.01 570.947 L 419.047 570.881 C 409.685 534.31 408.335 511.623 414.063 473.841 L 309.04 473.954 L 309.017 445.045 L 421.955 445.211 C 439.265 398.377 467.456 366.196 508.999 339.428 L 508.779 275.054 L 539.014 275.069 L 539.128 324.465 C 581.754 308.427 618.181 304.101 663.541 313.28 C 663.421 300.507 663.388 287.732 663.443 274.958 L 693.069 274.975 C 693.123 290.244 692.924 306.323 693.326 321.523 C 741.755 338.284 774.955 371.033 800.097 414.673 L 800.938 274.949 L 831.018 274.884 L 831.075 445.046 L 1219.02 444.999 L 1219.11 274.947 L 1249.26 274.97 C 1249.38 322.512 1250.3 368.282 1251.07 415.63 C 1279.3 367.823 1306.72 340.468 1358.98 320.21 L 1358.84 274.807 z" fill="rgb(58,107,140)" transform="translate(0,0)"></path>
<path d="M 663.141 1666.11 C 670.386 1636.78 697.803 1614.17 727.934 1613.34 C 742.092 1612.96 756.023 1612.94 770.179 1612.93 L 840.759 1612.92 L 1068 1613.22 L 1243.3 1613.01 C 1268.19 1612.97 1293.32 1612.91 1318.24 1613.14 C 1353.72 1613.47 1381.73 1638.83 1388.76 1673.9 C 1389.73 1683.42 1389.31 1691.43 1389.03 1700.95 L 1454.99 1701.03 L 1455.08 1771.57 L 595.838 1771.81 C 595.58 1748.38 595.888 1724.33 595.926 1700.85 C 617.632 1700.71 639.339 1700.75 661.045 1700.96 C 660.872 1687.34 660.655 1679.34 663.141 1666.11 z" fill="rgb(245,241,235)" transform="translate(0,0)"></path>
<path d="M 693.273 688.658 L 759.054 688.611 C 770.678 688.552 783.894 687.969 795.293 688.741 C 798.012 691.631 797.429 692.546 798.489 697.105 C 809.653 694.544 852.423 695.557 865.467 695.577 L 988.264 695.481 L 1170.07 695.199 C 1185.4 695.198 1240.01 694.299 1250.96 696.786 C 1251.11 693.287 1250.54 691.381 1252.24 689.082 C 1262.45 688.169 1278.44 688.67 1289.1 688.709 L 1358.97 688.875 L 1358.86 868.266 L 1220.9 868.091 L 1220.82 897.99 L 1220.82 1030.04 L 1220.8 1059.93 L 1358.86 1059.78 L 1358.98 1239.26 C 1314.13 1239.36 1265.32 1238.41 1220.81 1239.72 L 1220.72 1268.13 L 1359 1267.99 L 1358.97 1330.88 C 1333.4 1359.62 1295.73 1384.31 1264.06 1405.63 C 1277.02 1418.06 1278.81 1424.99 1279.42 1442.59 C 1276.15 1453.19 1273.8 1459.06 1265.25 1466.98 C 1264.88 1477.61 1264.94 1487.67 1265.02 1498.29 C 1297.54 1498.42 1320.26 1522.08 1314.07 1554.72 C 1307.6 1572.9 1293.89 1588.89 1273.52 1589.57 C 1250.26 1590.35 1226.58 1589.95 1203.31 1589.92 L 1073.83 1589.73 L 881.252 1589.84 C 860.619 1589.86 774.975 1592.13 760.692 1587.02 C 747.419 1582.26 739.275 1572.7 733.626 1560.16 C 732.969 1558.71 732.369 1557.24 731.776 1555.76 C 731.572 1554.46 731.406 1553.15 731.279 1551.84 C 728.57 1522.66 744.912 1500.69 774.915 1498.75 C 778.329 1498.26 782.327 1498.47 785.838 1498.49 C 785.859 1488.43 785.972 1478.72 785.311 1468.66 C 773.645 1458.32 766.68 1446.81 770.216 1430.53 C 772.296 1417.92 777.179 1412.21 786.504 1404.47 C 748.973 1380.76 725.182 1364.16 692.443 1333.33 C 692.74 1311.56 692.779 1289.79 692.561 1268.02 L 826.918 1267.95 C 826.779 1281.31 826.298 1297.41 827.168 1310.51 C 828.37 1299.49 828.171 1238.61 827.145 1227.94 C 827.009 1232.04 827.207 1235.5 825.829 1239.34 C 817.746 1240.39 791.77 1239.57 782.226 1239.53 C 752.47 1239.38 722.713 1239.38 692.957 1239.54 L 692.848 1059.8 L 827.202 1059.59 L 827.326 1030.11 L 827.258 897.818 L 827.415 868.001 L 693.011 867.979 L 693.273 688.658 z" fill="rgb(245,241,235)" transform="translate(0,0)"></path>
<path d="M 786.504 1404.47 C 791.416 1402.28 796.205 1400.02 801.623 1399.9 C 822.776 1399.41 844.24 1399.5 865.394 1399.44 L 989.701 1399.29 L 1157.24 1399.57 C 1185.88 1399.62 1214.53 1399.58 1243.17 1399.75 C 1253.06 1399.81 1255.53 1401.25 1264.06 1405.63 C 1277.02 1418.06 1278.81 1424.99 1279.42 1442.59 C 1276.15 1453.19 1273.8 1459.06 1265.25 1466.98 C 1264.88 1477.61 1264.94 1487.67 1265.02 1498.29 C 1297.54 1498.42 1320.26 1522.08 1314.07 1554.72 C 1307.6 1572.9 1293.89 1588.89 1273.52 1589.57 C 1250.26 1590.35 1226.58 1589.95 1203.31 1589.92 L 1073.83 1589.73 L 881.252 1589.84 C 860.619 1589.86 774.975 1592.13 760.692 1587.02 C 747.419 1582.26 739.275 1572.7 733.626 1560.16 C 732.969 1558.71 732.369 1557.24 731.776 1555.76 C 731.572 1554.46 731.406 1553.15 731.279 1551.84 C 728.57 1522.66 744.912 1500.69 774.915 1498.75 C 778.329 1498.26 782.327 1498.47 785.838 1498.49 C 785.859 1488.43 785.972 1478.72 785.311 1468.66 C 773.645 1458.32 766.68 1446.81 770.216 1430.53 C 772.296 1417.92 777.179 1412.21 786.504 1404.47 z" fill="rgb(245,241,235)" transform="translate(0,0)"></path>
<path d="M 786.504 1404.47 C 791.416 1402.28 796.205 1400.02 801.623 1399.9 C 822.776 1399.41 844.24 1399.5 865.394 1399.44 L 989.701 1399.29 L 1157.24 1399.57 C 1185.88 1399.62 1214.53 1399.58 1243.17 1399.75 C 1253.06 1399.81 1255.53 1401.25 1264.06 1405.63 C 1277.02 1418.06 1278.81 1424.99 1279.42 1442.59 C 1276.15 1453.19 1273.8 1459.06 1265.25 1466.98 C 1248.07 1476.74 1230.08 1474.11 1210.61 1474.4 C 1185.22 1474.75 1159.82 1474.91 1134.42 1474.88 L 930.678 1474.66 L 837.24 1474.4 C 824.709 1474.34 811.924 1474.36 799.401 1473.8 C 794.957 1473.6 789.392 1470.62 785.311 1468.66 C 773.645 1458.32 766.68 1446.81 770.216 1430.53 C 772.296 1417.92 777.179 1412.21 786.504 1404.47 z" fill="rgb(245,241,235)" transform="translate(0,0)"></path>
<path d="M 1265.25 1466.98 C 1264.88 1477.61 1264.94 1487.67 1265.02 1498.29 C 1233.81 1499.89 1193.74 1498.86 1162.1 1498.88 L 976.855 1498.94 L 843.251 1498.93 C 825.92 1498.96 790.639 1500.05 774.915 1498.75 C 778.329 1498.26 782.327 1498.47 785.838 1498.49 C 785.859 1488.43 785.972 1478.72 785.311 1468.66 C 789.392 1470.62 794.957 1473.6 799.401 1473.8 C 811.924 1474.36 824.709 1474.34 837.24 1474.4 L 930.678 1474.66 L 1134.42 1474.88 C 1159.82 1474.91 1185.22 1474.75 1210.61 1474.4 C 1230.08 1474.11 1248.07 1476.74 1265.25 1466.98 z" fill="rgb(58,107,140)" transform="translate(0,0)"></path>
<path d="M 693.273 688.658 L 759.054 688.611 C 770.678 688.552 783.894 687.969 795.293 688.741 C 798.012 691.631 797.429 692.546 798.489 697.105 C 809.653 694.544 852.423 695.557 865.467 695.577 L 988.264 695.481 L 1170.07 695.199 C 1185.4 695.198 1240.01 694.299 1250.96 696.786 C 1251.11 693.287 1250.54 691.381 1252.24 689.082 C 1262.45 688.169 1278.44 688.67 1289.1 688.709 L 1358.97 688.875 L 1358.86 868.266 L 1220.9 868.091 L 1220.9 806.749 L 827.439 806.941 L 827.415 868.001 L 693.011 867.979 L 693.273 688.658 z" fill="rgb(30,27,28)" transform="translate(0,0)"></path>
<path d="M 798.489 697.105 C 809.653 694.544 852.423 695.557 865.467 695.577 L 988.264 695.481 L 1170.07 695.199 C 1185.4 695.198 1240.01 694.299 1250.96 696.786 C 1289.69 712.662 1284.37 763.991 1255.43 775.714 C 1241.81 781.232 1173.19 778.911 1155.86 778.907 L 1003.89 778.904 L 881.548 778.882 C 864.502 778.877 809.861 780.768 796.65 776.619 C 762.327 765.838 758.452 713.014 798.489 697.105 z" fill="rgb(245,241,235)" transform="translate(0,0)"></path>
<path d="M 692.561 1268.02 L 826.918 1267.95 C 826.779 1281.31 826.298 1297.41 827.168 1310.51 C 827.951 1327.81 827.299 1352.9 827.336 1370.7 C 873.095 1371.53 921.596 1370.67 967.552 1370.64 L 1220.6 1370.58 C 1221.12 1336.83 1220.69 1301.97 1220.72 1268.13 L 1359 1267.99 L 1358.97 1330.88 C 1333.4 1359.62 1295.73 1384.31 1264.06 1405.63 C 1255.53 1401.25 1253.06 1399.81 1243.17 1399.75 C 1214.53 1399.58 1185.88 1399.62 1157.24 1399.57 L 989.701 1399.29 L 865.394 1399.44 C 844.24 1399.5 822.776 1399.41 801.623 1399.9 C 796.205 1400.02 791.416 1402.28 786.504 1404.47 C 748.973 1380.76 725.182 1364.16 692.443 1333.33 C 692.74 1311.56 692.779 1289.79 692.561 1268.02 z" fill="rgb(30,27,28)" transform="translate(0,0)"></path>
<path d="M 1220.8 1059.93 L 1358.86 1059.78 L 1358.98 1239.26 C 1314.13 1239.36 1265.32 1238.41 1220.81 1239.72 L 1220.8 1059.93 z" fill="rgb(30,27,28)" transform="translate(0,0)"></path>
<path d="M 692.848 1059.8 L 827.202 1059.59 C 827.024 1114.19 828.596 1174.13 827.145 1227.94 C 827.009 1232.04 827.207 1235.5 825.829 1239.34 C 817.746 1240.39 791.77 1239.57 782.226 1239.53 C 752.47 1239.38 722.713 1239.38 692.957 1239.54 L 692.848 1059.8 z" fill="rgb(30,27,28)" transform="translate(0,0)"></path>
<path d="M 1000.18 995.487 C 1001.11 1006.06 1000.8 1019.25 1000.82 1030.05 L 1048.21 1030.05 C 1048.21 1039.88 1048.37 1050.29 1048.16 1060.06 C 1048.12 1119.36 1047.3 1180.52 1048.18 1239.6 C 1033.55 1238.95 1014.91 1239.22 1000.06 1239.33 C 999.867 1193.4 999.913 1147.47 1000.2 1101.54 C 999.811 1084.38 1000.25 1067.17 1000.24 1050 C 1000.24 1031.85 999.641 1013.61 1000.18 995.487 z" fill="rgb(30,27,28)" transform="translate(0,0)"></path>
<path d="M 1000.18 995.487 C 1001.11 1006.06 1000.8 1019.25 1000.82 1030.05 L 1048.21 1030.05 C 1048.21 1039.88 1048.37 1050.29 1048.16 1060.06 L 1001.03 1060.03 C 1001.07 1067.99 1001.64 1094.67 1000.2 1101.54 C 999.811 1084.38 1000.25 1067.17 1000.24 1050 C 1000.24 1031.85 999.641 1013.61 1000.18 995.487 z" fill="rgb(58,107,140)" transform="translate(0,0)"></path>
<path d="M 1105.72 1030.07 L 1153.08 1030.13 C 1153.09 1039.84 1153.32 1050.44 1153.03 1060.06 L 1153.04 1239.62 C 1137.99 1238.87 1120.86 1239.22 1105.68 1239.1 C 1106.1 1211.44 1105.79 1182.95 1105.83 1155.21 C 1104.8 1146.64 1105.25 1123.09 1105.23 1114.06 C 1105.09 1086.06 1105.25 1058.07 1105.72 1030.07 z" fill="rgb(30,27,28)" transform="translate(0,0)"></path>
<path d="M 1105.72 1030.07 L 1153.08 1030.13 C 1153.09 1039.84 1153.32 1050.44 1153.03 1060.06 L 1106.15 1059.99 L 1106.24 1120.49 C 1106.25 1130.66 1106.68 1145.45 1105.83 1155.21 C 1104.8 1146.64 1105.25 1123.09 1105.23 1114.06 C 1105.09 1086.06 1105.25 1058.07 1105.72 1030.07 z" fill="rgb(58,107,140)" transform="translate(0,0)"></path>
<path d="M 908.907 867.523 C 916.221 864.712 919.096 864.831 926.305 866.359 C 926.647 866.489 926.987 866.624 927.331 866.748 C 927.547 866.825 927.769 866.884 927.984 866.964 C 933.611 869.059 938.929 874.273 941.409 879.699 C 945.709 889.107 944.344 952.043 943.17 965.35 L 943.287 1030 C 943.41 1040.01 943.403 1050.02 943.266 1060.03 C 927.652 1060.04 909.374 1059.54 894.013 1060.16 C 893.959 1050.17 894.195 1039.91 893.941 1029.97 L 893.923 897.865 C 893.559 885.374 894.878 872.482 908.907 867.523 z" fill="rgb(30,27,28)" transform="translate(0,0)"></path>
<path d="M 893.941 1029.97 C 910.39 1029.87 926.839 1029.88 943.287 1030 C 943.41 1040.01 943.403 1050.02 943.266 1060.03 C 927.652 1060.04 909.374 1059.54 894.013 1060.16 C 893.959 1050.17 894.195 1039.91 893.941 1029.97 z" fill="rgb(58,107,140)" transform="translate(0,0)"></path>
<path d="M 908.907 867.523 C 916.221 864.712 919.096 864.831 926.305 866.359 C 926.647 866.489 926.987 866.624 927.331 866.748 C 927.547 866.825 927.769 866.884 927.984 866.964 C 933.611 869.059 938.929 874.273 941.409 879.699 C 945.709 889.107 944.344 952.043 943.17 965.35 C 941.81 949.887 942.748 914.778 942.812 897.916 C 928.121 897.705 908.353 897.171 893.923 897.865 C 893.559 885.374 894.878 872.482 908.907 867.523 z" fill="rgb(58,107,140)" transform="translate(0,0)"></path>
<path d="M 908.907 867.523 C 916.221 864.712 919.096 864.831 926.305 866.359 C 921.008 868.454 914.456 868.511 908.907 867.523 z" fill="rgb(43,50,56)" transform="translate(0,0)"></path>
<path d="M 894.013 1060.16 C 909.374 1059.54 927.652 1060.04 943.266 1060.03 L 943.212 1177.95 C 943.225 1197.84 942.758 1219.99 943.377 1239.74 C 926.794 1239.46 910.209 1239.42 893.625 1239.63 C 895.422 1183.8 894.169 1116.39 894.013 1060.16 z" fill="rgb(30,27,28)" transform="translate(0,0)"></path>
<path d="M 1017.14 866.589 C 1023.65 865.335 1024.32 865.478 1030.88 866.555 C 1032.7 867.097 1033.2 867.489 1034.96 868.444 C 1047.39 874.299 1049.01 886.015 1048.28 898.186 C 1048.02 942.141 1048 986.097 1048.21 1030.05 L 1000.82 1030.05 C 1000.8 1019.25 1001.11 1006.06 1000.18 995.487 C 999.183 964.245 1000.27 930.106 999.729 898.313 C 999.109 886.696 1000.59 873.336 1013.15 868.435 C 1014.81 867.564 1015.41 867.153 1017.14 866.589 z" fill="rgb(30,27,28)" transform="translate(0,0)"></path>
<path d="M 1017.14 866.589 C 1023.65 865.335 1024.32 865.478 1030.88 866.555 C 1032.7 867.097 1033.2 867.489 1034.96 868.444 C 1047.39 874.299 1049.01 886.015 1048.28 898.186 C 1032.09 898.333 1015.91 898.375 999.729 898.313 C 999.109 886.696 1000.59 873.336 1013.15 868.435 C 1014.81 867.564 1015.41 867.153 1017.14 866.589 z" fill="rgb(58,107,140)" transform="translate(0,0)"></path>
<path d="M 1017.14 866.589 C 1023.65 865.335 1024.32 865.478 1030.88 866.555 C 1027.03 868.903 1021.03 868.843 1017.14 866.589 z" fill="rgb(30,27,28)" transform="translate(0,0)"></path>
<path d="M 1121.64 866.383 C 1129.4 864.539 1131.67 864.518 1139.16 867.267 C 1152.61 874.955 1153.58 883.441 1153.07 897.988 L 1153.08 1030.13 L 1105.72 1030.07 C 1104.22 1017.51 1104.57 888.031 1106.56 881.496 C 1108.72 874.386 1115.3 869.554 1121.64 866.383 z" fill="rgb(30,27,28)" transform="translate(0,0)"></path>
<path d="M 1121.64 866.383 C 1129.4 864.539 1131.67 864.518 1139.16 867.267 C 1152.61 874.955 1153.58 883.441 1153.07 897.988 L 1106.08 898.035 L 1106.29 988.088 C 1106.3 995.132 1106.73 1024.19 1105.72 1030.07 C 1104.22 1017.51 1104.57 888.031 1106.56 881.496 C 1108.72 874.386 1115.3 869.554 1121.64 866.383 z" fill="rgb(58,107,140)" transform="translate(0,0)"></path>
<path d="M 1121.64 866.383 C 1129.4 864.539 1131.67 864.518 1139.16 867.267 C 1132.81 868.762 1127.87 868.26 1121.64 866.383 z" fill="rgb(43,50,56)" transform="translate(0,0)"></path>
<path d="M 943.377 1239.74 C 943.708 1247.97 943.645 1259.76 943.276 1268.07 C 943.06 1279.42 945.532 1293.47 936.461 1301.88 C 925.519 1312.04 907.911 1311.33 898.281 1299.74 C 895.758 1296.76 894.208 1293.08 893.838 1289.2 C 892.345 1279.2 892.888 1250.56 893.625 1239.63 C 910.209 1239.42 926.794 1239.46 943.377 1239.74 z" fill="rgb(30,27,28)" transform="translate(0,0)"></path>
<path d="M 943.377 1239.74 C 943.708 1247.97 943.645 1259.76 943.276 1268.07 L 894.169 1268.15 C 894.195 1275.24 894.402 1282.12 893.838 1289.2 C 892.345 1279.2 892.888 1250.56 893.625 1239.63 C 910.209 1239.42 926.794 1239.46 943.377 1239.74 z" fill="rgb(58,107,140)" transform="translate(0,0)"></path>
<path d="M 1000.06 1239.33 C 1014.91 1239.22 1033.55 1238.95 1048.18 1239.6 C 1048.3 1249.04 1048.32 1258.48 1048.23 1267.92 C 1048.16 1278.81 1050.32 1293.89 1042.04 1302.04 C 1029.35 1314.54 1004.86 1309.53 1000.83 1291.14 C 999.758 1285.35 999.952 1275.61 1000.09 1269.5 C 1000.28 1259.45 1000.27 1249.39 1000.06 1239.33 z" fill="rgb(30,27,28)" transform="translate(0,0)"></path>
<path d="M 1000.06 1239.33 C 1014.91 1239.22 1033.55 1238.95 1048.18 1239.6 C 1048.3 1249.04 1048.32 1258.48 1048.23 1267.92 C 1032.51 1267.69 1016.79 1267.69 1001.07 1267.93 C 1001.1 1275.5 1001.34 1283.65 1000.83 1291.14 C 999.758 1285.35 999.952 1275.61 1000.09 1269.5 C 1000.28 1259.45 1000.27 1249.39 1000.06 1239.33 z" fill="rgb(58,107,140)" transform="translate(0,0)"></path>
<path d="M 1105.68 1239.1 C 1120.86 1239.22 1137.99 1238.87 1153.04 1239.62 C 1153.1 1249.1 1153.1 1258.59 1153.02 1268.07 C 1152.98 1273.64 1153.28 1280.88 1152.99 1286.29 C 1151.29 1318.22 1103.87 1318.66 1105.29 1280.56 C 1105.13 1275.12 1105.46 1271.02 1105.44 1266 C 1105.44 1257.03 1105.52 1248.06 1105.68 1239.1 z" fill="rgb(30,27,28)" transform="translate(0,0)"></path>
<path d="M 1105.68 1239.1 C 1120.86 1239.22 1137.99 1238.87 1153.04 1239.62 C 1153.1 1249.1 1153.1 1258.59 1153.02 1268.07 L 1106.34 1268.02 C 1105.94 1273.02 1106.33 1275.55 1105.29 1280.56 C 1105.13 1275.12 1105.46 1271.02 1105.44 1266 C 1105.44 1257.03 1105.52 1248.06 1105.68 1239.1 z" fill="rgb(58,107,140)" transform="translate(0,0)"></path>
<path d="M 752.941 600.365 C 759.94 596.164 765.146 592.578 773.534 592.228 C 787.959 591.628 802.676 591.94 817.115 591.994 L 888.373 591.922 L 1131.84 591.863 L 1226.49 592.015 C 1242.48 592.019 1259.12 591.711 1275.1 592.491 C 1281.67 592.811 1289.58 596.842 1295.18 600.16 C 1299.47 598.125 1340.25 599.055 1348.31 599.054 C 1351.85 603.159 1354.91 605.561 1358.9 609.249 L 1359.02 659.566 C 1344.74 659.42 1328.14 659.165 1313.92 659.539 C 1314.03 662.746 1314.34 664.18 1313.12 667.18 C 1303.94 669.86 1220.11 667.901 1205.96 667.89 L 892.221 668.01 L 785.161 668.046 C 774.055 668.036 745.334 668.82 735.907 667.56 C 733.846 664.412 734.504 663.795 734.18 659.427 L 693.005 659.23 C 692.998 642.369 693.13 625.312 692.891 608.47 C 697.045 604.464 699.413 602.659 703.724 599.058 C 712.404 599.057 747.558 598.108 752.941 600.365 z" fill="rgb(245,241,235)" transform="translate(0,0)"></path>
<path d="M 1295.18 600.16 C 1299.47 598.125 1340.25 599.055 1348.31 599.054 C 1351.85 603.159 1354.91 605.561 1358.9 609.249 L 1359.02 659.566 C 1344.74 659.42 1328.14 659.165 1313.92 659.539 C 1314.13 634.98 1315.02 618.184 1295.18 600.16 z" fill="rgb(30,27,28)" transform="translate(0,0)"></path>
<path d="M 703.724 599.058 C 712.404 599.057 747.558 598.108 752.941 600.365 C 732.476 619.329 733.641 633.216 734.18 659.427 L 693.005 659.23 C 692.998 642.369 693.13 625.312 692.891 608.47 C 697.045 604.464 699.413 602.659 703.724 599.058 z" fill="rgb(30,27,28)" transform="translate(0,0)"></path>
<path d="M 874.543 470.32 C 878.72 470.114 882.902 469.996 887.085 469.967 L 1086.3 469.759 L 1142.93 469.824 C 1152.33 469.846 1169.23 469.51 1178.1 470.947 C 1190.42 472.824 1201.79 478.652 1210.52 487.554 C 1232.52 509.637 1228.14 537.574 1228.02 567.061 L 1179.25 567.149 L 821.635 567.398 C 821.52 542.843 818.076 512.405 833.873 493.102 C 845.047 479.448 857.311 472.563 874.543 470.32 z" fill="rgb(245,241,235)" transform="translate(0,0)"></path>
<path d="M 539.294 1268.11 L 601.119 1267.99 C 612.7 1286.78 646.385 1330.27 663.226 1342.42 L 663.222 1511.66 C 663.227 1529.54 664.539 1577.41 662.909 1593.16 C 621.764 1593.39 580.618 1593.4 539.472 1593.18 C 541.138 1486.13 539.576 1375.39 539.294 1268.11 z" fill="rgb(30,27,28)" transform="translate(0,0)"></path>
<path d="M 1450.04 1268.02 L 1509.66 1267.82 C 1507.79 1374.17 1509.04 1486.89 1509.99 1593.26 L 1450.5 1593.22 L 1388.97 1593.04 L 1388.95 1344.46 C 1414.59 1317.01 1428.48 1298.86 1450.04 1268.02 z" fill="rgb(30,27,28)" transform="translate(0,0)"></path>
<path d="M 1220.82 897.99 L 1358.71 897.767 L 1358.94 1030 L 1220.82 1030.04 L 1220.82 897.99 z" fill="rgb(30,27,28)" transform="translate(0,0)"></path>
<path d="M 692.991 897.794 C 737.746 897.491 782.503 897.499 827.258 897.818 L 827.326 1030.11 L 692.976 1030.28 L 692.991 897.794 z" fill="rgb(30,27,28)" transform="translate(0,0)"></path>
<path d="M 644.569 897.5 L 663.671 897.358 L 663.32 1030.04 L 561.5 1029.99 L 545.177 1029.96 C 544.177 1011.86 542.197 995.578 541.983 977.111 C 541.661 949.359 544.407 925.16 547.722 897.683 L 644.569 897.5 z" fill="rgb(30,27,28)" transform="translate(0,0)"></path>
<path d="M 1389.72 897.886 L 1501.82 897.915 C 1510.47 939.892 1509.85 987.409 1507.64 1029.86 C 1470.77 1030.98 1426.45 1029.97 1389.09 1029.99 C 1388.94 985.955 1389.16 941.919 1389.72 897.886 z" fill="rgb(30,27,28)" transform="translate(0,0)"></path>
<path d="M 549.511 1060.07 L 663.838 1059.78 L 663.426 1239.49 L 618.213 1239.76 C 611.831 1230.32 605.384 1217.3 600.05 1207.14 C 574.891 1159.21 561.208 1112.56 549.511 1060.07 z" fill="rgb(30,27,28)" transform="translate(0,0)"></path>
<path d="M 1389.08 1059.91 L 1501.98 1059.64 C 1495.29 1103.05 1476.24 1156.04 1456.91 1195.16 C 1449.47 1209.99 1441.1 1224.66 1433.02 1239.18 L 1389.11 1239.14 L 1389.08 1059.91 z" fill="rgb(30,27,28)" transform="translate(0,0)"></path>
<path d="M 627.986 688.102 C 634.366 689.452 655.888 688.808 663.369 688.733 L 663.718 868.131 L 590.5 868.154 L 553.525 868.035 C 571.733 789.727 588.359 756.32 627.986 688.102 z" fill="rgb(30,27,28)" transform="translate(0,0)"></path>
<path d="M 1389.08 688.921 L 1421.58 688.657 C 1461.36 747.2 1480.93 799.998 1496.58 867.963 L 1389.06 868.014 L 1389.08 688.921 z" fill="rgb(30,27,28)" transform="translate(0,0)"></path>
<path d="M 1279.42 1442.59 C 1280 1438.88 1279.85 1431.21 1281.54 1430.05 C 1290.94 1423.61 1301.71 1416.67 1311.03 1410.27 C 1327.67 1398.76 1343.63 1386.3 1358.83 1372.95 L 1359.05 1592.82 L 1314.27 1592.81 C 1314.39 1585.21 1315.23 1560.6 1314.07 1554.72 C 1320.26 1522.08 1297.54 1498.42 1265.02 1498.29 C 1264.94 1487.67 1264.88 1477.61 1265.25 1466.98 C 1273.8 1459.06 1276.15 1453.19 1279.42 1442.59 z" fill="rgb(30,27,28)" transform="translate(0,0)"></path>
<path d="M 608.048 338.41 C 626.047 336.669 645.233 339.826 663.059 342.274 L 663.13 445.025 L 595.5 444.975 L 539.588 444.934 L 539.224 357.011 C 562.075 344.807 582.583 340.591 608.048 338.41 z" fill="rgb(30,27,28)" transform="translate(0,0)"></path>
<path d="M 1418.53 338.391 C 1446.29 333.362 1484.36 344.322 1510 354.906 L 1509.98 444.993 L 1482.5 444.991 L 1388.98 445.13 L 1388.79 342.294 C 1398.23 341.266 1408.89 339.568 1418.53 338.391 z" fill="rgb(30,27,28)" transform="translate(0,0)"></path>
<path d="M 583.107 473.5 L 663.28 473.156 L 663.168 570.884 L 619.5 570.954 L 539.552 570.997 L 539.518 473.732 L 583.107 473.5 z" fill="rgb(30,27,28)" transform="translate(0,0)"></path>
<path d="M 692.935 1372.84 C 713.296 1391.83 746.932 1415.37 770.216 1430.53 C 766.68 1446.81 773.645 1458.32 785.311 1468.66 C 785.972 1478.72 785.859 1488.43 785.838 1498.49 C 782.327 1498.47 778.329 1498.26 774.915 1498.75 C 744.912 1500.69 728.57 1522.66 731.279 1551.84 C 731.406 1553.15 731.572 1554.46 731.776 1555.76 C 730.632 1561.51 731.123 1585.54 731.158 1592.51 L 692.856 1592.66 L 692.935 1372.84 z" fill="rgb(30,27,28)" transform="translate(0,0)"></path>
<path d="M 1465.59 473.496 L 1509.89 473.414 C 1509.7 505.919 1509.7 538.425 1509.89 570.93 L 1435.5 570.937 L 1388.64 570.867 L 1388.88 473.859 L 1465.59 473.496 z" fill="rgb(30,27,28)" transform="translate(0,0)"></path>
<path d="M 1573.21 473.491 L 1607.64 473.311 C 1610.32 497.074 1614.32 517.957 1608.73 541.989 C 1606.52 551.505 1603.88 560.666 1601.55 570.091 L 1601.34 570.975 L 1579.5 571.011 L 1540.6 570.962 C 1540.86 538.58 1540.94 506.197 1540.83 473.814 C 1551.62 473.651 1562.41 473.544 1573.21 473.491 z" fill="rgb(30,27,28)" transform="translate(0,0)"></path>
<path d="M 444.937 473.831 L 509.058 473.635 C 509.018 490.227 509.609 549.674 508.756 570.316 C 508.743 570.624 507.433 570.752 507.081 570.791 L 450.578 570.869 C 440.045 534.137 437.169 511.938 444.937 473.831 z" fill="rgb(30,27,28)" transform="translate(0,0)"></path>
<path d="M 539.262 599.104 L 663.311 599.132 C 651.413 609.352 642.36 620.516 632.319 632.454 C 625.159 641.41 618.225 650.544 611.522 659.848 C 587.419 659.633 563.315 659.612 539.211 659.786 L 539.262 599.104 z" fill="rgb(30,27,28)" transform="translate(0,0)"></path>
<path d="M 1388.81 599.229 L 1509.7 599.051 C 1509.44 619.237 1509.45 639.425 1509.73 659.611 C 1505.6 660.22 1489.68 659.945 1484.92 659.904 L 1438.58 659.423 C 1425.11 641.005 1404.74 615.293 1388.81 599.229 z" fill="rgb(30,27,28)" transform="translate(0,0)"></path>
<path d="M 1262.37 473.671 C 1294.39 473.116 1326.93 473.687 1359 473.514 C 1358.96 487.997 1360.77 560.402 1358.32 569.546 C 1331.46 545.38 1293.23 516.184 1261.31 498.605 C 1261.88 490.215 1261.96 482.044 1262.37 473.671 z" fill="rgb(30,27,28)" transform="translate(0,0)"></path>
<path d="M 762.815 473.489 L 789.699 473.296 C 789.947 481.776 790 490.128 790.122 498.604 C 763.387 514.523 732.987 534.133 709.55 554.767 C 703.818 559.51 699.239 564.029 693.222 568.904 L 693.375 473.9 L 762.815 473.489 z" fill="rgb(30,27,28)" transform="translate(0,0)"></path>
<path d="M 1357.69 352.974 C 1359.49 354.953 1358.6 436.222 1358.64 444.941 L 1273.3 444.84 C 1273.09 444.648 1272.17 443.856 1272.31 443.463 C 1287.75 400.391 1317.69 374.756 1356.77 353.481 L 1357.69 352.974 z" fill="rgb(30,27,28)" transform="translate(0,0)"></path>
<path d="M 693.318 353.555 C 734.86 372.648 760.51 400.554 778.369 441.801 L 779.795 445.103 C 750.932 445.389 722.068 445.441 693.204 445.259 C 692.871 416.011 692.536 382.68 693.318 353.555 z" fill="rgb(30,27,28)" transform="translate(0,0)"></path>
<path d="M 539.229 689.015 L 592.35 688.943 C 577.317 713.783 566.312 736.383 555.01 763.039 C 549.702 775.962 544.598 789.575 539.523 802.64 C 538.509 765.576 539.134 726.177 539.229 689.015 z" fill="rgb(30,27,28)" transform="translate(0,0)"></path>
<path d="M 1457.27 688.9 L 1509.24 688.618 C 1509.03 724.843 1509.82 762.015 1508.9 798.132 C 1505.22 792.302 1494.03 760.154 1489.49 749.913 C 1479.52 727.388 1469.6 710.163 1457.27 688.9 z" fill="rgb(30,27,28)" transform="translate(0,0)"></path>
<path d="M 1540.08 373.518 L 1541.03 374.014 C 1565.6 386.633 1585.88 420.427 1597.15 445.001 L 1539.98 445.044 C 1540.06 421.375 1539.72 397.089 1540.08 373.518 z" fill="rgb(30,27,28)" transform="translate(0,0)"></path>
<path d="M 507.509 376.682 C 510.179 379.053 508.942 436.538 508.965 444.836 L 455.322 444.831 C 453.172 442.747 457.16 438.452 458.518 435.904 C 471.086 412.335 486.691 393.385 507.509 376.682 z" fill="rgb(30,27,28)" transform="translate(0,0)"></path>
<path d="M 539.775 1239.19 C 538.914 1233.58 539.28 1142.84 539.415 1142.58 C 539.481 1142.57 539.548 1142.56 539.615 1142.56 C 540.303 1143.3 540.592 1144.74 540.782 1145.69 C 552.526 1177.95 566.668 1209.3 583.089 1239.46 L 539.775 1239.19 z" fill="rgb(30,27,28)" transform="translate(0,0)"></path>
<path d="M 539.775 1239.19 C 538.914 1233.58 539.28 1142.84 539.415 1142.58 C 539.481 1142.57 539.548 1142.56 539.615 1142.56 C 540.303 1143.3 540.592 1144.74 540.782 1145.69 C 539.415 1153.95 540.669 1161.23 540.216 1169.01 C 539.094 1188.3 541.921 1221.14 539.775 1239.19 z" fill="rgb(43,50,56)" transform="translate(0,0)"></path>
<path d="M 1508.63 1147.69 C 1509.67 1151.96 1509.11 1168.6 1509.11 1174.13 L 1509.25 1239.2 C 1495.7 1239.26 1482.16 1239.24 1468.61 1239.15 C 1468.5 1236.69 1478.22 1219.06 1480.11 1215.54 C 1492.18 1193.09 1499.43 1170.92 1508.63 1147.69 z" fill="rgb(30,27,28)" transform="translate(0,0)"></path>
<path d="M 1540.86 599.791 C 1556.59 599.567 1572.32 599.537 1588.06 599.701 C 1581.13 609.13 1575.07 617.332 1567.26 626.187 C 1560.19 633.433 1552.11 641.738 1543.56 647.278 L 1540.8 649.05 C 1540.98 632.631 1541 616.211 1540.86 599.791 z" fill="rgb(30,27,28)" transform="translate(0,0)"></path>
<path d="M 468.633 599.456 C 482.053 599.262 495.475 599.183 508.897 599.217 C 508.877 604.631 509.792 643.169 507.651 645.165 C 492.453 633.94 479.201 620.151 469.478 603.906 C 468.105 601.613 466.469 600.928 468.633 599.456 z" fill="rgb(30,27,28)" transform="translate(0,0)"></path>
<path d="M 1262.83 534.416 C 1271.93 538.467 1304.9 562.776 1314.74 569.854 C 1302.21 570.536 1286.43 570.116 1273.65 570.049 C 1270.63 558.875 1266.19 546.34 1262.83 534.416 z" fill="rgb(30,27,28)" transform="translate(0,0)"></path>
<path d="M 788.72 533.835 C 788.964 539.423 780.142 563.439 778.25 570.085 C 765.267 570.076 751.819 570.227 738.867 569.981 C 738.932 568.683 784.107 536.793 788.72 533.835 z" fill="rgb(30,27,28)" transform="translate(0,0)"></path>
<path d="M 637.925 1268.13 C 646.325 1268.13 654.725 1268.07 663.124 1267.96 C 663.297 1278.53 663.293 1289.1 663.113 1299.67 C 658.356 1296.44 642.038 1274 637.925 1268.13 z" fill="rgb(30,27,28)" transform="translate(0,0)"></path>
<path d="M 1389.01 1267.98 L 1412.82 1268.02 L 1400.01 1285.71 C 1396.17 1290.67 1392.73 1295.1 1389.03 1300.21 L 1389.01 1267.98 z" fill="rgb(30,27,28)" transform="translate(0,0)"></path>
<path d="M 662.014 642.866 C 662.417 643.29 663.015 643.856 662.993 644.506 C 662.383 662.167 667.384 660.123 651.098 659.95 C 648.237 657.724 660.019 645.286 662.014 642.866 z" fill="rgb(30,27,28)" transform="translate(0,0)"></path>
<path d="M 1389.07 643.812 C 1393.4 647.295 1398.79 655.132 1402.52 659.855 C 1397.7 659.658 1393.87 659.582 1389.04 659.693 L 1389.07 643.812 z" fill="rgb(30,27,28)" transform="translate(0,0)"></path>
<path d="M 1207.5 473.214 C 1211.28 473.317 1219.36 472.156 1218.62 476.364 C 1214.05 476.832 1211.17 475.391 1207.5 473.214 z" fill="rgb(30,27,28)" transform="translate(0,0)"></path>
<path d="M 833.233 473.553 C 835.699 473.411 843.334 471.479 840.756 475.372 C 838.932 475.625 829.43 477.936 833.233 473.553 z" fill="rgb(30,27,28)" transform="translate(0,0)"></path>
<metadata><recraft-signature>{"signed_by": "recraft", "signature_b64": "cqfwIR2Q9XtcSeGh8VU65DNzkih4ALgpjJKDv/x5Hq0JrnzKn8tmNy9m5n/3WaeYqRH7bPYvLYDYq4wDKh/ODg==", "signing_algo": "Ed25519", "generation_timestamp": 1774143545, "identifier": "87d1ab20-c061-4580-9c7c-c942a37ff6b0"}</recraft-signature></metadata></svg>