<svg xmlns="http://www.w3.org/2000/svg" height="1024" preserveAspectRatio="none" style="display: block;" version="1.1" viewBox="0 0 2048 2048" width="1024">
<path d="M 1028.37 731.908 C 1053.21 710.496 1078.81 682.336 1102.75 658.53 C 1130.68 627.535 1163.34 603.003 1207.48 618.167 C 1251.28 633.211 1272 678.912 1257.69 722.121 L 1259.32 721.543 C 1264.61 719.627 1270.17 716.652 1275.63 714.584 C 1327.77 694.838 1379.55 741.266 1370.55 795.103 C 1368.6 806.786 1360.12 816.521 1358.39 824.392 C 1382.56 819.161 1407.54 819.854 1428.97 833.532 C 1447.16 845.135 1459.97 863.522 1464.55 884.61 C 1469.41 907.861 1464.62 925.614 1453.42 945.93 C 1456.58 946.714 1466.59 942.465 1470.41 941.364 C 1515.82 928.268 1562.27 966.415 1559.96 1013.31 C 1558.67 1039.63 1549.97 1050.16 1533.04 1068.75 C 1550.34 1067.76 1562.44 1068.07 1578.68 1074.88 C 1629.91 1096.38 1642.94 1163.37 1605.09 1203.66 C 1571.88 1238.99 1534.67 1271.9 1502.36 1307.51 C 1537.88 1345.74 1583.33 1384.26 1615.83 1424.82 C 1629.45 1441.83 1630.37 1486.64 1617.86 1504.73 C 1600.51 1530.41 1571.1 1555.81 1548.38 1577.83 C 1535.17 1592.35 1520.12 1606.43 1506.16 1620.31 L 1442.78 1683.68 L 1402.05 1724.16 C 1396.31 1729.93 1385.84 1741.09 1379.97 1746.15 C 1356.33 1768.12 1333.82 1795.35 1308.96 1814.45 C 1286.79 1831.47 1243.3 1832.02 1220.62 1816.42 C 1202.55 1803.98 1181.91 1781.27 1165.97 1765.3 L 1080.07 1679.17 C 1066.09 1665.04 1045.49 1642.86 1031.04 1629.85 C 1009.39 1649.52 990.784 1669.43 970.299 1690.08 L 895.578 1764.26 C 886.195 1773.57 875.564 1783.61 866.559 1793.19 C 844.06 1817.14 824.144 1830.84 789.976 1829.31 C 742.458 1827.19 715.26 1785.35 682.887 1755.32 C 664.87 1738.93 643.98 1716.74 626.125 1699.12 L 507.076 1580.94 C 476.128 1548.27 434.139 1523.04 432.05 1474.46 C 430.118 1429.51 456.759 1412.36 485.003 1383.48 C 506.609 1361.38 531.252 1339.91 552.014 1317.38 L 476.772 1242.4 C 457.983 1223.41 436.322 1205.74 428.902 1179.33 C 414.584 1128.37 448.999 1079.08 501.786 1075.09 C 505.817 1074.79 519.66 1075.27 522.032 1074.15 C 521.34 1072.5 509.887 1057.71 507.39 1053.79 C 497.546 1038.36 495.154 1018.77 499.122 1001.1 C 503.286 982.764 514.668 966.885 530.694 957.054 C 546.937 946.69 566.789 943.634 585.397 948.633 C 591.032 950.119 598.99 953.548 603.309 954.476 L 604.713 954.764 C 604.344 954.143 603.982 953.518 603.627 952.888 C 592.204 932.527 587.838 907.818 594.228 885.116 C 600.3 864.024 614.623 846.274 633.956 835.884 C 657.5 823.122 679.224 824.323 703.905 831.508 C 697.598 821.799 694.264 816.405 691.725 804.963 C 687.265 785.682 690.713 765.419 701.298 748.697 C 711.853 732.545 728.401 721.256 747.291 717.322 C 766.244 713.432 784.005 717.386 800.026 727.915 C 800.957 725.848 796.367 704.123 795.991 699.058 C 792.833 656.46 829.768 616.917 872.515 614.884 C 889.336 614.222 905.977 618.546 920.349 627.312 C 931.031 633.841 949.268 653.747 959.033 663.291 C 982.128 685.866 1004.64 710.017 1028.37 731.908 z" fill="rgb(245,241,235)" transform="translate(0,0)"></path>
<path d="M 523.34 1071.54 C 580.092 1126.44 634.434 1184.52 691.404 1239.27 C 706.136 1252.95 710.536 1256.89 712.906 1277.3 C 719.257 1332.02 708.599 1379.97 669.708 1419.69 C 616.725 1473.79 561.263 1525.44 508.032 1578.8 L 623.114 1693.2 C 636.591 1706.41 650.001 1719.69 663.343 1733.04 C 668.343 1738.01 678.852 1747.86 683.168 1752.94 L 871.014 1566.7 C 873.479 1569.14 876.001 1571.53 878.578 1573.85 C 928.204 1617.98 996.775 1628.68 1061.05 1623.69 C 1107.14 1620.1 1162.1 1601.39 1193.66 1566.06 C 1203.67 1574.11 1226.22 1597.28 1236.61 1607.32 L 1332.68 1700.92 C 1346.37 1714.48 1363.31 1733.19 1377.09 1745.57 L 1379.22 1744.44 L 1379.97 1746.15 C 1356.33 1768.12 1333.82 1795.35 1308.96 1814.45 C 1286.79 1831.47 1243.3 1832.02 1220.62 1816.42 C 1202.55 1803.98 1181.91 1781.27 1165.97 1765.3 L 1080.07 1679.17 C 1066.09 1665.04 1045.49 1642.86 1031.04 1629.85 C 1009.39 1649.52 990.784 1669.43 970.299 1690.08 L 895.578 1764.26 C 886.195 1773.57 875.564 1783.61 866.559 1793.19 C 844.06 1817.14 824.144 1830.84 789.976 1829.31 C 742.458 1827.19 715.26 1785.35 682.887 1755.32 C 664.87 1738.93 643.98 1716.74 626.125 1699.12 L 507.076 1580.94 C 476.128 1548.27 434.139 1523.04 432.05 1474.46 C 430.118 1429.51 456.759 1412.36 485.003 1383.48 C 506.609 1361.38 531.252 1339.91 552.014 1317.38 L 476.772 1242.4 C 457.983 1223.41 436.322 1205.74 428.902 1179.33 C 414.584 1128.37 448.999 1079.08 501.786 1075.09 C 505.817 1074.79 519.66 1075.27 522.032 1074.15 L 523.34 1071.54 z" fill="rgb(45,134,89)" transform="translate(0,0)"></path>
<path d="M 604.713 954.764 C 604.344 954.143 603.982 953.518 603.627 952.888 C 592.204 932.527 587.838 907.818 594.228 885.116 C 600.3 864.024 614.623 846.274 633.956 835.884 C 657.5 823.122 679.224 824.323 703.905 831.508 L 706.562 831.484 C 855.359 983.469 1009.21 1132.34 1158.56 1283.96 C 1168.47 1294.02 1172.31 1328.58 1171.83 1342.76 C 1170.27 1379.99 1153.95 1415.06 1126.48 1440.24 C 1096.85 1467.56 1060.41 1479.65 1020.32 1477.84 C 981.302 1476.38 944.493 1459.37 918.099 1430.6 C 899.72 1410.4 884.777 1379.93 882.825 1352.67 C 880.043 1313.85 882.717 1272.78 881.99 1233.8 C 874.764 1224.17 858.407 1208.75 849.293 1199.74 L 787.581 1138.95 L 664.43 1016.76 C 646.862 999.331 622.547 971.745 603.595 957.553 L 605.533 955.916 L 604.713 954.764 z" fill="rgb(45,134,89)" transform="translate(0,0)"></path>
<path d="M 1028.37 731.908 C 1053.21 710.496 1078.81 682.336 1102.75 658.53 C 1130.68 627.535 1163.34 603.003 1207.48 618.167 C 1251.28 633.211 1272 678.912 1257.69 722.121 C 1257.46 723.449 1257.22 724.34 1257.22 725.675 C 1235.29 748.57 1212.47 770.052 1190.1 792.472 L 1027.1 955.081 C 1000.49 929.232 974.132 903.114 948.044 876.732 L 871.389 800.662 L 825.172 754.095 C 818.922 747.854 805.113 733.498 798.526 729.214 L 800.026 727.915 C 800.957 725.848 796.367 704.123 795.991 699.058 C 792.833 656.46 829.768 616.917 872.515 614.884 C 889.336 614.222 905.977 618.546 920.349 627.312 C 931.031 633.841 949.268 653.747 959.033 663.291 C 982.128 685.866 1004.64 710.017 1028.37 731.908 z" fill="rgb(45,134,89)" transform="translate(0,0)"></path>
<path d="M 1530.85 1066.89 L 1533.04 1068.75 C 1550.34 1067.76 1562.44 1068.07 1578.68 1074.88 C 1629.91 1096.38 1642.94 1163.37 1605.09 1203.66 C 1571.88 1238.99 1534.67 1271.9 1502.36 1307.51 C 1537.88 1345.74 1583.33 1384.26 1615.83 1424.82 C 1629.45 1441.83 1630.37 1486.64 1617.86 1504.73 C 1600.51 1530.41 1571.1 1555.81 1548.38 1577.83 L 1546.78 1575.83 C 1541.89 1568.88 1516.81 1546.35 1508.8 1538.24 C 1484.49 1513.15 1459.92 1488.31 1435.08 1463.74 C 1416.14 1444.84 1397.19 1425.99 1378.55 1406.83 C 1350.07 1377.55 1338.53 1334.18 1339.59 1294.28 C 1339.84 1284.71 1343.19 1253.99 1349.1 1247.19 C 1365.88 1227.87 1390.67 1204.97 1409.21 1186.95 C 1449.74 1147.57 1489.55 1105.05 1530.85 1066.89 z" fill="rgb(45,134,89)" transform="translate(0,0)"></path>
<path d="M 1358.39 824.392 C 1382.56 819.161 1407.54 819.854 1428.97 833.532 C 1447.16 845.135 1459.97 863.522 1464.55 884.61 C 1469.41 907.861 1464.62 925.614 1453.42 945.93 C 1452.93 947.012 1451.94 948.998 1451.57 950.154 C 1438.82 961.045 1429.42 971.009 1417.43 982.698 C 1397.97 1001.52 1378.69 1020.53 1359.58 1039.71 C 1317.32 1082.43 1274.77 1124.86 1231.92 1166.98 C 1211.32 1148.78 1188.76 1123.81 1169.23 1104.04 C 1153.13 1087.75 1137.04 1072.09 1121.33 1055.38 C 1151.09 1028.5 1186.14 990.782 1215.51 961.972 C 1261.47 916.883 1310.87 869.996 1355.28 823.701 L 1358.39 824.392 z" fill="rgb(45,134,89)" transform="translate(0,0)"></path>
<path d="M 1546.78 1575.83 L 1548.38 1577.83 C 1535.17 1592.35 1520.12 1606.43 1506.16 1620.31 L 1442.78 1683.68 L 1402.05 1724.16 C 1396.31 1729.93 1385.84 1741.09 1379.97 1746.15 L 1379.22 1744.44 C 1383.59 1737.74 1424.79 1698.08 1432.65 1690.29 L 1546.78 1575.83 z" fill="rgb(88,169,139)" transform="translate(0,0)"></path>
<path d="M 1453.42 945.93 C 1456.58 946.714 1466.59 942.465 1470.41 941.364 C 1515.82 928.268 1562.27 966.415 1559.96 1013.31 C 1558.67 1039.63 1549.97 1050.16 1533.04 1068.75 L 1530.85 1066.89 C 1539.48 1058.66 1546.42 1050.69 1551.31 1039.69 C 1558.81 1022.52 1559.3 1003.09 1552.66 985.57 C 1546.06 968.536 1532.98 954.811 1516.28 947.399 C 1491.91 936.707 1474.69 941.105 1451.57 950.154 C 1451.94 948.998 1452.93 947.012 1453.42 945.93 z" fill="rgb(88,169,139)" transform="translate(0,0)"></path>
<path d="M 522.032 1074.15 C 521.34 1072.5 509.887 1057.71 507.39 1053.79 C 497.546 1038.36 495.154 1018.77 499.122 1001.1 C 503.286 982.764 514.668 966.885 530.694 957.054 C 546.937 946.69 566.789 943.634 585.397 948.633 C 591.032 950.119 598.99 953.548 603.309 954.476 L 604.713 954.764 L 605.533 955.916 L 603.595 957.553 C 525.308 921.661 465.203 1008.33 523.34 1071.54 L 522.032 1074.15 z" fill="rgb(88,169,139)" transform="translate(0,0)"></path>
<path d="M 703.905 831.508 C 697.598 821.799 694.264 816.405 691.725 804.963 C 687.265 785.682 690.713 765.419 701.298 748.697 C 711.853 732.545 728.401 721.256 747.291 717.322 C 766.244 713.432 784.005 717.386 800.026 727.915 L 798.526 729.214 C 779.932 719.143 762.114 715.09 741.268 721.337 C 723.623 726.767 708.911 739.076 700.452 755.485 C 687.46 780.555 691.079 808.561 706.562 831.484 L 703.905 831.508 z" fill="rgb(88,169,139)" transform="translate(0,0)"></path>
<path d="M 1257.69 722.121 L 1259.32 721.543 C 1264.61 719.627 1270.17 716.652 1275.63 714.584 C 1327.77 694.838 1379.55 741.266 1370.55 795.103 C 1368.6 806.786 1360.12 816.521 1358.39 824.392 L 1355.28 823.701 C 1360.38 814.847 1365.22 807.153 1367.02 796.953 C 1378.62 730.937 1312.13 690.285 1257.22 725.675 C 1257.22 724.34 1257.46 723.449 1257.69 722.121 z" fill="rgb(88,169,139)" transform="translate(0,0)"></path>
<path d="M 832.247 299.43 C 858.104 298.469 891.075 299.445 917.544 299.513 L 1062.84 299.446 L 1164.23 299.423 C 1195.78 299.375 1225.91 298.983 1257.37 302.048 C 1417.39 318.371 1564.48 397.24 1666.63 521.487 C 1736.88 608.397 1780.99 713.484 1793.81 824.5 C 1800.34 882.315 1802.97 936.821 1752.86 976.896 C 1729.94 995.006 1700.77 1003.27 1671.76 999.861 C 1650.91 997.709 1631.15 989.454 1614.96 976.129 C 1590.77 956.38 1576.62 930.266 1573.7 899.149 C 1572.67 885.2 1572.88 871.197 1571.69 857.249 C 1559.58 715.417 1460.62 591.893 1327.57 543.806 C 1292.5 531.132 1251.36 524.267 1214.24 520.224 C 1186.74 518.207 1157.13 518.361 1129.42 518.289 L 1016.78 518.286 L 915.414 518.223 C 890.639 518.219 862.795 517.797 838.162 519.79 C 673.587 533.105 530.061 644.979 490.64 807.03 C 486.005 825.916 483.108 845.186 481.986 864.6 C 479.307 904.947 484.207 933.808 454.353 969.061 C 434.98 991.938 406.26 1006.77 376.129 1008.73 C 346.647 1010.43 317.686 1000.42 295.545 980.879 C 273.395 961.282 257.892 929.135 256.965 899.626 C 246.621 570.336 512.349 315.224 832.247 299.43 z" fill="rgb(45,134,89)" transform="translate(0,0)"></path>
<metadata><recraft-signature>{"signed_by": "recraft", "signature_b64": "kFZKOCgCFfxIplGTAwzMEdQRNen8rYBxw4BMGn2ZsW4qxW0EMXvvCjw2fTD6DHES7I1gPMF5gWm3Cm2hqOgYCw==", "signing_algo": "Ed25519", "generation_timestamp": 1774143378, "identifier": "fe0c5d38-e278-46eb-b5bb-cee10310375a"}</recraft-signature></metadata></svg>