<svg xmlns="http://www.w3.org/2000/svg" height="1024" preserveAspectRatio="none" style="display: block;" version="1.1" viewBox="0 0 2048 2048" width="1024">
<path d="M 1556.28 304.379 C 1577.07 302.109 1599.82 308.786 1617.47 319.538 C 1675.25 354.759 1689.55 439.951 1654.07 495.659 C 1652.55 498.725 1646.22 504.816 1642.36 504.472 C 1625.66 502.985 1603.52 481.575 1589.81 472.141 C 1598.22 460.717 1605.77 449.243 1608.32 434.995 C 1611.05 420.134 1607.67 404.799 1598.94 392.464 C 1586.95 375.837 1566.72 368.648 1549.53 382.264 C 1533.46 395.319 1526.61 417.548 1524.39 437.29 C 1516.9 503.801 1570.06 562.091 1635.21 568.653 C 1676.81 572.843 1717.82 555.868 1738.86 518.459 C 1746.35 505.143 1747.79 492.821 1748.99 477.791 C 1756.61 485.076 1765.56 493.362 1772.35 501.281 C 1789.16 520.627 1797.45 545.943 1795.33 571.485 C 1793.83 591.441 1785.95 610.384 1772.84 625.507 C 1763.35 636.419 1743.51 654.612 1732.36 665.581 L 1633.98 761.619 L 1269.93 1120.46 C 1256.42 1133.98 1255.6 1140.44 1247.21 1156.46 C 1232.14 1184.91 1204.12 1213.09 1175.58 1228.39 C 1147.03 1243.69 1137.17 1253.93 1114.18 1276.9 L 777.571 1611.88 C 737.12 1652.09 697.142 1692.64 656.046 1732.21 C 618.201 1768.65 607.691 1791.32 548.756 1785.83 C 514.25 1780.46 500.162 1763.73 476.556 1740.01 C 525.18 1740.65 559.114 1707.74 568.91 1661.02 C 582.624 1594.5 541.023 1527.03 472.909 1514.52 C 443.875 1509.2 386.222 1513.03 378.352 1551.12 C 373.591 1574.17 400.73 1596.26 422.62 1597.67 C 441.623 1598.89 458.696 1594.28 473.895 1581.76 L 474.974 1580.86 C 483.769 1594.35 502.62 1618.81 507.939 1631.83 C 498.727 1652.84 474.135 1657.57 453.337 1660.44 C 388.687 1669.38 316.606 1637.1 309.764 1565.65 C 307.558 1542.61 310.285 1514.21 324.786 1495.07 C 338.37 1477.15 358.544 1460.04 374.914 1444.23 L 452.151 1368.52 L 738.194 1090.39 C 768.666 1060.91 799.338 1031.64 830.208 1002.58 C 842.853 990.618 859.6 975.753 871.266 963.63 C 876.416 958.278 888.407 938.071 895.91 928.846 C 905.599 916.86 916.5 905.907 928.439 896.161 C 940.867 886.212 948.3 882.29 960.162 870.513 L 1160.98 669.488 L 1391.1 435.461 L 1463.16 361.386 C 1493.82 330.373 1509.81 309.126 1556.28 304.379 z" fill="rgb(45,134,89)" transform="translate(0,0)"></path>
<path d="M 1453.91 470.782 C 1456.58 473.955 1462.72 503.344 1465.77 510.714 C 1499.58 592.376 1568.52 638.065 1656.3 638.92 C 1641.28 656.253 1622.06 674.285 1605.74 690.739 L 1535.58 761.997 L 1368.83 929.498 C 1337.87 960.17 1307.17 991.096 1276.73 1022.27 L 1271.84 1027.15 C 1269.33 1016.02 1266.95 1005.19 1263.31 994.35 C 1234.58 908.918 1166.26 858.842 1078.33 849.394 L 1340.36 585.874 L 1401.95 523.517 C 1419.35 506.142 1437.31 488.892 1453.91 470.782 z" fill="rgb(245,241,235)" transform="translate(0,0)"></path>
<path d="M 851.724 1073.92 C 852.549 1075.42 855.377 1094.31 856.061 1097.38 C 875.976 1186.61 946.898 1247.39 1035.52 1259.85 C 994.232 1297.69 953.463 1339.67 913.486 1379.02 L 646.71 1641.63 L 639.476 1648.62 C 640.359 1575.05 613.667 1512.87 549.578 1472.45 C 524.216 1456.45 500.189 1451.77 471.135 1447.37 C 504.835 1414.78 538.208 1381.86 571.252 1348.6 L 735.454 1186.45 C 773.72 1148.5 813.43 1111.83 851.724 1073.92 z" fill="rgb(245,241,235)" transform="translate(0,0)"></path>
<path d="M 1050.19 916.778 C 1126.74 909.855 1194.42 966.243 1201.44 1042.78 C 1208.46 1119.32 1152.15 1187.07 1075.63 1194.19 C 998.963 1201.31 931.062 1144.89 924.032 1068.21 C 917.003 991.544 973.511 923.712 1050.19 916.778 z" fill="rgb(245,241,235)" transform="translate(0,0)"></path>
<path d="M 1600 867.81 C 1668.92 948.236 1714.13 1021.12 1727.44 1128.4 C 1731.27 1158.04 1732.18 1187.99 1730.15 1217.81 C 1722.96 1312.47 1686.62 1398.07 1636.17 1477.39 C 1628.2 1489.92 1616.85 1509.5 1608.33 1520.84 C 1671.86 1579.12 1730.33 1639.78 1792.4 1698.84 C 1782.1 1712.55 1757.31 1736.99 1744.53 1750 L 1551.69 1559.08 C 1530.46 1571.91 1511.72 1585.75 1489.98 1597.91 C 1379.64 1659.63 1255.36 1686.95 1130.97 1655.47 C 1070.61 1640.19 1019.57 1610.48 969.414 1573.92 C 954.471 1563.03 940.121 1549.05 925.76 1538.46 C 1097.8 1399 1261.08 1380.28 1458 1485.61 C 1476.81 1495.66 1493.85 1503.56 1512.15 1515.32 C 1483.59 1484.53 1447.46 1450.47 1417.08 1420.58 L 1313.79 1317.01 C 1221.04 1360.84 1158.41 1378.98 1056.07 1385.15 C 1093.13 1354 1131.38 1309.18 1168.58 1276.73 C 1177.15 1269.26 1194.31 1259.9 1205.05 1252.14 C 1225.32 1260.73 1265.14 1278.92 1282.84 1290.9 C 1287.6 1294.56 1290.57 1296.6 1295.66 1299.78 L 1284.07 1287.69 C 1266.57 1269.36 1248.7 1251.39 1230.46 1233.79 C 1245.41 1219.29 1256.65 1206.06 1270.61 1191.63 C 1291.98 1210.14 1310.95 1229.45 1330.89 1249.45 C 1323.88 1235.07 1315.85 1219.66 1309.58 1205.14 C 1302.47 1188.67 1296.31 1169.97 1290.4 1152.91 C 1329.16 1114.51 1368.13 1076.31 1407.3 1038.32 C 1422.9 1023.1 1440.99 1003.8 1456.49 989.613 C 1454.56 1007.45 1453.26 1025.28 1450.76 1043.01 C 1440.07 1118.76 1412 1190.63 1374.98 1257.24 C 1370.97 1264.45 1366.88 1272.35 1363.74 1279.98 C 1381.56 1301.92 1408.06 1324.75 1428.55 1345.34 C 1457.61 1374.51 1486.97 1403.37 1516.64 1431.91 C 1534.3 1449.13 1556.36 1471.53 1574.74 1487.61 C 1497.52 1373.02 1454.74 1250.36 1481.05 1110.78 C 1499.23 1014.34 1541.54 944.688 1600 867.81 z" fill="rgb(45,134,89)" transform="translate(0,0)"></path>
<path d="M 306.896 298.866 C 328.003 299.19 360.52 305.352 381.398 309.722 C 469.093 328.077 540.729 359.495 609.164 417.222 C 695.242 489.832 745.215 585.063 767.333 694.761 C 771.37 714.783 776.017 741.277 777.578 761.63 C 816.702 778.765 871.423 838.14 904.359 869.724 C 896.294 876.286 890.974 880.879 883.474 888.126 C 876.913 894.512 869.79 902.832 863.582 909.728 C 845.22 892.261 827.008 874.635 808.95 856.853 C 780.452 828.895 766.939 815.888 749.379 779.356 C 738.761 776.537 723.472 774.261 712.532 772.252 C 697.278 769.455 682.124 766.139 667.095 762.312 C 646.761 757.164 628.323 750.891 608.794 743.293 C 419.733 669.736 311.163 499.032 306.896 298.866 z" fill="rgb(45,134,89)" transform="translate(0,0)"></path>
<path d="M 903.521 313.582 C 915.893 325.405 932.873 354.75 942.762 369.089 C 989.885 437.418 1014.9 509.514 1011.12 593.013 C 1007.58 671.21 975.604 737.059 932.813 801.355 C 927.301 809.762 910.363 834.982 903.71 841.373 C 853.215 776.417 817.574 715.379 800.386 633.902 C 778.749 531.336 811.568 435.555 873.022 353.353 C 882.943 340.083 894.271 327.301 903.521 313.582 z" fill="rgb(45,134,89)" transform="translate(0,0)"></path>
<path d="M 541.633 807.416 C 565.515 803.539 606.811 808.793 630.088 813.374 C 715.894 830.257 782.231 882.294 847.362 937.49 C 839.282 944.601 817.165 955.838 807.14 961.127 C 746.201 993.277 697.536 1013.49 629.247 1020.82 C 626.072 1021.04 622.895 1021.24 619.717 1021.41 C 519.656 1026.91 443.946 1000.56 367.056 937.73 C 350.92 924.545 335.655 910.501 320.125 896.611 C 392.104 852.611 455.082 814.175 541.633 807.416 z" fill="rgb(45,134,89)" transform="translate(0,0)"></path>
<path d="M 1155.96 523.051 C 1163.09 532.068 1184.38 577.823 1190.31 589.706 L 1034.5 744.739 C 1027.84 751.57 1021.86 757.585 1014.81 764.074 C 1021.42 745.436 1025.42 726.573 1032.94 706.779 C 1061.94 630.506 1102.65 582.252 1155.96 523.051 z" fill="rgb(45,134,89)" transform="translate(0,0)"></path>
<path d="M 718.457 1057.34 L 719.913 1057.5 C 719.351 1060.2 704.815 1072.84 701.542 1076.06 L 570.846 1205.49 C 556.256 1196.87 541.593 1188.38 526.859 1180.02 C 516.777 1174.25 506.734 1168.41 496.73 1162.51 C 510.503 1152.43 523.575 1141.28 537.971 1131.17 C 597.8 1089.15 647.124 1068.77 718.457 1057.34 z" fill="rgb(45,134,89)" transform="translate(0,0)"></path>
<metadata><recraft-signature>{"signed_by": "recraft", "signature_b64": "zDdu5PmXrsuqR9zz2kEcZbyzkPHR5y9QhFV0AXP+XfywAy2zdebZKROgpJk5PUI5MPu5ClQpjjlhhHYJnHX6Cw==", "signing_algo": "Ed25519", "generation_timestamp": 1774143440, "identifier": "b753351e-1da7-44ad-be1d-9151e6c96e40"}</recraft-signature></metadata></svg>