<svg xmlns="http://www.w3.org/2000/svg" height="1024" preserveAspectRatio="none" style="display: block;" version="1.1" viewBox="0 0 2048 2048" width="1024">
<path d="M 1017.1 242.413 C 1046.68 238.874 1084.56 253.145 1102.27 277.55 C 1108.39 285.97 1113.42 297.81 1119.74 304.679 C 1138.73 325.316 1160.99 347.97 1183.65 364.565 C 1295.07 446.149 1432.34 462.498 1561.67 417.221 C 1567 415.355 1584.39 409.285 1588.38 406.776 C 1609.35 393.61 1619.3 382.35 1645.04 378.847 C 1670.44 375.39 1695.88 381.573 1716.38 396.819 C 1736.2 411.558 1752.86 436.889 1754.9 461.784 C 1757.11 488.715 1756.41 519.833 1756.32 547.193 L 1756.11 690.302 L 1756.09 822.789 C 1756.02 853.703 1756.02 881.454 1754.34 912.36 C 1743.59 1109.43 1667.3 1292.68 1548.46 1449.21 C 1439.28 1593.01 1295.39 1701.71 1144.12 1798.8 C 1128.68 1808.63 1113.31 1818.55 1097.99 1828.56 C 1073.57 1844.43 1063.84 1852.04 1034.25 1856.01 C 988.427 1857.26 981.398 1846.15 944.828 1823.18 C 864.75 1772.89 784.922 1720.45 711.268 1661.04 C 660.862 1620.8 613.337 1577.09 569.04 1530.22 C 422.169 1371.99 319.41 1168.87 298.341 953.091 C 293.059 898.985 293.289 858.932 293.125 804.67 L 293.165 629.392 C 293.044 591.731 293.141 554.069 293.455 516.408 C 293.781 476.85 289.167 445.637 315.792 413.184 C 342.714 380.368 385.799 367.876 425.735 383.514 C 437.565 386.892 447.793 399.526 457.712 404.301 C 520.79 434.662 604.148 447.014 671.383 440.044 C 770.631 429.126 862.318 381.839 928.757 307.306 C 935.902 299.246 941.502 285.159 949.223 276.629 C 968.338 255.509 989.402 245.023 1017.1 242.413 z" fill="rgb(58,107,140)" transform="translate(0,0)"></path>
<path d="M 1025.79 447.01 C 1033.69 454.211 1046.33 469.207 1055.33 477.973 C 1083.62 505.511 1115.32 529.322 1149.65 548.828 C 1285.21 625.152 1433.11 635.394 1581.34 594.141 L 1581.36 759.708 C 1581.49 859.918 1584.75 942.722 1557.39 1041.16 C 1540.32 1102.57 1524.19 1142.19 1495.97 1198.6 C 1420.54 1349.33 1317.16 1456.97 1185.31 1558.8 C 1134.48 1598.54 1081.05 1634.83 1025.39 1667.44 C 1019.88 1665.27 990.849 1646.15 983.433 1641.44 C 894.519 1584.95 805.643 1517.18 730.75 1442.93 C 667.682 1380.41 613.689 1309.35 570.348 1231.84 C 511.777 1127.68 473.887 1012.5 469.405 892.511 C 468.079 857.017 468.743 820.824 468.773 785.259 L 468.722 593.931 C 637.459 644.64 821.752 615.825 962.304 507.444 C 985.614 489.469 1005.54 468.259 1025.79 447.01 z" fill="rgb(245,241,235)" transform="translate(0,0)"></path>
<path d="M 855.591 692.415 C 890.652 687.341 950.11 699.518 981.616 714.545 C 996.037 721.424 1011.51 729.961 1025.96 737.372 C 1078.98 705.454 1137.1 687.004 1199.63 692.776 C 1281.9 701.146 1357.52 741.696 1410.01 805.587 C 1420.29 817.976 1430.25 831.12 1438.61 844.825 C 1521.8 981.22 1438.06 1145.92 1342.1 1250.31 C 1332.88 1260.35 1323.09 1270.21 1313.62 1279.88 C 1284.86 1309.41 1255.11 1337.96 1224.41 1365.46 C 1204.06 1383.37 1180.55 1402.01 1159.5 1419.43 C 1141.81 1434.09 1123.96 1448.55 1105.95 1462.81 C 1095.73 1470.98 1079.11 1485.12 1068.04 1491.03 C 1057.95 1496.36 1046.93 1499.69 1035.57 1500.84 C 1018.24 1502.65 1000.75 1499.72 984.953 1492.36 C 974.164 1487.31 965.488 1479.53 956.289 1472.07 C 934.175 1454.13 911.228 1437.11 889.265 1419.01 C 835.544 1375.55 784.612 1328.76 736.771 1278.9 C 719.37 1260.7 699.209 1241.45 683.636 1221.97 C 585.461 1099.23 526.272 940.778 639.831 805.544 C 693.719 740.486 771.432 699.739 855.591 692.415 z" fill="rgb(58,107,140)" transform="translate(0,0)"></path>
<path d="M 1025.66 994.634 C 1041.91 959.925 1050.87 944.129 1077.8 915.63 C 1134.56 855.569 1209.19 845.983 1270.43 905.583 C 1289.58 924.215 1299.64 952.823 1298.42 979.871 C 1295.11 1053.67 1224.67 1123.51 1174.81 1171.48 L 1079.94 1257.46 C 1062.48 1273.31 1042.08 1290.58 1025.57 1306.98 C 1018.18 1299.33 1008.33 1291.23 1000.38 1283.86 C 979.508 1264.29 958.336 1245.04 936.869 1226.12 C 870.738 1167.93 762.605 1078.89 753.237 984.999 C 746.62 918.671 806.437 869.218 869.718 865.442 C 928.294 866.535 973.396 908.22 1004.79 954.542 C 1012.82 966.39 1019.47 981.622 1025.66 994.634 z" fill="rgb(245,241,235)" transform="translate(0,0)"></path>
<metadata><recraft-signature>{"signed_by": "recraft", "signature_b64": "oY62ZpUv2LGkESxwe+YadQym3I6tOf18h+NjrE7lwMACqWl25QakzLab9Y56KuirKA4iPTLmYJzH4OqGn1KPBw==", "signing_algo": "Ed25519", "generation_timestamp": 1774143597, "identifier": "3544a331-fe5f-4160-8d97-39e22f4c3850"}</recraft-signature></metadata></svg>