<svg xmlns="http://www.w3.org/2000/svg" height="1024" preserveAspectRatio="none" style="display: block;" version="1.1" viewBox="0 0 2048 2048" width="1024">
<path d="M 1620.92 391.625 C 1644.28 380.041 1656.7 380.08 1682.62 380.329 C 1689.34 411.651 1698.35 445.017 1706.48 476.125 C 1725.89 549.382 1746.37 622.355 1767.89 695.019 L 1792.41 778.513 C 1798.5 799.495 1808.22 830.815 1809.72 851.981 C 1815.2 929.412 1806.62 1018.12 1787.54 1093.25 C 1775.84 1139.32 1758.66 1203.87 1732.19 1242.29 C 1708.45 1276.72 1679.11 1320.27 1648.81 1348.58 C 1625.3 1370.53 1594.4 1393.41 1569.04 1413.36 C 1508.29 1460.65 1452.55 1511.75 1416.03 1580.7 C 1395.52 1619.44 1381.87 1662.82 1391.65 1706.93 C 1408 1780.71 1469.03 1834.87 1541.11 1851.35 C 1545.18 1851.88 1547.99 1852.93 1551.85 1853.65 C 1543.24 1854.22 1534.6 1854.29 1525.98 1853.85 C 1510.17 1854.63 1488.36 1854 1471.95 1854.01 L 1364.53 1854.06 L 1280.48 1854.05 C 1262.11 1854.05 1238.65 1854.91 1220.78 1852.83 C 1074.89 1835.83 1047.12 1638.49 1057 1522.32 C 1067.37 1400.37 1125.97 1289.34 1213.94 1206.72 C 1235.8 1186.18 1258.39 1169.68 1281.25 1150.91 C 1298.3 1141.4 1322.1 1123.46 1340.05 1112.3 L 1482.27 1025.81 C 1498.43 992.339 1514.29 963.326 1536.34 933.075 C 1584.95 866.363 1665.49 800.364 1746.3 859.1 C 1673.74 917.55 1623.53 1037.04 1588.26 1122.18 C 1514.34 1171.14 1459.55 1225.34 1431.6 1312.05 L 1433.56 1315.46 C 1459.15 1249.17 1546.33 1170.22 1607.96 1136.12 C 1614.65 1118.58 1630.19 1086.86 1638.98 1069.63 C 1670.09 1008.63 1710.91 920.424 1760.3 873.518 L 1766.46 867.964 C 1747.17 815.976 1704.3 789.338 1649.46 805.331 C 1648.06 789.29 1643.49 770.272 1642.52 754.664 C 1636.87 664.768 1553.54 497.125 1599.32 411.619 C 1606.59 401.965 1611.03 398.791 1620.92 391.625 z" fill="rgb(32,65,132)" transform="translate(0,0)"></path>
<path d="M 1433.56 1315.46 C 1432.39 1318.42 1429.13 1327.72 1427.48 1329.76 L 1426.71 1329.49 L 1426.72 1329.48 C 1427.75 1324.25 1430.24 1317.57 1431.6 1312.05 L 1433.56 1315.46 z" fill="rgb(165,176,206)" transform="translate(0,0)"></path>
<path d="M 1541.11 1851.35 C 1545.18 1851.88 1547.99 1852.93 1551.85 1853.65 C 1543.24 1854.22 1534.6 1854.29 1525.98 1853.85 C 1532.58 1853.16 1536.96 1854.83 1541.11 1851.35 z" fill="rgb(79,92,133)" transform="translate(0,0)"></path>
<path d="M 365.595 380.491 C 393.635 380.418 401.537 379.404 427.215 391.33 C 514.422 461.068 415.442 649.485 409.201 738.431 C 407.836 757.88 403.671 785.646 400.646 805.446 C 383.447 801.141 368.401 799.53 350.83 803.328 C 319.448 810.11 293.279 833.479 285.145 864.83 C 284.739 866.393 284.835 867.439 285.086 868.99 L 286.152 870.255 C 326.54 904.326 389.47 1035.88 414.588 1086.14 C 419.691 1096.36 434.739 1126.15 439.566 1137.27 C 452.377 1141.9 472.091 1156.77 483.531 1165.27 C 530.666 1200.31 585.009 1255.74 610.264 1309.79 C 611.866 1313.25 613.414 1316.73 614.905 1320.23 L 616.489 1319.05 C 592.385 1235.44 533.987 1167.94 459.718 1124.06 C 451.301 1106.32 444.093 1086.82 435.906 1068.79 C 408.245 1007.86 380.211 942.318 335.265 891.865 C 326.324 881.828 313.919 868.254 302.448 861.369 C 305.885 854.369 331.516 844.03 339.303 841.195 C 367.087 831.078 393.646 836.036 419.808 848.847 C 485.626 881.078 535.941 958.806 564.751 1024.84 C 631.997 1069.46 701.969 1108.73 768.057 1154.71 C 797.266 1175.89 822.464 1195.4 848.346 1221.29 C 918.898 1291.88 968.691 1387.6 985.148 1486.48 C 1000.45 1578.43 988.813 1707.9 935.464 1787.09 C 912.982 1820.46 871.364 1846.38 831.801 1852.2 C 816.738 1854.42 799.377 1854.13 783.852 1854.13 L 726.745 1854.1 L 513.179 1854.01 L 508.208 1851.23 C 532.703 1843.49 551.188 1838.21 572.929 1823.65 C 649.734 1772.23 681.349 1691.61 644.362 1604.87 C 606.524 1516.12 540.104 1459.15 465.223 1402.12 C 443.055 1385.23 420.38 1367.9 399.796 1349.12 C 367.572 1318.46 334.746 1271.17 309.472 1234.49 C 288.065 1203.42 271.156 1132.29 261.732 1093.69 C 245.065 1025.44 234.483 929.823 239.427 859.651 C 242.496 816.103 264.538 748.804 276.529 705.804 C 290.725 653.238 305.448 600.816 320.695 548.546 C 335.792 495.815 353.717 434.036 365.595 380.491 z" fill="rgb(32,65,132)" transform="translate(0,0)"></path>
<path d="M 616.489 1319.05 C 618.585 1323.7 619.239 1327.63 620.486 1332.51 C 618.271 1328 616.654 1324.99 614.905 1320.23 L 616.489 1319.05 z" fill="rgb(165,176,206)" transform="translate(0,0)"></path>
<path d="M 708.87 662.28 C 756.595 645.993 846.272 649.437 893.708 666.9 C 962.889 692.369 996.204 729.918 1026.98 793.673 C 1049.14 745.299 1070.52 714.232 1117.87 685.589 C 1180.73 647.556 1268.81 644.293 1339.21 662.869 C 1321.19 685.959 1307.46 710.082 1302.69 739.455 C 1300.83 750.938 1300.32 762.411 1297.98 773.895 C 1287.84 825.24 1257.71 870.448 1214.22 899.562 C 1166.55 930.802 1123.59 933.17 1069.9 921.786 C 1027.55 1057.11 1040.96 1227.01 1085.94 1360.05 L 963.745 1359.81 C 969.263 1337.38 976.144 1315.88 981.346 1293.26 C 1004.55 1192.31 1013.25 1091.42 994.854 989.013 C 990.401 964.224 985.669 947.021 979.347 923.196 C 962.71 928.517 947.555 930.236 930.295 929.988 C 846.477 928.784 780.942 872.766 757.079 793.771 C 751.363 774.847 750.733 763.556 747.066 744.987 C 741.348 716.032 729.549 683.925 708.87 662.28 z" fill="rgb(45,134,89)" transform="translate(0,0)"></path>
<path d="M 805.792 744.78 C 834.058 750.315 861.569 759.173 887.755 771.169 C 955.848 802.916 992.035 841.745 1017.43 911.861 C 1020.51 910.223 1030.46 905.729 1033.91 905.355 C 1038.84 897.354 1044.26 881.3 1050.98 870.312 C 1092.48 802.388 1155.56 767.938 1230.02 748.965 L 1231.79 750.189 C 1158.68 783.431 1102.45 834.297 1073.52 910.969 C 1072.2 914.534 1070.99 918.142 1069.9 921.786 C 1027.55 1057.11 1040.96 1227.01 1085.94 1360.05 L 963.745 1359.81 C 969.263 1337.38 976.144 1315.88 981.346 1293.26 C 1004.55 1192.31 1013.25 1091.42 994.854 989.013 C 990.401 964.224 985.669 947.021 979.347 923.196 C 978.264 918.29 974.619 907.951 972.7 902.971 C 952.656 850.979 916.429 806.807 869.365 776.974 C 849.738 764.681 826.97 754.234 805.792 744.78 z" fill="rgb(32,65,132)" transform="translate(0,0)"></path>
<path d="M 1017.43 911.861 C 1020.51 910.223 1030.46 905.729 1033.91 905.355 C 1032.07 911.868 1026.78 929.741 1024.5 935.598 L 1024.2 936.395 C 1022.03 928.366 1019.75 919.825 1017.43 911.861 z" fill="rgb(245,241,235)" transform="translate(0,0)"></path>
<path d="M 467.53 422.717 C 486.222 403.102 502.492 395.468 529.724 394.191 C 564.05 392.244 594.537 412.709 599.176 447.992 C 599.636 451.49 596.988 463.762 596.172 467.379 C 582.749 526.854 567.088 585.709 552.601 644.912 C 540.301 696.681 527.667 748.37 514.699 799.976 C 510.358 817.193 504.448 845.877 499.103 861.831 C 469.718 834.714 454.02 824.541 416.054 810.262 C 427.814 774.828 436.705 739.549 447.002 703.717 C 471.194 619.538 509.522 506.765 467.53 422.717 z" fill="rgb(45,134,89)" transform="translate(0,0)"></path>
<path d="M 1549.74 861.708 C 1543.55 842.397 1536.8 811.253 1531.95 791.178 L 1501.39 665.166 L 1473.26 548.334 C 1468.68 530.043 1464.29 511.707 1460.07 493.329 C 1457.97 484.265 1454.16 468.981 1453.25 459.92 L 1453.07 457.937 C 1451.73 444.518 1460.9 419.747 1471.18 410.659 C 1485.23 398.246 1505.65 393.591 1524 394.037 C 1549.89 394.667 1563.67 405.455 1580.57 423.606 C 1543.52 506.217 1572.58 595.702 1594.94 677.259 L 1631.48 809.248 C 1602.89 822.12 1571.47 838.65 1549.74 861.708 z" fill="rgb(45,134,89)" transform="translate(0,0)"></path>
<path d="M 513.044 876.355 C 517.525 861.945 521.705 847.299 525.635 832.725 C 538.058 786.649 551.713 740.368 561.046 693.541 C 565.757 669.924 570.116 646.238 574.123 622.491 C 578.108 597.467 575.934 569.923 601.705 556.881 C 614.061 550.627 625.655 549.824 638.741 554.101 C 650.074 557.839 659.428 565.977 664.698 576.684 C 674.943 597.392 663.91 623.731 657.628 644.584 C 651.978 663.142 646.479 681.746 641.132 700.393 C 623.963 759.898 607.833 819.698 592.748 879.766 C 586.062 905.738 577.586 932.653 572.368 958.717 C 556.991 932.229 534.703 897.512 513.044 876.355 z" fill="rgb(45,134,89)" transform="translate(0,0)"></path>
<path d="M 1476.66 957.074 C 1451.19 842.161 1416.97 728.686 1382.35 616.283 C 1374.05 589.323 1383.01 561.425 1412.22 553.392 C 1424.45 549.984 1437.56 551.845 1448.36 558.524 C 1463.16 567.743 1467.09 578.836 1469.88 595.095 C 1472.04 607.688 1474.07 620.384 1476.3 632.967 C 1481.16 660.423 1486.6 687.773 1492.62 714.998 C 1499.73 747.339 1507.9 779.439 1517.1 811.246 C 1523.08 831.896 1530.92 854.81 1535.84 875.4 C 1534.91 878.36 1520.15 894.374 1516.76 898.729 C 1508.25 909.694 1500.24 921.033 1492.74 932.713 C 1489.99 936.975 1479.55 953.983 1476.66 957.074 z" fill="rgb(45,134,89)" transform="translate(0,0)"></path>
<path d="M 607.053 1016.79 C 607.837 986.417 601.373 955.38 601.166 925.223 C 601.129 919.875 606.877 901.108 608.673 894.811 C 613.56 877.944 618.321 861.039 622.953 844.1 L 637.976 786.261 C 645.725 755.998 648.966 723.123 692.447 738.822 C 704.407 743.141 712.395 760.641 710.554 772.792 C 707.174 795.088 702.136 817.396 697.537 839.527 C 692.485 864.105 687.097 888.614 681.373 913.045 C 678.766 924.492 675.593 940.625 672.343 951.634 C 684.405 993.437 695.094 1043.42 710.582 1083.79 C 706.322 1081.31 702.385 1078 698.338 1075.15 C 668.864 1054.41 640.135 1031.64 607.053 1016.79 z" fill="rgb(45,134,89)" transform="translate(0,0)"></path>
<path d="M 1339.45 1082.02 C 1353.64 1044.43 1372.46 989.463 1375.71 948.48 C 1376.22 942.049 1368.98 910.445 1367.23 902.36 L 1350.08 824.005 C 1347.18 810.691 1344 797.226 1340.87 783.956 C 1337.15 768.209 1336.19 754.139 1349.97 742.642 C 1357.31 736.492 1366.84 733.589 1376.36 734.6 C 1385.01 735.464 1392.92 739.861 1398.22 746.752 C 1405.38 756.013 1407.16 776.36 1410.5 788.39 L 1435.05 875.494 C 1437.3 883.221 1448.94 919.636 1448.54 925.429 C 1446.51 954.631 1438.77 984.711 1435.47 1014.21 C 1434.44 1018.74 1435.37 1018.04 1430.11 1021.08 C 1409.91 1032.75 1391.1 1045.77 1371.79 1058.65 C 1362.99 1064.52 1347.45 1077.68 1339.45 1082.02 z" fill="rgb(45,134,89)" transform="translate(0,0)"></path>
<path d="M 500.685 1852.77 C 503.255 1852.18 505.597 1851.64 508.208 1851.23 L 513.179 1854.01 C 509.089 1854.08 505.068 1854.05 500.977 1854.24 L 500.685 1852.77 z" fill="rgb(79,92,133)" transform="translate(0,0)"></path>
<metadata><recraft-signature>{"signed_by": "recraft", "signature_b64": "zfjDlZ9VPCdPp1iAp/8vxtbYAu9P2muIJoq/uNksej9dw9yYwExQcMarqByepTjcGCEqgOD1z20DOk26pHVLDA==", "signing_algo": "Ed25519", "generation_timestamp": 1774143395, "identifier": "c730df68-4add-418c-9f07-85e2931305ec"}</recraft-signature></metadata></svg>