<svg xmlns="http://www.w3.org/2000/svg" height="1024" preserveAspectRatio="none" style="display: block;" version="1.1" viewBox="0 0 2048 2048" width="1024">
<path d="M 898.532 1030.99 C 913.162 1014.07 947.017 1022.33 967.912 1021.19 C 984.766 1020.26 1003.65 1020.74 1020.52 1021.34 C 1037.22 1023.17 1046.94 1036.55 1047.21 1052.47 C 1047.23 1053.64 1047.23 1054.81 1047.2 1055.98 C 1049.21 1070.36 1046.98 1094.1 1047.05 1109.33 C 1062.35 1113.85 1081.86 1119.6 1095.89 1127.02 C 1103.13 1129.96 1113.97 1135.91 1121.21 1139.61 C 1130.16 1131.63 1138.11 1123.58 1146.56 1115.1 C 1145.6 1109.95 1144.59 1105.95 1143.26 1100.94 L 1143.22 1100.35 L 1145.49 1100.11 L 1148 1113.49 C 1159.55 1102.71 1173.69 1084.7 1189.41 1084.98 C 1195.07 1085.06 1200.59 1086.72 1205.36 1089.77 C 1214.33 1095.58 1231.13 1113.02 1239.78 1121.3 C 1253.14 1134.1 1266.96 1148 1280 1161.24 C 1287.45 1168.8 1290.09 1175.34 1290.25 1186.05 C 1290.51 1203.19 1269.96 1217.99 1257.59 1230.02 C 1249.54 1237.41 1241.79 1245.11 1234.34 1253.11 C 1245.36 1275.03 1256.07 1297.12 1261.06 1321.41 C 1284.8 1322.48 1310.71 1320.35 1334 1322.7 C 1339.16 1323.22 1346.53 1327.31 1350.2 1331.42 C 1351.67 1333.03 1352.82 1334.91 1353.62 1336.94 C 1361.25 1349.65 1356.28 1399.42 1357.32 1416.57 C 1357.98 1427.44 1359.08 1459.15 1352.59 1467.17 C 1347.24 1474.65 1339.5 1480.14 1330.4 1480.71 C 1309.72 1482.01 1286.52 1480.9 1265.75 1481.02 C 1261.61 1498.71 1258.43 1510.61 1251.11 1527.74 C 1246.92 1537.56 1241.68 1546.82 1237.63 1556.09 L 1252.02 1570.29 C 1265.21 1582.89 1289.45 1601.33 1290.35 1619.95 C 1290.9 1631.47 1285.01 1639.51 1277.27 1647.18 C 1260.93 1663.38 1244.62 1680.04 1228.29 1696.2 C 1217.79 1706.6 1205.67 1721.77 1189.76 1721.37 C 1185.32 1721.26 1180.66 1720.82 1176.68 1718.47 C 1156.92 1705.61 1140.55 1684.48 1121.77 1669.52 L 1113.19 1673.71 C 1110.19 1675.47 1096.98 1682.57 1094.22 1683.29 C 1077.95 1690.37 1064.32 1694.62 1046.98 1698.58 C 1047.09 1717.63 1050.98 1766.28 1038.82 1778.31 C 1020.52 1796.42 948.874 1784.57 923.098 1787.97 C 908.418 1789.91 892.213 1776.48 890.777 1762.19 C 889.211 1754.67 890.005 1726.57 890.112 1718.01 L 889.981 1699.63 C 872.485 1695.25 856.634 1690.58 840.038 1683.34 C 831.479 1679.6 819.836 1671.61 811.639 1668.9 C 793.497 1689.13 749.419 1744.21 721.958 1710.6 C 704.174 1688.83 647.831 1649.31 644.654 1621.31 C 642.804 1605.01 686.148 1569.74 699.358 1555.69 C 684.532 1529.93 676.973 1509.45 670.434 1480.91 C 650.067 1480.95 606.9 1485.55 591.965 1475.01 C 586.848 1471 580.843 1463.21 580.647 1456.42 C 579.593 1419.87 579.445 1382.65 580.122 1346.11 C 580.309 1336.03 592.314 1323.96 602.583 1322.75 C 625.527 1320.03 648.679 1322.68 672.13 1321.3 C 673.474 1314.93 674.35 1311.82 676.45 1305.7 C 679.485 1293.74 687.121 1276.6 693.367 1265.93 C 695.131 1262.28 698.775 1256.18 700.848 1252.47 C 684.606 1233.97 648.838 1208.98 644.772 1186.33 C 643.495 1179.22 646.599 1170.09 651.943 1164.44 C 676.08 1139.17 703.481 1110.92 730.206 1088.66 C 755.187 1067.87 793.724 1124.11 811.912 1138.21 L 813.446 1139.37 C 817.885 1136.64 820.081 1135.49 824.853 1133.38 C 844.932 1121.84 867.596 1115.41 889.768 1109.15 C 890.267 1093.67 889.464 1077.63 889.592 1062.12 C 889.691 1050.19 889.279 1040.44 898.14 1031.51 L 898.532 1030.99 z" fill="rgb(58,107,140)" transform="translate(0,0)"></path>
<path d="M 1247.47 1569.29 L 1252.02 1570.29 C 1265.21 1582.89 1289.45 1601.33 1290.35 1619.95 C 1290.9 1631.47 1285.01 1639.51 1277.27 1647.18 C 1260.93 1663.38 1244.62 1680.04 1228.29 1696.2 C 1217.79 1706.6 1205.67 1721.77 1189.76 1721.37 C 1185.32 1721.26 1180.66 1720.82 1176.68 1718.47 C 1156.92 1705.61 1140.55 1684.48 1121.77 1669.52 L 1113.19 1673.71 L 1113.56 1672.14 C 1117.87 1667.76 1121.34 1666.85 1126.27 1670.24 C 1128.66 1672.56 1130.85 1674.84 1133.47 1676.9 L 1139.95 1682.88 C 1142.23 1685.2 1143.82 1686.95 1146.47 1688.9 C 1149.26 1691.62 1158.73 1701.29 1161.25 1703.21 C 1163.54 1705.48 1165.89 1708.01 1168.47 1709.91 L 1172.97 1713.75 L 1174.22 1714.51 C 1183.12 1721.59 1196.24 1720.26 1205.58 1714.72 C 1207.4 1713.39 1208.49 1712.34 1210.15 1710.85 C 1214.63 1706.79 1219.26 1702.22 1223.48 1697.85 C 1242.5 1678.13 1263.35 1659.3 1281.86 1639.15 L 1283.39 1636.92 C 1303.1 1611.38 1264.05 1585.39 1247.47 1569.29 z" fill="rgb(31,61,85)" transform="translate(0,0)"></path>
<path d="M 1044.78 1697.23 C 1054.42 1695.26 1090.51 1682.92 1094.22 1683.29 C 1077.95 1690.37 1064.32 1694.62 1046.98 1698.58 C 1047.09 1717.63 1050.98 1766.28 1038.82 1778.31 C 1020.52 1796.42 948.874 1784.57 923.098 1787.97 C 908.418 1789.91 892.213 1776.48 890.777 1762.19 C 890.669 1758.54 890.696 1757.07 891.088 1753.46 C 894.249 1769.75 899.246 1783.84 918.389 1785.44 C 946.454 1787.71 978.262 1785.13 1006.04 1786.44 C 1046.99 1788.36 1045.92 1762.4 1045.05 1730.86 C 1044.76 1720.36 1044.87 1707.89 1044.78 1697.23 z" fill="rgb(31,61,85)" transform="translate(0,0)"></path>
<path d="M 1263.99 1478.73 C 1286.5 1479.07 1313.93 1480.67 1336.41 1478.03 C 1341.17 1477.47 1348.32 1468.25 1352.59 1467.17 C 1347.24 1474.65 1339.5 1480.14 1330.4 1480.71 C 1309.72 1482.01 1286.52 1480.9 1265.75 1481.02 C 1261.61 1498.71 1258.43 1510.61 1251.11 1527.74 C 1246.92 1537.56 1241.68 1546.82 1237.63 1556.09 L 1252.02 1570.29 L 1247.47 1569.29 L 1234.75 1556.25 C 1250.38 1527.17 1257.39 1511.14 1263.99 1478.73 z" fill="rgb(31,61,85)" transform="translate(0,0)"></path>
<path d="M 898.532 1030.99 C 913.162 1014.07 947.017 1022.33 967.912 1021.19 C 984.766 1020.26 1003.65 1020.74 1020.52 1021.34 C 1037.22 1023.17 1046.94 1036.55 1047.21 1052.47 C 1047.23 1053.64 1047.23 1054.81 1047.2 1055.98 L 1046.2 1056.02 C 1045.51 1051.74 1045.39 1046.69 1043.96 1042.64 C 1041.29 1035.05 1035.08 1028.15 1027.77 1024.81 C 1023.11 1022.68 927.297 1021.75 915.784 1023.19 C 909.197 1024.02 905.52 1028.78 899.676 1030.71 C 899.303 1030.83 898.913 1030.89 898.532 1030.99 z" fill="rgb(31,61,85)" transform="translate(0,0)"></path>
<path d="M 863.865 1219.18 C 915.149 1190.9 975.786 1184.87 1031.63 1202.52 C 1087.48 1220.16 1133.65 1259.93 1159.38 1312.54 C 1159.97 1313.76 1160.56 1314.99 1161.13 1316.22 C 1189.63 1377.43 1187.56 1448.51 1155.53 1507.96 C 1155.25 1508.49 1154.96 1509.02 1154.68 1509.54 C 1134.46 1546.33 1103.86 1576.36 1066.7 1595.89 C 1064.84 1596.87 1062.96 1597.82 1061.08 1598.74 C 1001.3 1627.93 931.349 1627.66 871.804 1598 C 870.583 1597.39 869.367 1596.77 868.158 1596.14 C 799.88 1560.48 756.043 1490.87 753.385 1413.89 C 750.727 1336.91 789.659 1264.44 855.315 1224.16 C 858.127 1222.44 860.977 1220.78 863.865 1219.18 z" fill="rgb(245,241,235)" transform="translate(0,0)"></path>
<path d="M 829.247 1471.98 C 804.928 1420.74 811.031 1360.24 845.095 1314.89 C 879.159 1269.54 935.563 1246.82 991.55 1255.9 C 1047.54 1264.98 1093.87 1304.37 1111.85 1358.16 C 1119.02 1379.6 1121.34 1402.36 1118.63 1424.81 C 1110.5 1492.27 1058.74 1546.24 991.674 1557.17 C 924.604 1568.1 858.385 1533.37 829.247 1471.98 z" fill="rgb(252,95,56)" transform="translate(0,0)"></path>
<path d="M 829.247 1471.98 C 804.928 1420.74 811.031 1360.24 845.095 1314.89 C 879.159 1269.54 935.563 1246.82 991.55 1255.9 C 1047.54 1264.98 1093.87 1304.37 1111.85 1358.16 L 1110.28 1359.41 C 1091.25 1301.71 1039.46 1261.06 978.884 1256.3 C 971.974 1255.76 965.035 1255.69 958.116 1256.11 C 908.051 1259.09 862.745 1286.77 837.244 1329.95 C 811.743 1373.14 809.385 1426.18 830.952 1471.46 L 829.247 1471.98 z" fill="rgb(80,29,23)" transform="translate(0,0)"></path>
<path d="M 958.116 1256.11 C 965.908 1255.02 971.149 1255.08 978.884 1256.3 C 971.974 1255.76 965.035 1255.69 958.116 1256.11 z" fill="rgb(129,44,28)" transform="translate(0,0)"></path>
<path d="M 1116.51 1426.76 L 1118.63 1424.81 C 1110.5 1492.27 1058.74 1546.24 991.674 1557.17 C 924.604 1568.1 858.385 1533.37 829.247 1471.98 L 830.952 1471.46 C 853.647 1519.11 899.599 1551.42 952.112 1556.66 C 953.698 1556.81 955.287 1556.95 956.878 1557.05 C 1036.09 1562.43 1105.9 1505.45 1116.51 1426.76 z" fill="rgb(50,28,25)" transform="translate(0,0)"></path>
<path d="M 952.112 1556.66 C 953.698 1556.81 955.287 1556.95 956.878 1557.05 C 954.714 1557.18 954.132 1557.32 952.112 1556.66 z" fill="rgb(129,44,28)" transform="translate(0,0)"></path>
<path d="M 1111.85 1358.16 C 1119.02 1379.6 1121.34 1402.36 1118.63 1424.81 L 1116.51 1426.76 C 1119.56 1404.13 1117.43 1381.1 1110.28 1359.41 L 1111.85 1358.16 z" fill="rgb(129,44,28)" transform="translate(0,0)"></path>
<path d="M 955.48 1317.27 C 1004.89 1310.93 1050.03 1345.98 1056.12 1395.42 C 1062.22 1444.86 1026.94 1489.83 977.475 1495.68 C 928.346 1501.5 883.755 1466.52 877.702 1417.42 C 871.649 1368.32 906.41 1323.56 955.48 1317.27 z" fill="rgb(129,44,28)" transform="translate(0,0)"></path>
<path d="M 954.525 1319.39 C 1002.75 1312.53 1047.36 1346.19 1054 1394.45 C 1060.64 1442.7 1026.77 1487.16 978.484 1493.57 C 930.511 1499.95 886.408 1466.35 879.814 1418.41 C 873.219 1370.46 906.612 1326.2 954.525 1319.39 z" fill="rgb(245,241,235)" transform="translate(0,0)"></path>
<path d="M 643.908 393.126 C 644.034 371.381 643.337 349.601 643.64 327.767 C 644.066 297.051 662.95 276.991 694.062 276.912 C 729.895 276.821 765.94 277.046 801.804 276.836 C 822.893 276.712 838.741 275.165 854.9 291.639 C 871.565 308.212 869.313 329.984 868.863 351.268 C 868.615 362.726 868.447 374.186 868.36 385.646 C 898.54 393.898 927.281 404.605 954.101 421 C 969.287 407.878 996.41 377.437 1009.82 369.146 C 1016.7 365.276 1031.36 361.931 1039.09 364.645 C 1043.84 365.036 1053.33 367.524 1056.82 370.761 C 1094.52 405.76 1131.22 442.431 1167.37 479.045 C 1174.67 486.435 1178.96 502.046 1177.74 512.14 C 1176.57 523.868 1170.03 533.894 1161.78 542.178 C 1147.27 556.763 1132.43 571.026 1117.34 585.04 C 1131.47 612.278 1138.19 627.411 1145.01 657.906 C 1160.92 657.822 1213.04 656.571 1225.11 659.414 C 1234.06 661.432 1242.27 665.908 1248.82 672.336 C 1253.61 677.094 1257.32 682.919 1260.01 689.084 C 1264.17 699.141 1264.09 704.032 1264.11 714.576 C 1210.92 690.711 1186.98 732.795 1152.17 765.25 C 1145.65 771.337 1138.2 778.276 1132.62 785.194 C 1128.57 790.174 1125.24 795.691 1122.7 801.587 C 1116.25 816.562 1116.11 833.511 1122.33 848.589 C 1128.55 863.957 1138.94 873.909 1152.09 883.379 C 1146.54 896.47 1142.6 906.187 1138.49 919.943 C 1123.48 919.941 1110.01 919.289 1095.63 924.306 C 1063.49 935.52 1050.19 961.488 1050.09 993.838 C 1016.89 977.202 968.314 985.689 930.602 984.242 L 921.062 983.992 C 952.597 959.509 969.877 935.925 990.225 902.39 L 990.639 901.935 C 1010.55 858.624 1020.9 834.622 1022.85 784.74 C 1026.03 713.652 1000.35 644.295 951.656 592.41 C 895.716 532.054 826.006 509.813 746.036 507.023 C 743.025 507.425 739.602 508.115 736.654 507.728 C 706.882 510.772 688.475 514.135 659.85 523.985 C 649.249 528.281 640.005 532.171 629.768 537.317 C 627.088 538.664 615.3 545.08 613.938 545.568 C 562.648 578.85 527.047 616.367 504.11 674.056 C 424.725 873.714 598.663 1080.36 808.396 1036.53 C 825.251 1033.01 838.825 1028.45 854.835 1022.33 C 857.373 1021.13 858.746 1020.83 861.413 1020.04 C 852.65 1044.45 853.557 1055.4 854.117 1081.37 C 841.09 1085.94 833.047 1088.88 820.717 1095.47 C 793.847 1071.39 787.822 1054.14 751.622 1047.82 L 749.584 1047.53 C 709.591 1048.29 694.399 1071.94 667.972 1097.99 C 652.593 1113.16 625.159 1135.03 616.714 1153.66 C 611.165 1152.04 598.44 1146.74 593.162 1143.87 C 582.106 1139.33 572.64 1133.15 562.334 1127.29 C 556.455 1133.1 550.53 1139.23 544.405 1144.76 C 540.32 1149.15 517.862 1172.62 514.184 1174.28 C 505.222 1183.89 495.235 1190.59 481.557 1191.26 C 472.855 1191.61 464.248 1189.33 456.862 1184.72 C 452.305 1182.07 448.057 1178.56 444.325 1174.82 C 411.093 1141.6 377.001 1109.19 344.157 1075.59 C 342.161 1073.55 340.508 1070.66 339.225 1068.12 C 337.094 1064.92 336.121 1061.15 335.332 1057.47 C 331.704 1046.86 334.967 1030.53 341.381 1021.59 C 348.276 1011.47 380.811 981.499 391.535 970.009 C 389.405 965.389 386.99 960.457 385.147 955.778 C 378.107 945.218 367.029 906.923 366.806 894.19 L 365.649 894.267 C 345.556 895.48 324.119 894.088 303.934 894.264 C 276.528 894.502 251.581 876.114 250.769 847.368 C 249.723 840.815 249.68 794.624 250.011 786.182 C 250.895 763.611 248.461 725.611 250.764 704.601 C 251.424 685.218 262.447 670.375 279.897 662.552 C 294.926 655.815 312.019 657.576 328.097 657.765 C 340.491 657.889 352.886 657.946 365.28 657.938 C 371.711 630.754 379.395 608.691 391.885 583.728 C 382.691 574.922 371.486 562.893 362.128 554.864 C 334.935 531.533 319.656 502.723 349.95 472.134 L 413.515 408.978 C 434.133 388.387 466.925 345.493 500.934 370.022 C 520.671 384.258 542.233 408.374 559.825 426.106 C 589.841 408.413 610.815 401.496 643.908 393.126 z" fill="rgb(58,107,140)" transform="translate(0,0)"></path>
<path d="M 385.147 955.778 C 385.953 955.581 385.663 955.603 386.099 955.62 C 386.182 955.672 393.444 969.13 394.151 970.377 C 386.233 978.374 367.125 996.123 360.928 1003.34 C 355.364 1007.76 348.687 1014.24 344.514 1020.04 C 343.857 1020.86 343.812 1021.23 343.406 1022.22 L 341.381 1021.59 C 348.276 1011.47 380.811 981.499 391.535 970.009 C 389.405 965.389 386.99 960.457 385.147 955.778 z" fill="rgb(19,25,30)" transform="translate(0,0)"></path>
<path d="M 557.006 1129.68 L 558.42 1128.23 C 558.885 1127.74 561.476 1124.89 562.51 1125.42 C 571.324 1129.97 579.206 1135.87 588.377 1139.96 C 591.468 1141.34 593.742 1141.29 593.162 1143.87 C 582.106 1139.33 572.64 1133.15 562.334 1127.29 C 556.455 1133.1 550.53 1139.23 544.405 1144.76 C 545.705 1139.17 554.664 1134.65 557.006 1129.68 z" fill="rgb(19,25,30)" transform="translate(0,0)"></path>
<path d="M 1339.79 915.956 C 1378.1 880.091 1431.58 865.333 1482.86 876.477 C 1534.14 887.622 1576.67 923.246 1596.64 971.776 C 1618.9 1025.89 1609.79 1087.84 1572.9 1133.25 C 1536.01 1178.66 1477.23 1200.26 1419.71 1189.56 C 1362.19 1178.85 1315.13 1137.54 1297.05 1081.9 C 1277.9 1022.98 1294.56 958.298 1339.79 915.956 z" fill="rgb(252,95,56)" transform="translate(0,0)"></path>
<path d="M 1595.77 971.976 L 1596.64 971.776 C 1618.9 1025.89 1609.79 1087.84 1572.9 1133.25 C 1536.01 1178.66 1477.23 1200.26 1419.71 1189.56 C 1362.19 1178.85 1315.13 1137.54 1297.05 1081.9 L 1298.08 1080.8 C 1299.02 1083.61 1300.01 1086.4 1301.04 1089.17 C 1314.7 1125.45 1347.72 1160.96 1383.34 1176.03 C 1516.19 1232.25 1647.57 1107.31 1595.77 971.976 z" fill="rgb(80,29,23)" transform="translate(0,0)"></path>
<path d="M 1339.79 915.956 C 1378.1 880.091 1431.58 865.333 1482.86 876.477 C 1534.14 887.622 1576.67 923.246 1596.64 971.776 L 1595.77 971.976 C 1589.24 956.321 1580.16 941.856 1568.9 929.168 C 1509.17 861.295 1408.08 858.181 1341.21 917.424 L 1339.79 915.956 z" fill="rgb(80,29,23)" transform="translate(0,0)"></path>
<path d="M 1339.79 915.956 L 1341.21 917.424 C 1294.47 963.988 1279.98 1016.62 1298.08 1080.8 L 1297.05 1081.9 C 1277.9 1022.98 1294.56 958.298 1339.79 915.956 z" fill="rgb(129,44,28)" transform="translate(0,0)"></path>
<path d="M 1436.77 933.434 C 1491.62 926.644 1541.55 965.721 1548.14 1020.6 C 1554.72 1075.48 1515.46 1125.26 1460.56 1131.64 C 1405.94 1137.99 1356.48 1098.98 1349.93 1044.39 C 1343.37 989.798 1382.2 940.189 1436.77 933.434 z" fill="rgb(129,44,28)" transform="translate(0,0)"></path>
<path d="M 1436.43 935.444 C 1471.33 930.918 1505.98 945.487 1527.15 973.597 C 1548.33 1001.71 1552.78 1039.03 1538.81 1071.33 C 1524.83 1103.63 1494.58 1125.93 1459.59 1129.74 C 1406.26 1135.54 1358.21 1097.32 1351.86 1044.06 C 1345.5 990.789 1383.23 942.342 1436.43 935.444 z" fill="rgb(245,241,235)" transform="translate(0,0)"></path>
<path d="M 1510.01 275.105 C 1593.45 273.43 1668.86 301.408 1729.34 359.244 C 1749.13 378.173 1777.92 414.222 1788.82 439.303 C 1807.7 473.059 1820.39 521.681 1819.26 560.061 C 1791.24 560.02 1760.86 560.56 1733.03 559.733 C 1731.64 538.388 1727.94 521.75 1720.35 501.689 C 1718.98 498.079 1712.92 484.016 1712.42 482.108 L 1703.83 467.234 C 1662.57 402.596 1600.1 365.264 1523.41 361.32 C 1527.23 385.667 1532.59 410.647 1536.91 435.041 L 1564.95 595.549 C 1540.93 596.215 1495.49 596.366 1472.02 594.965 C 1476 575.753 1478.76 556.743 1482.33 537.535 C 1493.26 478.666 1502.6 420.256 1513.71 361.364 C 1505.79 361.809 1497.88 362.472 1490 363.351 L 1489.72 362.581 C 1492.53 360.887 1500.81 360.09 1504.5 359.546 C 1504.96 350.832 1515.37 287.198 1517.59 280.849 L 1517.33 278.524 C 1514.52 276.248 1508.75 277.361 1504.02 275.986 L 1510.01 275.105 z" fill="rgb(62,71,81)" transform="translate(0,0)"></path>
<path d="M 1735.51 369.503 C 1749.02 381.491 1766.56 405.371 1776.38 420.815 C 1778.41 423.998 1786.25 439.171 1788.24 439.814 L 1788.82 439.303 C 1807.7 473.059 1820.39 521.681 1819.26 560.061 C 1791.24 560.02 1760.86 560.56 1733.03 559.733 C 1731.64 538.388 1727.94 521.75 1720.35 501.689 C 1718.98 498.079 1712.92 484.016 1712.42 482.108 L 1703.83 467.234 L 1703.8 463.041 C 1700.42 458.693 1696.59 452.874 1693.37 448.25 L 1692.53 447.116 L 1681.39 433.228 L 1680.54 432.031 C 1675.29 426.753 1670.01 421.507 1664.69 416.294 C 1665.51 414.975 1728.59 374.13 1735.51 369.503 z" fill="rgb(58,107,140)" transform="translate(0,0)"></path>
<path d="M 1520.75 277.407 C 1570.91 277.188 1620.3 289.758 1664.26 313.931 C 1673.89 319.246 1684.53 325.18 1692.69 332.509 C 1684.44 349.344 1675.94 366.058 1667.21 382.647 C 1662.67 391.366 1658.42 398.837 1653.46 407.256 C 1619.34 381.011 1576.1 362.68 1533 359.515 C 1528.74 337.322 1523.73 300.189 1520.75 277.407 z" fill="rgb(58,107,140)" transform="translate(0,0)"></path>
<path d="M 1515.85 360.182 C 1518.13 360.836 1518.28 360.942 1520.44 361.903 C 1522.46 365.874 1527.76 394.972 1528.88 401.153 C 1539.81 461.635 1550.89 522.863 1560.65 583.526 C 1559.56 582.271 1558.46 581.026 1557.34 579.794 C 1545.6 566.853 1536.43 563.359 1519.65 562.581 C 1516.94 562.65 1514.24 562.788 1511.54 562.995 C 1495.55 564.341 1485.16 573.881 1475.7 585.429 C 1489.17 510.535 1501.58 434.755 1515.85 360.182 z" fill="rgb(252,95,56)" transform="translate(0,0)"></path>
<path d="M 1694.69 333.396 C 1700.61 336.471 1707.69 342.861 1712.97 347.206 C 1720.68 353.597 1727.98 360.465 1734.83 367.771 C 1720.15 376.886 1697.85 391.298 1683.57 401.141 C 1679.13 403.745 1666.5 413.499 1661.08 413.727 C 1660.42 413.755 1655.54 409.401 1655.84 408.87 C 1668.71 385.843 1679.95 359.218 1693.01 336.347 L 1694.69 333.396 z" fill="rgb(252,95,56)" transform="translate(0,0)"></path>
<path d="M 1514.75 564.489 C 1534.25 564.195 1554.73 570.504 1561.67 591.509 C 1561.77 591.81 1561.44 592.958 1561.11 592.993 C 1549.89 594.169 1537.68 593.256 1526.25 593.207 C 1508.35 593.039 1492.07 593.651 1474.03 592.998 C 1484.33 574.67 1493.39 566.986 1514.75 564.489 z" fill="rgb(245,241,235)" transform="translate(0,0)"></path>
<path d="M 1518.53 284.813 C 1520.73 287.696 1529.44 351.196 1530.53 359.711 C 1527.97 359.586 1524.3 359.075 1521.53 358.848 C 1516.37 358.902 1511.78 359.077 1506.65 359.341 C 1509.43 337.07 1513.77 306.563 1518.53 284.813 z" fill="rgb(245,241,235)" transform="translate(0,0)"></path>
<path d="M 560.125 687.739 C 569.758 664.778 591.726 636.049 610.295 619.587 C 654.373 580.511 704.614 561.846 763.419 564.927 C 815.329 565.447 871.388 591.03 907.482 627.696 C 911.514 631.791 915.62 635.8 919.649 639.901 C 907.004 653.141 887.625 671.075 873.458 683.157 C 785.168 579.087 615.773 626.242 602.708 764.668 C 600.7 785.936 605.523 812.169 614.064 831.722 C 615.272 835.032 618.423 841.009 620.073 844.392 C 605.348 856.542 586.744 875.187 572.587 888.613 C 567.029 877.336 560.441 864.968 556.031 853.331 C 534.561 796.673 536.193 742.882 560.125 687.739 z" fill="rgb(252,95,56)" transform="translate(0,0)"></path>
<path d="M 763.419 564.927 C 815.329 565.447 871.388 591.03 907.482 627.696 C 911.514 631.791 915.62 635.8 919.649 639.901 C 907.004 653.141 887.625 671.075 873.458 683.157 C 785.168 579.087 615.773 626.242 602.708 764.668 C 600.7 785.936 605.523 812.169 614.064 831.722 L 612.702 833.134 C 589.564 774.137 601.145 708.185 648.99 664.905 C 679.352 637.346 719.47 623.067 760.415 625.246 C 762.243 625.081 762.212 624.921 763.736 625.756 L 765.014 625.788 C 808.757 627.244 844.975 648.901 873.901 680.317 C 887.896 667.546 903.914 653.543 916.992 640.083 C 877.766 597.805 827.286 569.922 768.877 567.058 L 763.419 564.927 z" fill="rgb(80,29,23)" transform="translate(0,0)"></path>
<path d="M 760.415 625.246 C 762.243 625.081 762.212 624.921 763.736 625.756 C 762.141 626.011 761.72 626.258 760.415 625.246 z" fill="rgb(129,44,28)" transform="translate(0,0)"></path>
<path d="M 560.125 687.739 C 569.758 664.778 591.726 636.049 610.295 619.587 C 654.373 580.511 704.614 561.846 763.419 564.927 L 768.877 567.058 C 674.022 563.762 604.776 604.224 561.231 689.158 L 560.125 687.739 z" fill="rgb(129,44,28)" transform="translate(0,0)"></path>
<path d="M 560.125 687.739 L 561.231 689.158 C 538.215 740.21 536.588 798.349 556.712 850.608 C 561.286 862.735 566.977 874.167 573.112 885.563 C 588.135 871.877 602.611 857.555 617.565 843.79 L 612.702 833.134 L 614.064 831.722 C 615.272 835.032 618.423 841.009 620.073 844.392 C 605.348 856.542 586.744 875.187 572.587 888.613 C 567.029 877.336 560.441 864.968 556.031 853.331 C 534.561 796.673 536.193 742.882 560.125 687.739 z" fill="rgb(50,28,25)" transform="translate(0,0)"></path>
<path d="M 948.298 688.832 C 953.986 693.637 961.286 723.145 962.82 730.723 C 973.756 785.886 962.689 843.139 931.983 890.252 C 900.958 937.763 852.106 970.777 796.453 981.844 C 733.351 994.142 679.345 981.133 626.719 945.45 C 620.44 940.828 614.067 935.219 608.067 930.145 C 623.675 916.024 639.372 900.788 654.711 886.294 C 727.369 947.604 829.4 933.299 882.426 852.907 C 905.841 817.407 908.651 774.039 899.63 733.182 C 916.371 719.194 930.392 703.103 948.298 688.832 z" fill="rgb(129,44,28)" transform="translate(0,0)"></path>
<path d="M 947.7 692.082 C 953.688 699.33 958.909 720.977 960.723 730.236 C 972.113 785.67 960.895 843.357 929.56 890.483 C 898.671 937.221 850.224 969.513 795.198 980.04 C 732.737 992.065 679.41 978.729 627.404 943.426 C 621.189 938.621 616.854 935.021 611.065 929.722 C 625.727 916.426 640.387 902.416 654.931 888.914 C 659.231 892.888 663.818 896.54 668.656 899.838 C 702.805 923.185 745.016 931.551 785.489 922.994 C 823.4 915.314 862.125 888.606 882.609 856.045 C 907.44 816.575 911.036 778.706 902.05 734.391 C 915.644 721.125 933.088 703.284 947.7 692.082 z" fill="rgb(252,95,56)" transform="translate(0,0)"></path>
<path d="M 1381.38 739.322 C 1381.16 724.542 1380.88 709.683 1380.81 694.908 C 1380.76 684.539 1381.14 674.641 1389.05 667.155 C 1393.3 663.15 1398.62 660.47 1404.37 659.445 C 1411.04 658.236 1429.45 658.996 1436.99 658.959 C 1453.89 658.992 1471.97 658.917 1488.73 659.038 C 1514.7 659.227 1521.64 673.961 1520.45 697.579 C 1520.09 704.759 1520.15 714.644 1520 721.984 C 1519.4 726.342 1519.47 726.68 1517.29 730.372 L 1516.36 730.34 C 1504.45 729.826 1491.07 727.013 1478.78 726.204 C 1447.03 724.243 1415.17 725.621 1383.71 730.314 C 1383.93 755.608 1384.02 780.903 1383.96 806.198 C 1368.88 809.553 1354.99 816.051 1341.99 824.267 C 1323.95 806.394 1304.07 788.695 1286.54 770.996 C 1280.7 777.359 1273.68 782.977 1266.95 788.371 C 1243.18 807.422 1221.48 828.858 1202.11 852.366 C 1199.11 856.008 1192.37 862.693 1191.33 866.921 C 1192.2 868.406 1191.97 868.352 1193.19 869.471 L 1191.51 870.428 C 1178.83 858.613 1163.25 847.888 1155.04 833.107 C 1154.72 823.098 1154.41 821.068 1158.9 811.78 C 1162.09 805.565 1203.62 765.254 1209.89 760.838 C 1236.32 724.321 1258.14 754.158 1280.65 773.776 L 1286.79 767.982 C 1289.32 770.342 1292.09 773.362 1294.53 775.884 C 1324.02 759.626 1346.13 745.147 1381.38 739.322 z" fill="rgb(80,29,23)" transform="translate(0,0)"></path>
<path d="M 1233.86 745.394 C 1236.5 745.806 1236.39 745.807 1239.09 745.392 C 1254.42 748.886 1267.22 764.325 1279.15 775.557 C 1240.14 807.938 1220.78 825.845 1188.81 865.429 C 1177.75 855.466 1163.08 844.274 1156.47 831.536 C 1156.93 827.264 1156.96 826.622 1156.63 822.323 C 1157.94 817.839 1158.42 816.353 1158.9 811.78 C 1162.09 805.565 1203.62 765.254 1209.89 760.838 C 1220.85 753.756 1218.26 749.853 1233.86 745.394 z" fill="rgb(252,95,56)" transform="translate(0,0)"></path>
<path d="M 1156.63 822.323 C 1156.96 826.622 1156.93 827.264 1156.47 831.536 C 1155.59 827.128 1155.64 826.715 1156.63 822.323 z" fill="rgb(160,55,30)" transform="translate(0,0)"></path>
<path d="M 1233.86 745.394 C 1236.5 744.915 1236.65 744.692 1239.09 745.392 C 1236.39 745.807 1236.5 745.806 1233.86 745.394 z" fill="rgb(160,55,30)" transform="translate(0,0)"></path>
<path d="M 1403.38 661.109 C 1430.42 660.3 1458.54 661.226 1485.1 660.912 C 1516.16 660.545 1519.86 675.601 1518.59 701.672 C 1518.17 710.282 1518.21 720.117 1518 728.793 C 1509.95 727.909 1501.92 726.87 1493.91 725.676 C 1449.4 723.151 1429.1 721.902 1383.04 728.504 C 1383.15 714.111 1382.12 698.807 1383.09 684.487 C 1383.97 671.543 1392.14 665.433 1403.38 661.109 z" fill="rgb(252,95,56)" transform="translate(0,0)"></path>
<path d="M 1380.97 741.497 C 1382.77 743.394 1381.94 797.112 1381.92 804.15 C 1364.87 809.985 1357.92 813.555 1342.25 821.488 L 1320.33 800.572 C 1313.52 794.008 1304.35 784.116 1297.38 778.583 L 1295.88 777.374 C 1317.15 763.962 1351.94 745.792 1377.01 742.054 L 1380.97 741.497 z" fill="rgb(252,95,56)" transform="translate(0,0)"></path>
<path d="M 1349.67 325.415 L 1347.63 329.702 C 1348.18 334.661 1378.29 398.737 1383.24 407.307 L 1393.84 399.477 L 1395.04 400.943 C 1379.83 411.798 1369.01 420.827 1356.53 434.586 C 1325.31 474.097 1306.31 508.261 1302.78 560.059 C 1274.21 560.032 1245.65 559.834 1217.08 559.465 C 1215.68 489.051 1254.06 412.004 1303.56 363.617 C 1316.83 350.714 1334.17 335.437 1349.67 325.415 z" fill="rgb(58,107,140)" transform="translate(0,0)"></path>
<path d="M 1349.67 325.415 L 1347.63 329.702 C 1348.18 334.661 1378.29 398.737 1383.24 407.307 L 1393.84 399.477 L 1395.04 400.943 C 1379.83 411.798 1369.01 420.827 1356.53 434.586 L 1355.85 433.08 L 1359.04 429.144 C 1362.45 426.395 1366.69 421.538 1369.79 418.208 C 1372.93 415.671 1372.84 416.569 1373.59 413.445 C 1367.86 408.571 1353.05 399.863 1345.86 395.24 C 1331.9 386.262 1317.32 375.924 1303.19 367.472 L 1304.1 365.783 L 1304.28 364.974 L 1303.56 363.617 C 1316.83 350.714 1334.17 335.437 1349.67 325.415 z" fill="rgb(252,95,56)" transform="translate(0,0)"></path>
<path d="M 1349.67 325.415 L 1347.63 329.702 C 1348.18 334.661 1378.29 398.737 1383.24 407.307 L 1393.84 399.477 L 1395.04 400.943 C 1379.83 411.798 1369.01 420.827 1356.53 434.586 L 1355.85 433.08 L 1359.04 429.144 C 1362.45 426.395 1366.69 421.538 1369.79 418.208 C 1372.93 415.671 1372.84 416.569 1373.59 413.445 C 1367.86 408.571 1353.05 399.863 1345.86 395.24 C 1331.9 386.262 1317.32 375.924 1303.19 367.472 L 1304.1 365.783 C 1326.92 378.963 1350.6 397.943 1373.72 411.387 C 1377.13 413.37 1381.24 408.758 1381.05 408.35 C 1369.06 383.619 1358.31 354.348 1345.03 330.408 C 1335.17 337.371 1312.79 356.411 1304.28 364.974 L 1303.56 363.617 C 1316.83 350.714 1334.17 335.437 1349.67 325.415 z" fill="rgb(50,28,25)" transform="translate(0,0)"></path>
<path d="M 1520 721.984 L 1520.04 738.127 C 1549.69 745.081 1577.8 757.442 1602.97 774.591 C 1617.41 760.474 1653.3 714.465 1675.38 733.344 C 1698.44 753.258 1719.52 775.378 1741.56 796.525 C 1749.03 803.693 1748.36 807.828 1749.99 817.571 C 1751.59 827.176 1730.67 850.476 1723.01 853.065 C 1718.94 858.223 1713.33 863.536 1708.61 868.25 C 1723.16 892.536 1738.01 929.319 1740.45 957.441 L 1751.3 957.821 L 1749.84 960.476 C 1743.03 958.824 1683.61 959.731 1672.08 959.806 C 1667.12 943.993 1661.85 928.139 1652.55 914.301 C 1657.52 908.907 1667.63 900.787 1673.56 895.668 L 1708.23 865.384 C 1679 825.901 1649.43 799.631 1611.19 769.357 C 1593.88 786.658 1573.5 806.183 1557.45 824.168 C 1546.73 816.714 1531.19 811.142 1518.79 806.293 C 1518.46 805.546 1518.12 804.799 1517.79 804.052 C 1517.59 800.512 1517.68 772.676 1518.1 769.516 C 1517.94 760.34 1518.87 738.151 1517.29 730.372 C 1519.47 726.68 1519.4 726.342 1520 721.984 z" fill="rgb(50,28,25)" transform="translate(0,0)"></path>
<path d="M 1639.86 740.653 C 1647.82 733.584 1660.64 727.06 1671.78 733.373 C 1680.77 738.469 1688.89 748.924 1696.77 755.662 C 1712.09 770.912 1728.26 785.508 1743.14 801.151 C 1747.53 805.767 1748.52 814.892 1747.79 820.895 C 1747.63 833.816 1725.29 846.581 1723.01 853.065 C 1717.68 856.308 1714.3 859.911 1709.79 864.189 C 1679.04 823.39 1651.66 799.493 1612.16 767.65 C 1621.92 758.726 1630.56 750.055 1639.86 740.653 z" fill="rgb(252,95,56)" transform="translate(0,0)"></path>
<path d="M 1519.81 743.712 C 1519.83 743.283 1519.88 740.576 1520.62 740.679 C 1544.28 743.982 1584.69 762.872 1601.49 776.147 C 1590.28 788.921 1570.02 808.474 1557.17 821.582 C 1545.9 814.893 1534.06 809.6 1521.52 805.747 C 1520.2 805.342 1519.91 805.015 1518.82 804.083 L 1517.79 804.052 C 1517.59 800.512 1517.68 772.676 1518.1 769.516 C 1519.16 760.999 1518.23 751.524 1519.81 743.712 z" fill="rgb(252,95,56)" transform="translate(0,0)"></path>
<path d="M 1519.81 743.712 C 1520.57 754.125 1519.83 765.121 1519.46 775.566 C 1519.15 784.448 1520.07 795.516 1518.82 804.083 L 1517.79 804.052 C 1517.59 800.512 1517.68 772.676 1518.1 769.516 C 1519.16 760.999 1518.23 751.524 1519.81 743.712 z" fill="rgb(160,55,30)" transform="translate(0,0)"></path>
<path d="M 1706.06 869.87 C 1718.17 879.373 1735.3 932.986 1737.97 949.509 C 1738.32 951.672 1739.04 955.481 1739.48 957.773 L 1692.25 958.081 L 1673.11 958.116 C 1668.05 941.708 1662.94 928.987 1655 913.797 C 1670.43 899.692 1689.96 883.794 1706.06 869.87 z" fill="rgb(252,95,56)" transform="translate(0,0)"></path>
<path d="M 1678.17 1100.28 C 1686.12 1099.23 1744.6 1099.58 1750.55 1101.1 L 1750.53 1103.09 C 1748.52 1102.86 1746.5 1102.66 1744.49 1102.49 C 1741.12 1102.23 1741.34 1103.8 1740.9 1106.47 C 1736.75 1131.59 1728.25 1162.11 1715.17 1183.98 L 1709.13 1195.21 C 1720.92 1206.1 1738.96 1220.92 1747.43 1234.2 C 1748.6 1236.03 1750.52 1243.18 1751.14 1245.55 C 1750.4 1248.89 1748.66 1257.87 1746.05 1260.65 C 1724.46 1283.56 1699.95 1308.35 1676.16 1328.89 C 1672.92 1331.67 1661.97 1332.68 1658.3 1331.42 C 1640.18 1325.23 1621.66 1301.3 1606.38 1287.81 C 1603.75 1289.9 1601.35 1291.96 1598.5 1293.72 L 1597.94 1292 C 1575.29 1306.47 1550.54 1317.39 1524.56 1324.35 C 1522.44 1324.94 1522 1324.66 1520.14 1323.87 L 1518.95 1323.85 C 1519.23 1327.46 1519.73 1330.22 1518.68 1333.63 C 1517.67 1328.69 1517.86 1301.73 1518.12 1295.75 C 1517.93 1290.92 1517.65 1265.54 1518.35 1261.3 C 1521.54 1260.04 1527.52 1258.58 1531.48 1257.11 C 1543.47 1252.68 1551.78 1247.86 1562.53 1241.38 C 1579.56 1258.94 1596.84 1275.59 1614.32 1292.7 C 1634.42 1277.29 1650.5 1264.57 1668.23 1246.36 C 1673.81 1240.63 1687.52 1224.48 1692.1 1220.85 C 1694.96 1215.83 1705.04 1202.39 1708.74 1197.92 C 1693.74 1183.17 1672.09 1165.04 1655.67 1151.37 C 1668.32 1129.78 1670.59 1123.68 1678.17 1100.28 z" fill="rgb(252,95,56)" transform="translate(0,0)"></path>
<path d="M 1678.17 1100.28 C 1686.12 1099.23 1744.6 1099.58 1750.55 1101.1 L 1750.53 1103.09 C 1748.52 1102.86 1746.5 1102.66 1744.49 1102.49 C 1741.12 1102.23 1741.34 1103.8 1740.9 1106.47 C 1736.75 1131.59 1728.25 1162.11 1715.17 1183.98 L 1714.03 1182.65 C 1711.77 1186.33 1709.73 1190.14 1707.55 1193.88 C 1691.52 1178.81 1674.14 1165.32 1657.93 1150.6 C 1660.65 1146.04 1663.89 1140.33 1666.35 1135.6 C 1667.15 1134.08 1667.91 1132.54 1668.64 1130.99 C 1672.72 1122.07 1675.49 1113.35 1678.5 1104.07 L 1679.16 1102.16 L 1678.17 1100.28 z" fill="rgb(252,95,56)" transform="translate(0,0)"></path>
<path d="M 1678.17 1100.28 C 1686.12 1099.23 1744.6 1099.58 1750.55 1101.1 L 1750.53 1103.09 C 1748.52 1102.86 1746.5 1102.66 1744.49 1102.49 C 1741.12 1102.23 1741.34 1103.8 1740.9 1106.47 C 1736.75 1131.59 1728.25 1162.11 1715.17 1183.98 L 1714.03 1182.65 C 1726.5 1155.91 1736.05 1132.52 1739.47 1102.71 C 1719.15 1103.05 1699.43 1102.84 1679.16 1102.16 L 1678.17 1100.28 z" fill="rgb(81,76,70)" transform="translate(0,0)"></path>
<path d="M 1519.89 1262.36 C 1538.58 1256.99 1545.65 1252.12 1562.35 1243.82 L 1604.97 1286.44 C 1602.52 1288.54 1600.56 1290.11 1597.94 1292 C 1575.29 1306.47 1550.54 1317.39 1524.56 1324.35 C 1522.44 1324.94 1522 1324.66 1520.14 1323.87 L 1518.95 1323.85 C 1519.23 1327.46 1519.73 1330.22 1518.68 1333.63 C 1517.67 1328.69 1517.86 1301.73 1518.12 1295.75 C 1517.93 1290.92 1517.65 1265.54 1518.35 1261.3 L 1519.89 1262.36 z" fill="rgb(252,95,56)" transform="translate(0,0)"></path>
<path d="M 1518.35 1261.3 L 1519.89 1262.36 C 1519.56 1281.37 1521.26 1305.53 1520.14 1323.87 L 1518.95 1323.85 C 1519.23 1327.46 1519.73 1330.22 1518.68 1333.63 C 1517.67 1328.69 1517.86 1301.73 1518.12 1295.75 C 1517.93 1290.92 1517.65 1265.54 1518.35 1261.3 z" fill="rgb(129,44,28)" transform="translate(0,0)"></path>
<path d="M 1518.12 1295.75 C 1519.22 1303 1519.23 1316.42 1518.95 1323.85 C 1519.23 1327.46 1519.73 1330.22 1518.68 1333.63 C 1517.67 1328.69 1517.86 1301.73 1518.12 1295.75 z" fill="rgb(58,107,140)" transform="translate(0,0)"></path>
<path d="M 1678.17 1100.28 L 1679.16 1102.16 L 1678.5 1104.07 C 1675.49 1113.35 1672.72 1122.07 1668.64 1130.99 C 1667.91 1132.54 1667.15 1134.08 1666.35 1135.6 C 1663.89 1140.33 1660.65 1146.04 1657.93 1150.6 C 1674.14 1165.32 1691.52 1178.81 1707.55 1193.88 C 1709.73 1190.14 1711.77 1186.33 1714.03 1182.65 L 1715.17 1183.98 L 1709.13 1195.21 C 1720.92 1206.1 1738.96 1220.92 1747.43 1234.2 C 1748.6 1236.03 1750.52 1243.18 1751.14 1245.55 C 1750.4 1248.89 1748.66 1257.87 1746.05 1260.65 C 1724.46 1283.56 1699.95 1308.35 1676.16 1328.89 C 1672.92 1331.67 1661.97 1332.68 1658.3 1331.42 C 1640.18 1325.23 1621.66 1301.3 1606.38 1287.81 C 1603.75 1289.9 1601.35 1291.96 1598.5 1293.72 L 1597.94 1292 C 1600.56 1290.11 1602.52 1288.54 1604.97 1286.44 L 1562.35 1243.82 C 1545.65 1252.12 1538.58 1256.99 1519.89 1262.36 L 1518.35 1261.3 C 1521.54 1260.04 1527.52 1258.58 1531.48 1257.11 C 1543.47 1252.68 1551.78 1247.86 1562.53 1241.38 C 1579.56 1258.94 1596.84 1275.59 1614.32 1292.7 C 1634.42 1277.29 1650.5 1264.57 1668.23 1246.36 C 1673.81 1240.63 1687.52 1224.48 1692.1 1220.85 C 1692.3 1231.31 1626.41 1285.38 1615.82 1294.13 C 1639.94 1314.29 1656.6 1349.63 1687.85 1316.48 C 1704.88 1300.29 1721.05 1282.92 1738.23 1266.91 C 1766.47 1240.59 1729.34 1215.59 1708.74 1197.92 C 1693.74 1183.17 1672.09 1165.04 1655.67 1151.37 C 1668.32 1129.78 1670.59 1123.68 1678.17 1100.28 z" fill="rgb(50,28,25)" transform="translate(0,0)"></path>
<path d="M 1482.35 277.324 C 1491.51 275.936 1500.75 275.195 1510.01 275.105 L 1504.02 275.986 C 1508.75 277.361 1514.52 276.248 1517.33 278.524 L 1517.59 280.849 C 1515.37 287.198 1504.96 350.832 1504.5 359.546 C 1500.81 360.09 1492.53 360.887 1489.72 362.581 L 1490 363.351 C 1465.83 369.603 1441.65 373.335 1419.5 386.326 C 1417.27 387.634 1408.06 392.867 1405.98 393.458 L 1395.04 400.943 L 1393.84 399.477 L 1383.24 407.307 C 1378.29 398.737 1348.18 334.661 1347.63 329.702 L 1349.67 325.415 C 1352.47 322.763 1363.18 316.635 1366.73 314.622 C 1396.55 297.717 1445.58 280.144 1479.95 277.65 L 1482.35 277.324 z" fill="rgb(58,107,140)" transform="translate(0,0)"></path>
<path d="M 1751.3 957.821 C 1769.51 957.91 1813.81 950.523 1817.39 976.53 C 1821.44 1005.91 1818.03 1038.91 1819.04 1068.74 C 1819.62 1110.18 1779.93 1098.45 1753.33 1101.2 C 1752.16 1102.37 1752.13 1102.26 1750.53 1103.09 L 1750.55 1101.1 C 1750.9 1099.71 1751.28 1097.97 1751.78 1096.65 C 1752.11 1081.87 1755.24 1063.77 1755.9 1047.67 C 1757.2 1016.04 1754.03 991.514 1749.84 960.476 L 1751.3 957.821 z" fill="rgb(129,44,28)" transform="translate(0,0)"></path>
<path d="M 1751.59 959.892 C 1768.1 959.787 1796.13 955.042 1808.88 966.1 C 1811.58 968.434 1815.42 974.876 1816.3 978.642 C 1817.81 1010.04 1817.16 1042.02 1816.91 1073.52 C 1816.65 1106.19 1775.58 1097.11 1754.69 1099.08 C 1754.09 1098.47 1753.5 1097.87 1752.9 1097.27 C 1761.69 1060.4 1758.01 997.122 1751.59 959.892 z" fill="rgb(252,95,56)" transform="translate(0,0)"></path>
<path d="M 1751.78 1096.65 L 1752.9 1097.27 C 1753.5 1097.87 1754.09 1098.47 1754.69 1099.08 L 1753.33 1101.2 C 1752.16 1102.37 1752.13 1102.26 1750.53 1103.09 L 1750.55 1101.1 C 1750.9 1099.71 1751.28 1097.97 1751.78 1096.65 z" fill="rgb(50,28,25)" transform="translate(0,0)"></path>
<path d="M 1597.94 1292 L 1598.5 1293.72 C 1576.74 1309.3 1545.94 1320.24 1520.31 1327.64 C 1521.75 1396.1 1529.46 1408.05 1448.86 1403.96 C 1436.17 1403.31 1405.13 1406.63 1394.89 1401.38 L 1394.96 1340.16 L 1394.07 1338.7 C 1397.41 1338.23 1401.04 1338.58 1404.38 1339.03 C 1415.91 1338.67 1430.91 1340.17 1443.36 1340.17 C 1468.6 1339.93 1493.78 1337.74 1518.68 1333.63 C 1519.73 1330.22 1519.23 1327.46 1518.95 1323.85 L 1520.14 1323.87 C 1522 1324.66 1522.44 1324.94 1524.56 1324.35 C 1550.54 1317.39 1575.29 1306.47 1597.94 1292 z" fill="rgb(252,95,56)" transform="translate(0,0)"></path>
<path d="M 1597.94 1292 L 1598.5 1293.72 C 1576.74 1309.3 1545.94 1320.24 1520.31 1327.64 C 1521.75 1396.1 1529.46 1408.05 1448.86 1403.96 C 1436.17 1403.31 1405.13 1406.63 1394.89 1401.38 C 1401.57 1400.95 1410.29 1402.92 1417.9 1402.04 C 1445.34 1398.85 1491.7 1410.57 1513.07 1392.57 C 1522.09 1384.98 1518.72 1348.39 1518.44 1335.96 C 1499.47 1338.52 1481.93 1341.08 1462.76 1341.31 C 1459.11 1340.89 1457.66 1341.29 1453.96 1341.94 C 1447.17 1342.29 1438.94 1342.01 1432.02 1341.94 C 1427.92 1341.41 1425.35 1340.83 1421.3 1341.29 L 1413.02 1341.07 C 1409.39 1340.4 1407.9 1340.12 1404.38 1339.03 C 1415.91 1338.67 1430.91 1340.17 1443.36 1340.17 C 1468.6 1339.93 1493.78 1337.74 1518.68 1333.63 C 1519.73 1330.22 1519.23 1327.46 1518.95 1323.85 L 1520.14 1323.87 C 1522 1324.66 1522.44 1324.94 1524.56 1324.35 C 1550.54 1317.39 1575.29 1306.47 1597.94 1292 z" fill="rgb(129,44,28)" transform="translate(0,0)"></path>
<path d="M 1394.07 1338.7 C 1397.41 1338.23 1401.04 1338.58 1404.38 1339.03 C 1407.9 1340.12 1409.39 1340.4 1413.02 1341.07 C 1406.58 1340.99 1401.38 1340.27 1394.96 1340.16 L 1394.07 1338.7 z" fill="rgb(129,44,28)" transform="translate(0,0)"></path>
<path d="M 1421.3 1341.29 C 1425.35 1340.83 1427.92 1341.41 1432.02 1341.94 C 1428.96 1342.01 1423.99 1342.48 1421.3 1341.29 z" fill="rgb(160,55,30)" transform="translate(0,0)"></path>
<path d="M 1453.96 1341.94 C 1457.66 1341.29 1459.11 1340.89 1462.76 1341.31 C 1460.18 1342.39 1456.88 1341.96 1453.96 1341.94 z" fill="rgb(129,44,28)" transform="translate(0,0)"></path>
<path d="M 1092.17 969.837 C 1093.91 969.356 1093.14 969.739 1094.52 968.709 C 1107.68 958.951 1109.1 958.932 1123.96 959.123 C 1129.36 959.9 1137.21 960.496 1142.56 959.375 L 1142.98 963.881 L 1144.89 963.329 C 1138.77 1015.54 1138.52 1047.25 1145.49 1100.11 L 1143.22 1100.35 L 1143.26 1100.94 L 1142.29 1100.85 C 1136.73 1101.16 1127.69 1101.14 1122.18 1100.42 C 1107.1 1092 1103.03 1089.33 1086.25 1084.44 L 1086.21 1020.3 C 1086.19 1005.46 1084 982.198 1092.17 969.837 z" fill="rgb(252,95,56)" transform="translate(0,0)"></path>
<path d="M 1142.98 963.881 L 1144.89 963.329 C 1138.77 1015.54 1138.52 1047.25 1145.49 1100.11 L 1143.22 1100.35 C 1138.57 1053.06 1135.01 1011.73 1142.98 963.881 z" fill="rgb(80,29,23)" transform="translate(0,0)"></path>
<path d="M 1122.18 1100.42 C 1126.22 1098.31 1138.64 1097.69 1142.29 1100.85 C 1136.73 1101.16 1127.69 1101.14 1122.18 1100.42 z" fill="rgb(129,44,28)" transform="translate(0,0)"></path>
<path d="M 1199.27 874.734 C 1214.1 888.147 1231 900.512 1245.62 913.639 C 1239.39 923.492 1235.98 929.793 1231.76 940.704 L 1230.91 942.988 C 1228.68 949.08 1227.46 953.381 1225.92 959.637 C 1208.09 959.271 1188.36 958.717 1170.57 959.336 C 1164.31 959.604 1151.4 959.458 1146.12 960.384 C 1144.78 962.071 1145.22 961.1 1144.89 963.329 L 1142.98 963.881 L 1142.56 959.375 C 1137.21 960.496 1129.36 959.9 1123.96 959.123 C 1109.1 958.932 1107.68 958.951 1094.52 968.709 C 1093.14 969.739 1093.91 969.356 1092.17 969.837 C 1106.84 950.386 1142.9 958.069 1166.29 957.451 C 1171.44 928.629 1181.12 901.498 1196.94 876.759 C 1197.73 876.095 1198.5 875.42 1199.27 874.734 z" fill="rgb(252,95,56)" transform="translate(0,0)"></path>
<path d="M 1199.27 874.734 C 1214.1 888.147 1231 900.512 1245.62 913.639 C 1239.39 923.492 1235.98 929.793 1231.76 940.704 L 1230.59 938.619 C 1235.02 929.408 1237.42 923.252 1242.97 914.232 C 1229.99 902.55 1212.87 888.361 1199.23 877.428 C 1186.6 893.718 1178.08 917.179 1172.76 936.977 C 1170.93 943.777 1169.79 950.883 1167.37 957.486 L 1170.57 959.336 C 1164.31 959.604 1151.4 959.458 1146.12 960.384 C 1144.78 962.071 1145.22 961.1 1144.89 963.329 L 1142.98 963.881 L 1142.56 959.375 C 1137.21 960.496 1129.36 959.9 1123.96 959.123 C 1109.1 958.932 1107.68 958.951 1094.52 968.709 C 1093.14 969.739 1093.91 969.356 1092.17 969.837 C 1106.84 950.386 1142.9 958.069 1166.29 957.451 C 1171.44 928.629 1181.12 901.498 1196.94 876.759 C 1197.73 876.095 1198.5 875.42 1199.27 874.734 z" fill="rgb(81,76,70)" transform="translate(0,0)"></path>
<path d="M 1123.96 959.123 C 1128.41 958.739 1138.5 957.962 1142.56 959.375 C 1137.21 960.496 1129.36 959.9 1123.96 959.123 z" fill="rgb(160,55,30)" transform="translate(0,0)"></path>
<path d="M 1224.2 957.672 C 1226.12 951.867 1227.73 945.961 1229.97 940.264 L 1230.59 938.619 L 1231.76 940.704 L 1230.91 942.988 C 1228.68 949.08 1227.46 953.381 1225.92 959.637 C 1208.09 959.271 1188.36 958.717 1170.57 959.336 L 1167.37 957.486 C 1179.22 956.212 1212.43 956.263 1224.2 957.672 z" fill="rgb(129,44,28)" transform="translate(0,0)"></path>
<path d="M 1333.71 1240.82 C 1350.11 1249.99 1364.83 1256.29 1383.2 1260.78 C 1383.48 1276.53 1384.64 1296.89 1383.17 1312.23 C 1382.56 1311.42 1381.96 1310.6 1381.37 1309.77 L 1380.54 1308.93 C 1351.01 1279.1 1330.73 1285.21 1293.66 1284.92 L 1291.47 1284.9 C 1295.9 1278.11 1326.54 1247.98 1333.71 1240.82 z" fill="rgb(252,95,56)" transform="translate(0,0)"></path>
<path d="M 1333.71 1240.82 C 1350.11 1249.99 1364.83 1256.29 1383.2 1260.78 C 1383.48 1276.53 1384.64 1296.89 1383.17 1312.23 C 1382.56 1311.42 1381.96 1310.6 1381.37 1309.77 C 1381.73 1293.5 1381.4 1279.02 1381.41 1262.85 C 1361.97 1256.27 1352.4 1252.99 1333.97 1243.43 C 1320.75 1255.8 1306.32 1271.69 1293.66 1284.92 L 1291.47 1284.9 C 1295.9 1278.11 1326.54 1247.98 1333.71 1240.82 z" fill="rgb(80,29,23)" transform="translate(0,0)"></path>
<path d="M 1194.36 870.803 C 1196.29 872.225 1197.5 873.115 1199.27 874.734 C 1198.5 875.42 1197.73 876.095 1196.94 876.759 L 1196.18 875.201 C 1195.53 873.852 1194.92 872.21 1194.36 870.803 z" fill="rgb(62,71,81)" transform="translate(0,0)"></path>
<path d="M 1193.19 869.471 C 1193.9 870.183 1193.5 869.751 1194.36 870.803 C 1194.92 872.21 1195.53 873.852 1196.18 875.201 C 1194.6 873.634 1193.05 872.043 1191.51 870.428 L 1193.19 869.471 z" fill="rgb(137,134,138)" transform="translate(0,0)"></path>
<metadata><recraft-signature>{"signed_by": "recraft", "signature_b64": "o9B0Lklz0Mf7tEQHhI/6QeU15jZWXpv/60LZ4dlRC7iQMNkc5m2hCPD1vYL8CTLXKw6/5HJQlKypP64u0XcZDw==", "signing_algo": "Ed25519", "generation_timestamp": 1774143580, "identifier": "da4f57c4-80f1-4f98-a809-2f7bd5967ffc"}</recraft-signature></metadata></svg>