<svg xmlns="http://www.w3.org/2000/svg" height="1024" preserveAspectRatio="none" style="display: block;" version="1.1" viewBox="0 0 2048 2048" width="1024">
<path d="M 1572.88 818.394 C 1595.47 816.59 1621.28 833.57 1628.91 854.875 C 1633.56 867.864 1637.09 881.594 1641.27 894.834 C 1651.52 927.141 1661.4 959.565 1670.91 992.1 C 1676.97 1012.13 1684.45 1037.61 1691.94 1056.94 C 1707.33 1066.18 1719.73 1074.41 1732.57 1087.34 C 1750.74 1105.65 1765.05 1126.76 1776.63 1149.73 C 1790.08 1176.4 1792.42 1207.27 1796.42 1236.46 L 1806.18 1305.75 L 1815.72 1373.96 C 1817.6 1387.41 1820.14 1401.14 1820.83 1414.68 C 1822.61 1449.95 1800.11 1460.18 1773.81 1472.18 C 1764.78 1476.35 1755.77 1480.58 1746.79 1484.87 C 1749.68 1554.3 1722.37 1560.87 1667.91 1590.49 L 1667.75 1591.81 C 1658.92 1659.15 1571.48 1658.67 1520.71 1651.99 C 1508 1664.22 1492.05 1680.94 1475.99 1688.46 C 1436 1707.18 1390.47 1681.67 1352 1669.54 C 1315.75 1658.1 1279.68 1645.74 1244.12 1632.98 C 1233.15 1629.03 1224.87 1626.28 1213.59 1623.17 C 1209.76 1637.29 1207.03 1651.21 1202.87 1665.93 C 1159.25 1647.87 1116.41 1627.01 1072.83 1608.74 C 1060.44 1603.54 1047.57 1597.81 1035.55 1591.86 C 1032.65 1578.77 1030.87 1564.84 1028.76 1551.56 C 1015.65 1469.12 1017.9 1387.84 1047.06 1308.81 C 1056.26 1283.86 1065.39 1268.57 1078.7 1246.77 C 1112.55 1191.32 1158.18 1147.74 1213.75 1114.31 C 1225.65 1107.15 1238.05 1099.46 1250.8 1093.61 C 1247.32 1079.2 1241.07 1061.59 1236.67 1046.74 L 1197.79 918.46 C 1241.84 905.373 1288.03 893.862 1332.52 882.109 L 1461.16 847.291 L 1528.25 829.07 C 1540.08 825.825 1561.38 819.266 1572.88 818.394 z" fill="rgb(196,101,42)" transform="translate(0,0)"></path>
<path d="M 1568.26 829.185 C 1608.85 826.326 1620.7 854.027 1628.65 887.127 C 1631.44 898.737 1636.11 912.615 1639.61 924.187 L 1682.35 1063.68 C 1723.37 1086.77 1748.3 1113.33 1768.33 1156.43 C 1780.26 1182.1 1781.77 1205.39 1785.5 1232.87 L 1795.58 1305.56 L 1805.39 1372.93 C 1811.2 1412.58 1821.72 1441.18 1776.21 1460.15 C 1763.05 1465.63 1748.2 1473.02 1734.73 1478.85 C 1740.56 1527.86 1729.86 1544.68 1687.04 1567.55 C 1676.99 1572.89 1667.01 1578.37 1657.12 1583.99 C 1658.27 1642.1 1582.68 1646.75 1541.11 1643.31 C 1533.44 1642.67 1524.27 1641.62 1516.87 1639.51 C 1484.63 1676.4 1457.77 1696.03 1408.17 1678.19 C 1344.54 1655.3 1279.36 1635.16 1215.75 1612.6 C 1212.63 1611.43 1209.9 1609.95 1206.7 1610.37 C 1203.97 1616.94 1198.24 1642.72 1195.99 1651.49 C 1146.22 1630.08 1094.13 1605.12 1044.37 1585.06 C 1040.27 1567 1038.57 1543.32 1034.37 1523.28 L 1138.33 1562.55 C 1142.96 1542.26 1149.43 1520.08 1153.32 1500.21 C 1165.95 1435.67 1193.42 1380.13 1222.4 1321.66 C 1237.85 1290.48 1262.09 1248.8 1271.04 1215.29 C 1285.16 1162.45 1261.04 1094.18 1246.46 1043.26 C 1234.5 1003.46 1222.05 965.242 1210.54 925.932 C 1225.68 920.287 1248.04 915.001 1264.26 910.69 L 1354.5 886.658 L 1502.8 846.98 C 1524.18 841.257 1546.89 834.171 1568.26 829.185 z" fill="rgb(245,241,235)" transform="translate(0,0)"></path>
<path d="M 1579.07 887.179 C 1581.48 888 1593.3 924.108 1595.44 930.087 L 1636.2 1046.4 C 1639.27 1055.13 1645.34 1075.83 1649.46 1082.54 C 1653 1088.3 1673.68 1100.54 1681.06 1106.08 C 1702.94 1122.52 1728.37 1158.49 1736.7 1184.38 C 1744.93 1209.94 1748.93 1253.33 1752.46 1281.75 L 1769.93 1421.7 C 1750.84 1431.3 1728.37 1439.22 1708.34 1448.66 C 1693.55 1411.13 1681.52 1371.29 1666.13 1334.13 C 1653.59 1303.84 1651.28 1284.19 1646.14 1252.22 C 1642.47 1229.94 1639.01 1207.63 1635.76 1185.28 C 1614.82 1189.18 1592.51 1192.1 1571.34 1195.66 L 1360.27 1230.63 C 1363.14 1216.23 1366.02 1202.85 1366.99 1188.13 C 1372.05 1111.54 1338.4 1045.73 1312.09 976.143 C 1382.22 951.029 1453.75 928.893 1524.3 904.941 C 1542.39 898.799 1560.68 892.289 1579.07 887.179 z" fill="rgb(196,101,42)" transform="translate(0,0)"></path>
<path d="M 1336.07 1294.71 C 1340.37 1299.23 1351.68 1316.05 1355.58 1321.72 C 1367.11 1338.46 1379.35 1355.41 1390.3 1372.46 C 1385.97 1401.14 1383.19 1433.9 1380.25 1462.92 C 1375.26 1514.64 1369.72 1566.31 1363.64 1617.91 C 1342.91 1612.05 1315.07 1601.68 1294.25 1594.48 C 1268.95 1584.93 1243.49 1575.83 1217.87 1567.18 C 1226.65 1541.6 1233.61 1515.34 1241.38 1489.52 C 1244.28 1479.89 1250.39 1456.49 1254.35 1448.66 C 1267.88 1422.21 1281.85 1395 1297.11 1369.5 C 1312.03 1344.6 1323.36 1320.64 1336.07 1294.71 z" fill="rgb(196,101,42)" transform="translate(0,0)"></path>
<path d="M 1524.75 1346.3 L 1525.18 1346.6 C 1525.85 1348.53 1525.95 1348.1 1525.74 1349.98 C 1516.98 1429.85 1505.69 1509.46 1497.54 1589.39 C 1495.89 1605.49 1495.85 1617.65 1482.26 1628.53 C 1477.15 1632.62 1473.94 1635.16 1467.94 1638.16 C 1444.81 1649.71 1419.4 1637.75 1396.71 1629.96 C 1391.18 1627.93 1385.61 1626.01 1380 1624.2 C 1382.79 1603.36 1384.08 1575.33 1385.97 1553.44 L 1400.32 1377.63 C 1439.93 1370.12 1484.69 1355.1 1524.75 1346.3 z" fill="rgb(196,101,42)" transform="translate(0,0)"></path>
<path d="M 1621.66 1200.35 L 1624.41 1200.14 C 1626.25 1202.96 1640.37 1290.37 1642.19 1300.43 C 1562.17 1322.52 1479.94 1343.33 1399.57 1364.29 C 1395.58 1357.72 1388.46 1348.45 1383.8 1341.99 L 1340.55 1281.52 C 1345.67 1269.82 1349.07 1260.39 1353.27 1248.33 C 1385.7 1241.72 1419.91 1236.83 1452.57 1230.88 C 1508.84 1220.22 1565.21 1210.04 1621.66 1200.35 z" fill="rgb(196,101,42)" transform="translate(0,0)"></path>
<path d="M 1645.89 1313.11 C 1647.22 1313.37 1647.81 1313.9 1648.51 1315.18 C 1650.79 1319.35 1652.02 1324.95 1653.63 1329.5 C 1660.46 1348.83 1666.14 1368.48 1672.23 1388.04 C 1682.54 1421.17 1696.59 1457.9 1703.72 1491.61 C 1704.91 1497.26 1706.01 1504.77 1703.97 1510.3 C 1699.07 1523.6 1646.5 1546.61 1632.22 1553.88 C 1629.45 1549 1626.05 1541.06 1623.6 1535.75 C 1610.14 1504.41 1597.02 1472.93 1584.24 1441.3 C 1570.38 1407.8 1556.25 1374.69 1543.47 1340.76 C 1549.17 1339.47 1555.07 1337.63 1560.72 1336.07 C 1589.13 1328.22 1617.7 1321.84 1645.89 1313.11 z" fill="rgb(196,101,42)" transform="translate(0,0)"></path>
<path d="M 1535.03 1353.59 C 1541.61 1359.4 1601.19 1516.33 1609.69 1535.75 C 1613.64 1544.76 1626.7 1579.34 1620.09 1588.88 C 1612.19 1600.28 1605.69 1601.22 1593.41 1605.15 C 1566.5 1611.1 1538.51 1613.35 1511.13 1609.63 L 1528.32 1425.15 C 1530.45 1403.14 1531.85 1375.11 1535.03 1353.59 z" fill="rgb(196,101,42)" transform="translate(0,0)"></path>
<path d="M 567.115 778.846 C 575.322 782.513 592.382 794.957 601.265 800.022 C 719.047 867.188 827.659 961.926 875.283 1092.36 C 888.886 1129.62 890.936 1171.9 891.05 1211.28 C 937.278 1219.82 999.08 1235.87 1044.71 1247.67 C 1027.43 1334.32 1009.39 1420.82 990.588 1507.16 L 975.401 1582.9 C 970.827 1605.44 968.409 1634.09 949.049 1648.88 C 929.533 1663.79 909.015 1657.3 887.099 1653.51 C 877.916 1651.92 868.812 1650.23 859.67 1648.61 L 753.347 1629.58 C 734.14 1626.14 714.673 1622.1 695.364 1619.57 C 685.621 1624.44 679.074 1627.64 668.877 1631.56 C 617.879 1647.97 569.217 1650.78 517.884 1632.61 C 454.373 1610.12 390.454 1583.43 327.804 1558.46 C 287.496 1542.39 295.8 1496.69 301.455 1462.04 C 286.434 1457.73 273.052 1447.02 264.671 1433.97 C 246.332 1405.4 251.644 1374.93 258.113 1343.97 C 236.334 1330.54 221.634 1321.46 219.843 1292.7 C 217.172 1249.82 244.39 1206.49 270.898 1175.17 C 235.806 1108.64 288.029 1067.47 338.68 1031.4 C 342.608 1028.61 358.241 1008.12 363.428 1002.3 C 386.462 976.483 409.955 956.676 437.394 935.828 C 426.449 923.695 416.962 910.571 405.164 897.807 C 456.263 858.025 514.326 817.629 567.115 778.846 z" fill="rgb(196,101,42)" transform="translate(0,0)"></path>
<path d="M 566.366 792.803 C 574.672 795.285 603.913 813.725 612.92 819.295 C 582.169 843.16 535.747 870.766 502.356 894.267 C 526.474 915.774 548.895 942.814 572.701 964.337 C 620.632 1007.67 660.825 1054.56 700.822 1105.09 C 741.209 1155.06 768.856 1194.14 834.832 1207.88 C 901.178 1221.69 967.427 1241.57 1033.57 1254.66 C 1016.48 1333.01 999.947 1411.47 983.989 1490.06 L 967.895 1569.12 C 962.512 1596.18 960.075 1648.26 921.715 1647.51 C 904.931 1647.18 883.809 1642 866.797 1638.95 C 829.504 1632.05 792.162 1625.41 754.775 1619.04 C 734.781 1615.81 714.844 1612.24 694.973 1608.33 C 658.787 1625.67 615.724 1638.06 575.502 1633.67 C 516.058 1627.18 454.166 1597.32 398.791 1575.45 L 354.099 1557.82 C 321.395 1544.88 302.788 1537 307.463 1496.02 C 308.986 1482.67 310.685 1468.66 312.313 1455.28 C 296.165 1450.65 281.885 1441.81 273.115 1427.23 C 255.805 1398.45 263.635 1367.61 270.651 1337.46 C 189.821 1306.57 248.095 1219.39 283.556 1176.86 C 253.243 1126.5 279.529 1090.38 320.552 1057.5 C 326.646 1052.61 339.705 1045.94 344.3 1040.72 C 366.491 1015.56 387.173 989.654 413.213 968.159 C 425.983 957.538 438.996 947.982 452.438 938.114 C 441.586 925.083 430.802 911.995 420.086 898.852 C 439.397 886.449 460.599 870.117 479.266 856.358 C 508.146 834.964 537.18 813.778 566.366 792.803 z" fill="rgb(245,241,235)" transform="translate(0,0)"></path>
<path d="M 702.421 1232.48 C 710.842 1238.28 720.076 1248.46 731.028 1255.67 C 794.161 1297.24 870.694 1305.9 943.608 1321.17 C 941.088 1331.19 939.469 1340.75 937.39 1350.81 C 920.241 1433.81 906.3 1517.49 888.339 1600.31 C 847.331 1591.66 801.385 1585.35 759.677 1577.81 C 737.788 1573.86 712.896 1568.69 691.427 1565.52 C 643.666 1588.48 618.983 1594.96 565.129 1588.69 C 528.111 1582.68 490.079 1566.19 454.685 1552.76 L 342.873 1510.8 L 354.016 1444.7 C 368.662 1447.68 386.6 1449.87 401.615 1451.97 C 475.048 1462.24 543.134 1476.38 614.034 1499.2 C 622.172 1479.02 633.192 1439.21 640.545 1416.88 L 702.421 1232.48 z" fill="rgb(196,101,42)" transform="translate(0,0)"></path>
<path d="M 370.856 1069.76 C 376.859 1073.11 404.721 1097.73 411.966 1103.92 L 502.032 1180.8 C 513.797 1190.79 538.522 1212.69 550.48 1220.79 C 540.432 1260.4 531.926 1301.51 523.444 1341.51 L 504.448 1326.85 C 484.097 1311.81 464.25 1295.39 444.433 1279.59 L 379.854 1228.49 C 361.729 1213.91 333.365 1192.86 318.298 1176.71 C 284.99 1141.01 344.274 1090.97 370.856 1069.76 z" fill="rgb(196,101,42)" transform="translate(0,0)"></path>
<path d="M 478.109 970.881 C 481.542 973.076 500.984 993.858 504.845 998.208 C 525.983 1022.02 551.003 1047.37 570.774 1071.96 C 587.114 1092.27 602.627 1119.29 619.876 1139.65 C 634.963 1157.47 651.182 1173.26 666.186 1191.3 L 571.051 1212.7 L 560.285 1215.61 C 539.125 1195.03 511.775 1172.05 489.218 1151.99 C 455.801 1122.27 419.041 1088.3 384.14 1060.84 C 411.947 1031.91 446.591 995.656 478.109 970.881 z" fill="rgb(196,101,42)" transform="translate(0,0)"></path>
<path d="M 671.084 1200.17 C 674.612 1199.75 687.211 1216.9 690.158 1220.47 L 606.375 1484.35 C 586.612 1478.67 566.755 1473.33 546.813 1468.32 C 535.284 1464.85 521.674 1461.58 509.898 1458.43 C 516.878 1425.65 525.758 1392.48 532.891 1359.35 C 541.972 1317.16 550.503 1272.98 561.214 1231.41 C 597.754 1220.7 634.378 1210.29 671.084 1200.17 z" fill="rgb(196,101,42)" transform="translate(0,0)"></path>
<path d="M 311.615 1324.3 C 336.977 1327.87 364.091 1333.57 389.797 1337.46 C 433.133 1344.02 476.682 1351 519.822 1358.71 C 512.673 1386.82 506.452 1417.66 499.989 1446.22 C 498.938 1451.19 499.746 1451.01 496.871 1454.36 C 488.191 1456.73 482.927 1452.96 474.517 1451.2 C 468.104 1449.86 461.582 1448.78 455.119 1447.69 C 425.064 1442.7 395.066 1437.39 365.128 1431.74 C 306.044 1420.53 292.386 1425.77 305.797 1359.18 C 307.942 1348.52 309.769 1335.27 311.615 1324.3 z" fill="rgb(196,101,42)" transform="translate(0,0)"></path>
<path d="M 315.155 1197.1 C 332.207 1211.81 351.373 1225.51 369.11 1239.49 C 414.53 1275.28 462.144 1308.56 507.623 1344.12 C 495.366 1341.78 483.079 1339.61 470.763 1337.61 C 414.02 1329.9 353.758 1318.22 297.245 1308.14 C 235.465 1297.11 293.736 1220.53 315.155 1197.1 z" fill="rgb(196,101,42)" transform="translate(0,0)"></path>
<path d="M 1054.14 161.37 C 1077.01 161.311 1090.39 174.004 1100.89 192.696 C 1132.08 195.078 1150.08 206.57 1157.65 238.179 C 1185.18 229.532 1215.45 222.443 1241.24 239.811 C 1269.27 258.686 1279.77 284.849 1284.18 316.952 C 1339.65 328.988 1362.58 366.709 1369.51 421.643 C 1370.72 428.629 1369.1 447.798 1371.94 453.559 C 1396.78 504.038 1407.86 546.879 1414.26 603.149 C 1431.63 599.472 1448.95 595.559 1466.22 591.409 C 1467.51 608.08 1467.6 625.749 1468.82 642.572 C 1472.48 692.753 1474.65 744.04 1479.22 794.02 C 1467.27 800.376 1450.91 806.891 1438.19 812.416 L 1373 840.721 C 1346.53 852.074 1310.35 869.451 1283.9 878.075 C 1264.72 884.294 1244.96 888.533 1224.92 890.726 C 1164.01 897.377 1073.47 887.941 1021.39 855.158 C 998.847 840.971 977.866 821.711 956.908 804.883 L 948.604 811.768 C 933.317 824.463 917.929 839.289 903.015 852.753 L 800.914 945.427 C 782.048 926.013 757.265 894.382 739.379 873.324 L 628.726 743.146 C 613.105 724.783 597.289 706.586 581.281 688.559 C 567.374 672.656 548.626 655.031 546.485 633.14 C 544.132 609.085 560.599 593.788 575.656 577.781 C 584.579 568.295 593.577 558.745 602.537 549.232 L 668.057 479.102 C 685.156 461.05 704.794 441.355 720.948 422.775 C 726.229 387.836 743.625 352.433 765.639 325.032 C 780.506 306.271 798.121 289.862 817.887 276.361 C 839.528 261.749 862.31 251.786 885.601 240.354 L 959.637 203.628 C 982.855 192.301 1031.05 163.928 1054.14 161.37 z" fill="rgb(196,101,42)" transform="translate(0,0)"></path>
<path d="M 1055.11 172.399 C 1076.65 172.517 1085.43 184.005 1093.73 202.481 C 1134.62 206.672 1143.68 213.791 1148.51 255.108 C 1184.99 234.548 1228.86 230.425 1255.52 268.21 C 1269.86 288.537 1272.18 302.34 1274.74 326.421 C 1289.91 329.119 1308.51 334.254 1321.08 343.763 C 1345.45 362.198 1355.92 394.531 1359.43 423.747 C 1360.32 431.193 1359.64 449.819 1361.79 455.599 C 1368.1 472.63 1376.6 488.505 1382.98 505.918 C 1396.33 542.294 1400.59 577.517 1406 615.513 C 1422.21 611.53 1440.3 608.061 1456.75 604.596 C 1456.8 612.94 1456.99 621.799 1457.7 630.112 C 1462.08 681.693 1461.63 736.672 1468.16 787.957 C 1454.31 793.474 1441.86 799.939 1427.29 805.287 C 1423.96 790.149 1422.05 764.869 1420.49 748.835 C 1418.38 727.261 1415.57 702.366 1414.6 680.873 C 1377.9 691.41 1340.28 700.571 1304.03 711.314 C 1252.17 726.678 1216.5 739.567 1161.23 738.264 C 1087.37 736.522 1035.35 736.326 971.517 779.308 C 953.156 792.28 928.964 815.51 911.764 830.873 C 874.957 863.748 839.048 898.008 801.609 930.23 C 789.366 916.989 775.723 900.428 763.691 886.604 C 724.467 841.128 685.556 795.382 646.963 749.369 C 629.938 729.195 612.813 709.106 595.587 689.103 C 577.257 667.848 541.107 636.307 564.086 607.405 C 581.887 585.016 604.458 562.577 624.536 541.876 C 659.668 505.654 693.24 464.576 729.45 429.805 C 735.972 391.373 752.904 355.464 778.405 325.981 C 820.785 277.379 857.816 266.535 912.308 238.941 L 991.123 199.862 C 1008.75 190.997 1036.29 173.726 1055.11 172.399 z" fill="rgb(245,241,235)" transform="translate(0,0)"></path>
<path d="M 1056.61 209.927 C 1069.07 206.814 1076.49 227.855 1078.74 228.571 C 1106.85 237.516 1119.09 252.97 1128.79 279.848 C 1092.92 295.728 1057.21 311.969 1021.66 328.57 C 986.551 345.138 959.906 357.515 929 381.785 C 904.276 401.2 876.499 418.596 851.707 438.24 C 894.355 491.531 942.999 543.072 986.515 595.966 C 1003 615.998 1020.91 634.585 1037.04 655.369 C 991.481 662.022 941.108 688.738 903.776 715.059 C 878.478 732.895 855.298 754.969 832.601 775.987 L 794.972 812.759 C 768.073 781.652 731.794 747.142 703.053 716.962 C 672.6 684.983 641.339 652.232 610.388 620.815 C 631.896 600.911 663.371 562.687 684.275 539.741 L 735.858 483.052 C 743.421 474.767 757.715 459.784 763.727 450.873 C 766.818 446.293 771.672 423.495 774.417 415.527 C 786.04 381.801 805.767 349.667 833.323 326.558 C 858.121 305.762 897.295 289.379 927.286 274.313 C 970.22 252.503 1013.33 231.04 1056.61 209.927 z" fill="rgb(196,101,42)" transform="translate(0,0)"></path>
<path d="M 1325.71 484.119 C 1331.55 490.419 1361.58 606.304 1363.93 620.476 C 1312.16 629.866 1260.72 643.449 1208.72 651.595 C 1199.94 652.971 1184.65 652.4 1175.51 652.471 L 1121.5 652.824 L 1081.52 653.035 C 1096.68 624.699 1113.41 581.649 1127.22 550.783 C 1140.89 545.034 1164.77 538.693 1179.78 533.227 C 1227.53 515.842 1278.11 501.253 1325.71 484.119 z" fill="rgb(196,101,42)" transform="translate(0,0)"></path>
<path d="M 957.485 374.786 C 963.925 377.437 1054.57 482.978 1066.76 496.634 C 1082.98 514.654 1099.4 532.49 1116.02 550.138 C 1108.03 564.637 1100.89 582.079 1094.25 597.4 C 1086.31 615.731 1077.96 634.459 1070.73 653.025 C 1065.32 653.524 1059.7 653.8 1054.26 654.142 C 1050.54 650.141 1046.64 645.495 1043.02 641.344 L 919.558 495.8 C 902.849 476.21 884.476 456.554 868.384 436.565 C 898.227 415.665 927.334 396.33 957.485 374.786 z" fill="rgb(196,101,42)" transform="translate(0,0)"></path>
<path d="M 1277.12 364.001 C 1313.65 363.886 1320.01 434.167 1322.23 461.033 C 1301.65 470.796 1263.63 484.624 1241.35 493.266 L 1122.03 539.95 L 1107.29 523.042 C 1085.63 497.163 1063.07 472.146 1041.54 446.038 C 1067.58 437.057 1094.01 426.575 1120.12 417.33 C 1172.33 399.192 1224.67 381.415 1277.12 364.001 z" fill="rgb(196,101,42)" transform="translate(0,0)"></path>
<path d="M 1197.88 275.026 C 1226.78 270.868 1247.78 328.087 1243.88 350.158 C 1242.87 355.879 1190.2 374.831 1183.01 377.865 C 1133.64 398.695 1081.38 414.897 1032.24 436.066 L 1024.5 428.186 C 1005.03 408.949 987.42 386.768 968.398 366.855 C 983.59 358.73 1027.16 342.317 1044.96 335.127 C 1095.58 314.203 1146.56 294.166 1197.88 275.026 z" fill="rgb(196,101,42)" transform="translate(0,0)"></path>
<metadata><recraft-signature>{"signed_by": "recraft", "signature_b64": "tI8eml1vlvMixiMtosYQA2VX5pMzPRIR/u9k8vCAqGgb2pDdYFkk9jba0s7b1em2pnVrvkoGN0a/CzLtdk48DA==", "signing_algo": "Ed25519", "generation_timestamp": 1774143470, "identifier": "8223728d-bb58-4949-a75b-1a6203762047"}</recraft-signature></metadata></svg>