<svg xmlns="http://www.w3.org/2000/svg" height="1024" preserveAspectRatio="none" style="display: block;" version="1.1" viewBox="0 0 2048 2048" width="1024">
<path d="M 510.683 282.592 C 658.935 375.4 836.316 531.623 925.143 683.886 C 961.467 746.3 988.058 813.889 1004 884.322 C 1008.88 905.655 1012.04 927.348 1013.43 949.189 L 1011.43 951.714 C 978.548 813.901 851.083 683.8 742.359 599.653 C 804.388 722.852 857.711 848.666 893.323 982.266 C 899.004 1003.29 903.878 1024.53 907.935 1045.93 C 910.33 1058.23 912.648 1073.9 915.444 1085.73 C 847.152 1042.22 783.815 1016.95 703.934 1000.56 C 689.263 997.551 661.087 992.51 646.66 991.744 L 647.869 995.766 C 680.85 1020.97 708.606 1042.66 738.865 1071.43 C 854.664 1181.55 938.02 1321.42 980.236 1475.51 C 992.999 1522.09 1005.36 1566.72 1010.81 1615.04 C 1011.68 1622.73 1013.15 1631.26 1013.11 1638.94 C 1014.13 1645.65 1014.19 1650.17 1014.36 1656.94 C 1013.43 1654.18 1012.05 1650.54 1011.54 1647.79 C 999.39 1601.25 976.446 1550.37 953.911 1507.98 C 848.016 1308.77 678.84 1160.5 488.869 1044.21 C 480.711 1038.04 458.025 1025.13 448.299 1019.34 C 416.896 1000.53 385.096 982.398 352.92 964.946 C 345.317 959.898 330.26 952.37 322.093 948.206 C 300.527 937.118 278.635 926.678 256.444 916.899 C 242.166 910.514 223.802 901.607 209.576 896.416 L 205.088 894.393 L 204.843 893.42 L 208.438 892.822 C 256.297 885.648 304.293 883.677 352.416 879.419 C 353.419 816.739 352.615 751.877 352.744 688.988 C 399.238 688.583 440.734 690.666 486.672 697.617 L 486.699 576.151 C 532.757 583.963 592.905 607.664 635.793 626.492 C 647.992 631.848 661.885 641.174 674.613 646.544 L 675.609 646.953 C 635.712 534.891 571.646 386.003 510.683 282.592 z" fill="rgb(245,241,235)" transform="translate(0,0)"></path>
<path d="M 486.699 576.151 C 532.757 583.963 592.905 607.664 635.793 626.492 C 647.992 631.848 661.885 641.174 674.613 646.544 L 675.609 646.953 C 691.375 686.115 702.678 728.367 715.514 768.651 C 717.379 774.504 719.371 781.036 720.912 786.935 C 732.221 823.301 744.048 875.137 752.629 912.851 C 671.13 890.642 572.102 876.176 487.073 876.941 C 454.977 876.713 422.88 877.009 390.794 877.828 C 379.807 878.169 363.224 878.36 352.416 879.419 C 353.419 816.739 352.615 751.877 352.744 688.988 C 399.238 688.583 440.734 690.666 486.672 697.617 L 486.699 576.151 z" fill="rgb(196,101,42)" transform="translate(0,0)"></path>
<path d="M 487.355 697.517 C 540.581 702.599 621.59 729.535 669.216 754.894 C 684.891 763.241 705.594 776.96 720.912 786.935 C 732.221 823.301 744.048 875.137 752.629 912.851 C 671.13 890.642 572.102 876.176 487.073 876.941 C 487.471 817.134 487.565 757.325 487.355 697.517 z" fill="rgb(37,31,31)" transform="translate(0,0)"></path>
<path d="M 647.869 995.766 C 647.187 995.254 642.552 992.389 643.321 991.412 C 644.392 990.986 645.558 991.433 646.66 991.744 L 647.869 995.766 z" fill="rgb(40,31,35)" transform="translate(0,0)"></path>
<path d="M 1035.63 950.292 C 1037.12 923.377 1041.29 901.128 1047.31 875.26 C 1091.21 686.782 1209.64 542.205 1354.19 419.233 C 1408.6 372.942 1476.51 320.182 1538.03 282.42 C 1472.19 398.731 1416.83 520.667 1372.61 646.788 C 1379.73 644.982 1392.69 636.548 1399.95 633.06 C 1449.78 609.126 1507.09 586.508 1561.62 576.167 C 1560.27 610.207 1560 663.16 1561.38 697.424 C 1595.01 691.403 1659.29 688.66 1694.1 689.053 L 1694.17 879.175 C 1733.23 882.912 1772.46 884.801 1811.45 889.442 C 1822.99 890.815 1835.11 892.521 1846.65 893.453 C 1791.07 915.684 1747.53 936.839 1694.69 964.347 C 1666.81 979.296 1637.91 996.915 1610.3 1012.65 C 1599.3 1018.92 1569.85 1035.94 1560.73 1043.07 C 1516.43 1069.87 1473.49 1098.84 1432.05 1129.89 C 1286.3 1238.78 1163.13 1367.62 1082.46 1532.6 C 1067.18 1563.85 1048.35 1606.6 1039.76 1640.24 C 1038.72 1644.26 1037.79 1648.31 1036.99 1652.39 C 1037.04 1654.26 1037.24 1654.37 1036.37 1655.96 L 1036.6 1655.79 C 1033.61 1656.8 1035.31 1646.41 1035.58 1645.09 C 1036.94 1624.73 1039.17 1604.44 1042.26 1584.27 C 1079.16 1345.49 1210.51 1131.56 1406.76 990.603 C 1381.25 992.623 1356.52 997.977 1331.77 1003.55 C 1254 1021.06 1199.48 1043.1 1133 1085.56 C 1139.98 1049.51 1146.67 1014.22 1156.17 978.69 C 1191.71 845.732 1244.72 723.24 1304.98 599.983 C 1283.9 619.269 1257.68 638.15 1236.31 657.786 C 1147.82 739.099 1067.2 833.1 1037.66 951.879 C 1036.46 951.556 1036.18 951.384 1035.63 950.292 z" fill="rgb(245,241,235)" transform="translate(0,0)"></path>
<path d="M 1372.61 646.788 C 1379.73 644.982 1392.69 636.548 1399.95 633.06 C 1449.78 609.126 1507.09 586.508 1561.62 576.167 C 1560.27 610.207 1560 663.16 1561.38 697.424 C 1595.01 691.403 1659.29 688.66 1694.1 689.053 L 1694.17 879.175 C 1652.14 876.1 1603.26 876.599 1560.97 876.926 C 1478.62 877.39 1375.01 890.347 1296.4 912.867 C 1298.94 893.97 1305.99 867.688 1310.82 848.556 C 1315.65 829.467 1321.37 805.434 1327.34 787.228 C 1330.31 774.686 1335.57 758.469 1339.32 745.941 C 1349.21 712.498 1360.31 679.425 1372.61 646.788 z" fill="rgb(196,101,42)" transform="translate(0,0)"></path>
<path d="M 1327.34 787.228 C 1397.78 739.121 1475.88 707.129 1561.16 697.644 L 1560.97 876.926 C 1478.62 877.39 1375.01 890.347 1296.4 912.867 C 1298.94 893.97 1305.99 867.688 1310.82 848.556 C 1315.65 829.467 1321.37 805.434 1327.34 787.228 z" fill="rgb(37,31,31)" transform="translate(0,0)"></path>
<path d="M 1035.58 1645.09 C 1035.99 1647.77 1036.38 1649.73 1036.99 1652.39 C 1037.04 1654.26 1037.24 1654.37 1036.37 1655.96 L 1036.6 1655.79 C 1033.61 1656.8 1035.31 1646.41 1035.58 1645.09 z" fill="rgb(101,92,94)" transform="translate(0,0)"></path>
<path d="M 352.92 964.946 C 385.096 982.398 416.896 1000.53 448.299 1019.34 C 458.025 1025.13 480.711 1038.04 488.869 1044.21 C 487.571 1049.48 488.043 1072.86 488.038 1079.83 L 487.982 1153.79 L 487.898 1339.22 C 487.898 1372.26 487.343 1408.06 488.165 1440.95 C 661.842 1445.24 880.231 1535.82 975.74 1686.71 C 985.231 1701.7 1001.03 1727.22 1007.37 1743.47 C 1011.6 1751.27 1013.63 1756.49 1016.88 1764.85 C 1012.3 1759.76 1006.48 1753.66 1002.19 1748.5 C 963.975 1713.7 940.814 1694.15 893.507 1669.68 C 732.195 1586.25 526.581 1564.87 352.752 1617.62 L 352.92 964.946 z" fill="rgb(196,101,42)" transform="translate(0,0)"></path>
<path d="M 1560.73 1043.07 C 1569.85 1035.94 1599.3 1018.92 1610.3 1012.65 C 1637.91 996.915 1666.81 979.296 1694.69 964.347 L 1693.72 1384.89 L 1693.97 1534.15 C 1694.04 1560.01 1693.3 1592.02 1694.62 1617.35 C 1494.98 1553.72 1171.75 1597.02 1031.38 1765.85 C 1084.92 1634.15 1185.5 1550.88 1314.39 1496.69 C 1378.53 1469.72 1491.36 1438.9 1560.91 1441.4 L 1561.04 1165.51 L 1560.96 1083.47 C 1560.96 1072.97 1561.57 1052.99 1560.73 1043.07 z" fill="rgb(196,101,42)" transform="translate(0,0)"></path>
<path d="M 1013.43 949.189 C 1014.31 951.959 1014.09 958.161 1014.37 961.707 L 1013.03 963.49 C 1012.3 959.412 1011.88 955.81 1011.43 951.714 L 1013.43 949.189 z" fill="rgb(185,179,180)" transform="translate(0,0)"></path>
<path d="M 1035.63 950.292 C 1036.18 951.384 1036.46 951.556 1037.66 951.879 C 1037.35 954.097 1037.07 956.257 1037.02 958.499 L 1034.4 961.749 C 1034.87 958.476 1034.9 952.271 1035.63 950.292 z" fill="rgb(185,179,180)" transform="translate(0,0)"></path>
<path d="M 1037.02 958.499 C 1037.01 958.932 1037.29 965.491 1035.79 965.643 C 1035.1 965.713 1034.74 963.557 1034.62 962.935 L 1034.4 961.749 L 1037.02 958.499 z" fill="rgb(101,92,94)" transform="translate(0,0)"></path>
<path d="M 1014.37 961.707 C 1014.61 962.79 1015.35 965.37 1014.03 966.121 C 1013 965.777 1013.17 964.398 1013.03 963.49 L 1014.37 961.707 z" fill="rgb(101,92,94)" transform="translate(0,0)"></path>
<metadata><recraft-signature>{"signed_by": "recraft", "signature_b64": "16mQstlrgAHqvFN1NSWRg3XPLuvnrez+OIiPwG82Y6p5q4ixN7Onwgf5Nt68zU9S3UYHQTnFFPVfKYqJpizmAg==", "signing_algo": "Ed25519", "generation_timestamp": 1774143516, "identifier": "e1a13190-f439-4b66-8039-9d2dca64d423"}</recraft-signature></metadata></svg>