<svg xmlns="http://www.w3.org/2000/svg" height="1024" preserveAspectRatio="none" style="display: block;" version="1.1" viewBox="0 0 2048 2048" width="1024">
<path d="M 1239.49 334.764 C 1254.56 322.725 1275.44 302.252 1289.8 288.731 L 1368.98 213.73 C 1381.96 201.268 1399.41 183.715 1413.1 172.488 L 1413 424.458 C 1390.72 446.16 1366.14 468.006 1344.5 489.916 C 1346.65 504.316 1350.57 520.957 1353.61 535.493 L 1371.69 621.42 C 1373.98 632.545 1378.69 652.157 1379.99 662.894 C 1382.89 671.724 1386.26 689.967 1388.33 699.965 C 1393.38 725.622 1398.61 751.245 1404 776.833 C 1405.07 781.743 1409.49 803.072 1411.15 806.969 L 1411.35 810.205 C 1386.84 811.151 1361.35 810.044 1336.75 810.405 C 1321.28 809.685 1301.08 810.024 1285.54 810.64 C 1291 851.252 1303.01 902.697 1311.49 943.568 C 1323.14 1001.63 1335.26 1059.6 1347.84 1117.46 C 1332.81 1130.86 1315.99 1148.1 1301.33 1162.36 L 1210.79 1250.57 C 1177.63 1282.39 1144.64 1314.38 1111.82 1346.55 C 1091.5 1366.13 1069.83 1385.92 1050.32 1406.22 L 1049.97 1483.09 C 1073.77 1460.68 1099.28 1433.69 1122.68 1410.41 L 1266.99 1266.31 C 1287.52 1245.59 1308.16 1224.98 1328.92 1204.47 C 1338.12 1195.35 1352.18 1180.59 1361.67 1172.46 C 1371.61 1221.2 1382.36 1274.34 1394.41 1322.54 C 1359.55 1353.29 1320.96 1393.98 1287.02 1426.68 C 1259.7 1452.98 1219.25 1489.98 1195.05 1517.55 C 1221.9 1517.72 1248.76 1517.57 1275.61 1517.11 C 1293.33 1500.69 1311.19 1483.19 1328.29 1466.11 C 1369.74 1424.71 1413.33 1384.06 1453.68 1341.63 C 1444.18 1295.08 1431.99 1247.91 1421.51 1201.53 C 1416.63 1179.95 1407.48 1149.38 1404.14 1128.26 C 1418.78 1114.46 1451.35 1078.12 1464.71 1068.77 L 1465.75 1068.19 C 1487.18 1164.44 1505.54 1262.03 1527.51 1358.14 C 1515.76 1370.42 1503.16 1382.49 1490.84 1394.24 C 1443.7 1439.16 1398.57 1486.47 1351.34 1531.26 C 1384.06 1552.35 1420.34 1570.86 1452.98 1591.49 L 1452.95 1689.04 C 1476.22 1705.41 1509.31 1724.8 1534.03 1740.06 L 1534.08 1874.7 L 514.115 1874.43 C 514.411 1829.56 514.401 1784.69 514.082 1739.82 L 597.314 1689.85 C 598.803 1663.36 598.116 1617.49 596.999 1590.7 C 628.366 1571.21 664.45 1550.28 696.482 1531.71 L 591.09 1427.19 C 571.199 1407.37 541.191 1376.31 520.77 1358.97 C 535.851 1290.6 550.412 1222.12 564.451 1153.53 C 569.401 1129.52 579.033 1091.07 582.366 1068.2 C 586.529 1069.77 636.466 1120.95 643.414 1127.9 C 634.971 1161.49 627.884 1197.57 619.811 1231.58 C 611.151 1268.07 601.694 1306.19 594.08 1342.72 C 633.822 1382.81 673.889 1422.58 714.278 1462.02 C 726.614 1474.16 759.526 1508.12 772.183 1517.39 C 799.335 1518.3 828.763 1517.86 856.088 1517.93 C 831.733 1492.46 798.979 1462.5 773.205 1437.47 L 655.231 1321.45 C 659.448 1304.5 662.962 1285.31 666.572 1268.01 L 686.782 1171.6 C 702.522 1185.57 720.76 1204.6 735.854 1219.59 C 761.897 1244.96 787.613 1270.66 812.995 1296.69 C 873.257 1358.11 936.933 1422.54 998.323 1482.51 C 998.007 1456.89 997.927 1431.25 998.081 1405.62 C 969.639 1379.41 941.561 1351.44 913.87 1324.43 C 877.12 1289.08 840.648 1253.44 804.457 1217.51 C 786.57 1199.68 768.576 1181.95 750.476 1164.33 C 733.863 1148.26 715.575 1131.29 700.248 1114.15 C 718.599 1031.6 734.689 948.614 752.071 865.845 C 755.861 847.795 759.558 829.161 762.172 810.915 C 747.677 809.875 724.443 810.627 709.61 810.854 L 709.147 810.966 C 704.316 810.087 689.251 810.559 683.563 810.625 C 667.966 810.809 653.031 811.076 637.4 810.538 L 638.274 806.148 C 648.561 759.896 658.242 713.512 667.317 667.008 L 668.154 662.026 C 681.557 605.332 692.276 547.622 705.12 490.754 C 683.678 468.465 658.22 447.389 635.393 423.792 L 635.148 271.713 C 635.167 239.233 634.676 205.104 635.517 172.729 C 653.678 188.996 670.475 206.32 688.206 222.814 C 728.447 260.246 767.485 299.307 808.999 335.287 C 877.21 282.99 933.171 262.18 1018.52 256.852 L 1023.35 257.018 C 1105.45 257.186 1175.93 283.48 1239.49 334.764 z" fill="rgb(107,63,160)" transform="translate(0,0)"></path>
<path d="M 1239.49 334.764 C 1254.56 322.725 1275.44 302.252 1289.8 288.731 L 1368.98 213.73 C 1381.96 201.268 1399.41 183.715 1413.1 172.488 L 1413 424.458 C 1390.72 446.16 1366.14 468.006 1344.5 489.916 C 1346.65 504.316 1350.57 520.957 1353.61 535.493 L 1371.69 621.42 C 1373.98 632.545 1378.69 652.157 1379.99 662.894 C 1375.08 660.963 1322.38 661.834 1313.63 661.771 C 1304.06 661.734 1294.65 661.641 1285.08 662.043 C 1268.48 660.988 1240.31 662.328 1222.04 662.005 C 1202.04 662.075 1180.53 661.682 1160.71 662.193 C 1153.61 663.941 1140.04 662.515 1132.82 661.6 C 1124.5 662.521 1110.4 662.082 1101.47 662.067 L 1049.12 662.049 C 1040.47 662.553 1032.45 662.341 1023.83 662.178 C 1022.73 647.323 1023.14 626.649 1023.07 611.53 L 1022.99 521.427 L 1023.35 257.018 C 1105.45 257.186 1175.93 283.48 1239.49 334.764 z" fill="rgb(107,63,160)" transform="translate(0,0)"></path>
<path d="M 1048.95 424.472 C 1096.94 431.297 1140.25 456.896 1169.37 495.643 C 1183.74 515.207 1194.11 537.42 1199.86 561.005 C 1169.54 579.307 1145.95 596.827 1134.42 633.211 C 1131.88 641.229 1132.61 652.901 1132.82 661.6 C 1124.5 662.521 1110.4 662.082 1101.47 662.067 L 1049.12 662.049 L 1048.95 424.472 z" fill="rgb(245,241,235)" transform="translate(0,0)"></path>
<path d="M 1049.87 313.71 C 1132.74 323.981 1195.6 356.43 1248.33 422.502 C 1291.38 476.449 1305.43 536.26 1309.1 603.222 C 1310.14 622.28 1312.8 642.112 1313.63 661.771 C 1304.06 661.734 1294.65 661.641 1285.08 662.043 C 1280.19 658.378 1278.27 646.375 1276.55 639.739 C 1270.5 616.962 1264.6 594.143 1258.87 571.282 C 1253.53 549.664 1248.88 527.167 1240.33 506.74 C 1211.31 437.435 1145.21 386.045 1071.7 371.995 C 1064.97 370.709 1056.75 369.048 1049.93 368.788 C 1049.91 350.531 1049.69 331.935 1049.87 313.71 z" fill="rgb(245,241,235)" transform="translate(0,0)"></path>
<path d="M 1160.71 662.193 C 1175.07 649.095 1199.24 625.377 1213.39 614.139 C 1216.71 630.028 1219.13 646.068 1222.04 662.005 C 1202.04 662.075 1180.53 661.682 1160.71 662.193 z" fill="rgb(245,241,235)" transform="translate(0,0)"></path>
<path d="M 1359.91 299.941 C 1361.94 302.215 1361.74 389.4 1361.23 399.25 C 1347.82 411.686 1334.47 424.195 1321.19 436.776 C 1316.2 428.129 1311.09 419.551 1305.87 411.045 C 1296.65 396.543 1288.85 386.477 1278.17 373.271 C 1301.44 350.888 1335.34 320.54 1359.91 299.941 z" fill="rgb(245,241,235)" transform="translate(0,0)"></path>
<path d="M 635.517 172.729 C 653.678 188.996 670.475 206.32 688.206 222.814 C 728.447 260.246 767.485 299.307 808.999 335.287 C 877.21 282.99 933.171 262.18 1018.52 256.852 C 1017.79 308.553 1018.6 358.991 1018.77 410.523 L 1017.96 662.063 L 997.017 662.312 C 983.696 661.843 927.509 663.067 919.459 661.097 C 916.794 660.555 917.803 660.209 916.024 661.247 C 911.541 662.22 891.463 661.932 885.444 661.911 C 866.678 662.779 843.863 662.098 824.793 662.055 C 806.707 662.694 785.646 662.106 767.341 662.046 C 756.674 662.503 744.598 662.166 733.827 662.106 C 712.117 661.833 689.902 662.034 668.154 662.026 C 681.557 605.332 692.276 547.622 705.12 490.754 C 683.678 468.465 658.22 447.389 635.393 423.792 L 635.148 271.713 C 635.167 239.233 634.676 205.104 635.517 172.729 z" fill="rgb(107,63,160)" transform="translate(0,0)"></path>
<path d="M 850.313 561.745 C 855.984 521.816 884.266 481.654 916.407 458.22 C 943.139 438.729 965.449 431.157 997.001 424.516 L 997.017 662.312 C 983.696 661.843 927.509 663.067 919.459 661.097 C 920.674 633.285 913.659 615.938 894.952 594.655 C 882.58 580.579 866.574 570.789 850.313 561.745 z" fill="rgb(245,241,235)" transform="translate(0,0)"></path>
<path d="M 733.827 662.106 C 736.021 641.713 738.645 620.433 739.551 599.973 C 743.355 514.086 778.39 430.739 846.823 375.387 C 889.604 340.51 941.707 319.004 996.633 313.551 L 996.533 369.313 C 932.581 377.634 875.413 407.935 835.857 459.411 C 801.995 503.477 799.867 534.058 787.625 584.065 C 781.032 610.102 774.271 636.096 767.341 662.046 C 756.674 662.503 744.598 662.166 733.827 662.106 z" fill="rgb(245,241,235)" transform="translate(0,0)"></path>
<path d="M 834.566 613.444 C 847.58 625.444 874.477 649.762 885.444 661.911 C 866.678 662.779 843.863 662.098 824.793 662.055 C 825.387 659.546 825.689 658.004 826.152 655.511 L 832.164 624.012 C 832.738 620.972 833.39 617.957 834.179 614.965 L 834.566 613.444 z" fill="rgb(245,241,235)" transform="translate(0,0)"></path>
<path d="M 690.749 298.901 C 713.581 319.263 750.209 351.847 770.356 373.176 C 761.234 385.297 751.765 397.531 743.537 410.247 C 737.888 419.322 733.66 426.548 728.574 436.003 C 716.719 425.709 700.858 410.301 690.175 398.828 L 689.95 333.753 C 689.923 325.121 689.486 306.791 690.749 298.901 z" fill="rgb(245,241,235)" transform="translate(0,0)"></path>
<path d="M 1018.52 256.852 L 1023.35 257.018 L 1022.99 521.427 L 1023.07 611.53 C 1023.14 626.649 1022.73 647.323 1023.83 662.178 C 1032.45 662.341 1040.47 662.553 1049.12 662.049 L 1101.47 662.067 C 1110.4 662.082 1124.5 662.521 1132.82 661.6 C 1140.04 662.515 1153.61 663.941 1160.71 662.193 C 1180.53 661.682 1202.04 662.075 1222.04 662.005 C 1240.31 662.328 1268.48 660.988 1285.08 662.043 C 1294.65 661.641 1304.06 661.734 1313.63 661.771 C 1322.38 661.834 1375.08 660.963 1379.99 662.894 C 1382.89 671.724 1386.26 689.967 1388.33 699.965 C 1393.38 725.622 1398.61 751.245 1404 776.833 C 1405.07 781.743 1409.49 803.072 1411.15 806.969 L 1411.35 810.205 C 1386.84 811.151 1361.35 810.044 1336.75 810.405 C 1321.28 809.685 1301.08 810.024 1285.54 810.64 C 1266.24 809.465 1232.55 810.962 1212.03 811.186 L 1208.81 811.169 C 1194.85 809.96 1159.93 811.061 1144.22 811.114 L 1137.89 811.222 L 1137.77 811.99 C 1134.13 820.658 1140.7 823.495 1133.25 830.036 C 1132.94 824.067 1133.05 817.152 1133 811.099 C 1110.98 811.164 1071.07 812.419 1050.19 810.727 C 1043.3 811.479 1030.35 811.141 1023.01 811.166 L 1023.13 1442 C 1023.93 1535.81 1024.06 1629.63 1023.53 1723.44 C 1023.66 1757.52 1023.61 1791.6 1023.38 1825.67 C 1023.37 1833.81 1025.04 1870.82 1021.59 1874.57 L 1022.7 1873.92 L 1020.33 1873.92 C 1017.54 1869.91 1018.56 1840.35 1018.47 1833.06 C 1017.95 1798.16 1017.96 1763.25 1018.5 1728.36 C 1018.94 1667.2 1018.94 1606.03 1018.5 1544.87 L 1017.92 811.108 L 996.958 811.214 C 971.091 810.871 945.221 810.802 919.353 811.007 C 918.594 814.912 918.718 830.046 918.397 835.816 C 915.483 832.356 920.999 824.932 916.892 813.88 L 917.349 816.534 C 915.314 813.672 916.182 815.031 915.822 810.799 L 915.059 811.039 C 910.728 810.812 908.249 810.833 903.921 811.138 L 903.201 810.924 C 856.411 811.175 809.619 811.098 762.83 810.692 L 762.172 810.915 C 747.677 809.875 724.443 810.627 709.61 810.854 L 709.147 810.966 C 704.316 810.087 689.251 810.559 683.563 810.625 C 667.966 810.809 653.031 811.076 637.4 810.538 L 638.274 806.148 C 648.561 759.896 658.242 713.512 667.317 667.008 L 668.154 662.026 C 689.902 662.034 712.117 661.833 733.827 662.106 C 744.598 662.166 756.674 662.503 767.341 662.046 C 785.646 662.106 806.707 662.694 824.793 662.055 C 843.863 662.098 866.678 662.779 885.444 661.911 C 891.463 661.932 911.541 662.22 916.024 661.247 C 917.803 660.209 916.794 660.555 919.459 661.097 C 927.509 663.067 983.696 661.843 997.017 662.312 L 1017.96 662.063 L 1018.77 410.523 C 1018.6 358.991 1017.79 308.553 1018.52 256.852 z" fill="rgb(82,10,126)" transform="translate(0,0)"></path>
<path d="M 638.274 806.148 C 648.561 759.896 658.242 713.512 667.317 667.008 C 687.511 666.956 713.652 666.134 733.373 666.92 L 766.411 666.98 C 779.635 666.621 811.492 665.635 823.827 666.672 C 821.934 679.088 820.101 693.024 817.79 705.257 C 858.305 737.533 876.446 761.424 901.256 806.004 C 888.367 807.225 861.3 806.268 847.143 806.113 C 819.299 805.816 791.454 805.764 763.609 805.956 C 747.402 806.487 728.706 806.016 712.306 806.003 L 710.789 805.677 C 697.358 807.126 653.94 806.001 638.274 806.148 z" fill="rgb(107,63,160)" transform="translate(0,0)"></path>
<path d="M 638.274 806.148 C 648.561 759.896 658.242 713.512 667.317 667.008 C 687.511 666.956 713.652 666.134 733.373 666.92 C 730.72 699.307 726.064 725.508 719.578 757.099 C 717.366 767.87 711.376 796.131 710.789 805.677 C 697.358 807.126 653.94 806.001 638.274 806.148 z" fill="rgb(107,63,160)" transform="translate(0,0)"></path>
<path d="M 733.373 666.92 L 766.411 666.98 C 762.674 681.154 758.112 695.22 754.578 709.276 C 751.845 720.148 770.026 732.504 777.266 738.349 C 773.117 755.913 766.137 788.375 763.609 805.956 C 747.402 806.487 728.706 806.016 712.306 806.003 L 710.789 805.677 C 711.376 796.131 717.366 767.87 719.578 757.099 C 726.064 725.508 730.72 699.307 733.373 666.92 z" fill="rgb(245,241,235)" transform="translate(0,0)"></path>
<path d="M 1284.3 666.901 C 1292.52 666.589 1306.54 665.866 1314.31 666.88 C 1316.42 687.851 1318.46 708.791 1321.76 729.622 C 1325.63 754.019 1333.17 781.727 1336.12 805.902 L 1284.37 805.991 C 1239.79 806.893 1191.64 805.982 1146.82 805.835 C 1165.9 765.358 1194.25 732.173 1229.85 705.322 C 1227.25 692.611 1225.03 679.637 1222.56 666.863 C 1236.92 666.955 1271.34 665.813 1284.3 666.901 z" fill="rgb(107,63,160)" transform="translate(0,0)"></path>
<path d="M 1284.3 666.901 C 1292.52 666.589 1306.54 665.866 1314.31 666.88 C 1316.42 687.851 1318.46 708.791 1321.76 729.622 C 1325.63 754.019 1333.17 781.727 1336.12 805.902 L 1284.37 805.991 C 1280.6 784.719 1275.66 760.068 1270.89 739.058 C 1279.86 731.735 1290.06 723.847 1298.21 715.743 L 1298.03 714.861 L 1297.72 713.394 C 1294.65 698.552 1288.39 682.185 1284.3 666.901 z" fill="rgb(245,241,235)" transform="translate(0,0)"></path>
<path d="M 1379.99 662.894 C 1382.89 671.724 1386.26 689.967 1388.33 699.965 C 1393.38 725.622 1398.61 751.245 1404 776.833 C 1405.07 781.743 1409.49 803.072 1411.15 806.969 C 1404.93 804.698 1347.79 805.922 1336.12 805.902 C 1333.17 781.727 1325.63 754.019 1321.76 729.622 C 1318.46 708.791 1316.42 687.851 1314.31 666.88 C 1323.71 667.024 1373.7 668.405 1379.38 665.564 L 1379.99 662.894 z" fill="rgb(107,63,160)" transform="translate(0,0)"></path>
<path d="M 823.827 666.672 C 845.881 666.381 867.938 666.395 889.992 666.715 C 899.119 675.228 906.421 681.493 915.438 690.685 L 915.257 806.161 L 901.986 806.195 L 901.256 806.004 C 876.446 761.424 858.305 737.533 817.79 705.257 C 820.101 693.024 821.934 679.088 823.827 666.672 z" fill="rgb(245,241,235)" transform="translate(0,0)"></path>
<path d="M 1155.07 666.597 C 1175.19 666.786 1203.45 665.561 1222.56 666.863 C 1225.03 679.637 1227.25 692.611 1229.85 705.322 C 1194.25 732.173 1165.9 765.358 1146.82 805.835 C 1142.56 805.93 1140.59 806.505 1137.6 804.416 C 1136.39 797.3 1136.9 784.383 1136.92 776.656 L 1137.06 716.996 C 1137.08 708.249 1137.56 692.272 1136.43 684.458 C 1139.38 682.489 1151.22 670.237 1155.07 666.597 z" fill="rgb(245,241,235)" transform="translate(0,0)"></path>
<path d="M 889.992 666.715 C 896.93 666.671 910.477 664.964 916.261 667.781 C 915.601 675.759 916.709 683.18 915.438 690.685 C 906.421 681.493 899.119 675.228 889.992 666.715 z" fill="rgb(107,63,160)" transform="translate(0,0)"></path>
<path d="M 1136.39 666.806 C 1142.59 666.006 1148.86 665.935 1155.07 666.597 C 1151.22 670.237 1139.38 682.489 1136.43 684.458 C 1136.71 678.7 1135.78 672.225 1136.39 666.806 z" fill="rgb(107,63,160)" transform="translate(0,0)"></path>
<path d="M 1023.64 667.092 L 1049.24 666.969 C 1077.2 666.44 1105.16 667.269 1132.92 666.85 L 1132.88 805.848 C 1105.06 806.108 1077.24 806.158 1049.42 805.999 L 1044.76 805.966 C 1037.89 806.195 1029.94 806.014 1022.98 806.029 C 1022.94 761.266 1021.91 711.36 1023.64 667.092 z" fill="rgb(245,241,235)" transform="translate(0,0)"></path>
<path d="M 1023.64 667.092 L 1049.24 666.969 C 1049.32 712.824 1048.71 760.291 1049.42 805.999 L 1044.76 805.966 C 1037.89 806.195 1029.94 806.014 1022.98 806.029 C 1022.94 761.266 1021.91 711.36 1023.64 667.092 z" fill="rgb(107,63,160)" transform="translate(0,0)"></path>
<path d="M 920.23 666.905 C 940.759 666.075 976.519 666.048 997.022 667.126 C 1003.9 667.082 1011.14 666.925 1017.99 667.065 L 1017.99 806.208 C 1011.02 806.304 1004.06 806.326 997.093 806.275 L 919.936 806.072 L 919.713 668.087 L 920.23 666.905 z" fill="rgb(245,241,235)" transform="translate(0,0)"></path>
<path d="M 997.022 667.126 C 1003.9 667.082 1011.14 666.925 1017.99 667.065 L 1017.99 806.208 C 1011.02 806.304 1004.06 806.326 997.093 806.275 L 997.022 667.126 z" fill="rgb(107,63,160)" transform="translate(0,0)"></path>
<path d="M 1208.81 811.169 L 1212.03 811.186 C 1226.25 879.87 1236.25 950.195 1250.14 1019.07 C 1254.81 1042.26 1258.41 1065.54 1263.67 1088.73 L 1050.19 1301.27 C 1049.38 1260.4 1049.74 1217.13 1049.94 1176.24 C 1080.13 1175.64 1111.65 1176.04 1141.94 1175.98 C 1142.18 1171.02 1142.57 1166.06 1143.11 1161.12 C 1148.11 1114.84 1171.57 1072.52 1208.18 1043.76 C 1179.18 942.846 1148.9 912.168 1208.81 811.169 z" fill="rgb(245,241,235)" transform="translate(0,0)"></path>
<path d="M 1050.19 810.727 C 1071.07 812.419 1110.98 811.164 1133 811.099 C 1133.05 817.152 1132.94 824.067 1133.25 830.036 C 1133.86 833.431 1128.18 849.65 1126.65 854.05 C 1116.19 884.082 1115.62 916.354 1116.56 947.746 L 1049.66 947.907 L 1049.63 858.889 C 1049.6 851.292 1048.82 816.467 1050.19 810.727 z" fill="rgb(245,241,235)" transform="translate(0,0)"></path>
<path d="M 919.353 811.007 C 945.221 810.802 971.091 810.871 996.958 811.214 L 997.061 948.024 L 931.457 947.983 C 931.236 921.446 930.757 892.544 923.071 866.799 C 917.167 847.024 921.733 830.174 919.353 811.007 z" fill="rgb(245,241,235)" transform="translate(0,0)"></path>
<path d="M 903.921 811.138 C 908.249 810.833 910.728 810.812 915.059 811.039 C 915.025 817.189 914.822 823.272 915.446 829.379 C 915.362 830.048 915.225 833.044 914.547 833.637 C 913.638 833.732 912.74 831.401 912.473 830.854 C 909.699 824.216 906.71 817.762 903.921 811.138 z" fill="rgb(245,241,235)" transform="translate(0,0)"></path>
<path d="M 1137.89 811.222 L 1144.22 811.114 C 1143.02 812.993 1139.1 820.949 1138.45 821.255 C 1137.27 820.52 1137.73 813.323 1137.77 811.99 L 1137.89 811.222 z" fill="rgb(245,241,235)" transform="translate(0,0)"></path>
<path d="M 1048.67 1738.33 L 1428.23 1738.12 C 1443.41 1748.71 1460.53 1760.47 1474.91 1771.84 C 1476 1784.91 1475.88 1796.13 1475.71 1809.14 C 1432.92 1810.56 1382.36 1809.29 1339.05 1809.31 L 1048.63 1809.33 L 1048.67 1738.33 z" fill="rgb(245,241,235)" transform="translate(0,0)"></path>
<path d="M 627.397 1738.2 C 667.318 1737.44 709.219 1738.23 749.354 1738.19 L 997.197 1738.01 L 997.046 1809.73 L 944.5 1809.37 L 573.1 1809.14 L 572.898 1771.91 C 590.867 1760.87 609.074 1748.26 627.397 1738.2 z" fill="rgb(245,241,235)" transform="translate(0,0)"></path>
<path d="M 838.798 811.217 C 842.762 813.815 846.006 820.888 848.592 825.333 C 862.807 849.775 876.365 891.269 876.29 919.139 C 876.267 928.003 862.891 968.933 859.341 980.533 C 852.932 1001.4 846.788 1022.35 840.911 1043.37 C 881.712 1078.97 903.778 1121.68 908.497 1176.05 L 997.101 1176.26 C 996.886 1218.3 996.925 1260.34 997.219 1302.37 L 987.931 1293.36 L 858.577 1163.3 C 833.771 1138.53 809.387 1113.34 785.433 1087.74 C 804.108 996.554 819.236 901.687 838.798 811.217 z" fill="rgb(245,241,235)" transform="translate(0,0)"></path>
<path d="M 1049.32 1577.78 C 1111.34 1576.86 1174.72 1578.25 1236.85 1577.91 C 1247.47 1577.85 1314.13 1577.4 1320.53 1579.06 C 1327.51 1580.87 1383.98 1616.04 1394.33 1622.33 L 1394.24 1641.3 L 1049.44 1641.13 C 1048.77 1621.55 1049.32 1597.64 1049.32 1577.78 z" fill="rgb(245,241,235)" transform="translate(0,0)"></path>
<path d="M 932.765 1578.5 C 953.944 1578.46 975.122 1578.53 996.3 1578.73 L 996.649 1641.39 L 721.5 1641.26 C 699.99 1641.52 678.477 1641.58 656.966 1641.44 L 656.948 1621.93 C 673.289 1608.66 704.562 1593.58 722.972 1582.08 C 731.075 1577.02 774.065 1578.7 785.959 1578.67 L 932.765 1578.5 z" fill="rgb(245,241,235)" transform="translate(0,0)"></path>
<path d="M 1050.02 1001 C 1079.42 1000.89 1108.82 1000.95 1138.21 1001.19 C 1140.14 1009.07 1144.62 1021.01 1147.35 1028.99 C 1131.92 1046.47 1121.57 1058.11 1110.07 1078.79 C 1102.75 1093.03 1099.49 1102.9 1094.49 1117.96 L 1050.02 1117.72 L 1050.02 1001 z" fill="rgb(245,241,235)" transform="translate(0,0)"></path>
<path d="M 909.501 1000.96 L 996.858 1001.15 L 997.104 1075.79 C 997.144 1087.95 997.673 1104.52 996.767 1116.36 C 994.718 1118.39 994.17 1117.65 990.25 1117.77 L 955.045 1117.85 C 941.677 1077.53 927.693 1058.52 900.79 1027.39 C 903.388 1018.73 906.626 1009.58 909.501 1000.96 z" fill="rgb(245,241,235)" transform="translate(0,0)"></path>
<path d="M 1411.35 810.205 C 1422.21 857.227 1431.13 905.327 1441.45 952.468 C 1444.47 966.276 1451.34 1004.31 1455.51 1016.17 C 1435.7 1033.61 1412.44 1057.8 1392.64 1076.73 C 1387.86 1049.32 1381.18 1021.11 1375.23 993.932 L 1358.21 913.562 C 1350.72 879.301 1344.72 844.547 1336.75 810.405 C 1361.35 810.044 1386.84 811.151 1411.35 810.205 z" fill="rgb(107,63,160)" transform="translate(0,0)"></path>
<path d="M 593.667 1016.35 C 595.462 1013.19 603.055 974.358 604.241 968.745 L 637.4 810.538 C 653.031 811.076 667.966 810.809 683.563 810.625 C 689.251 810.559 704.316 810.087 709.147 810.966 C 692.533 898.455 670.667 989.277 655.727 1076.29 C 636.296 1057.75 611.494 1035.04 593.667 1016.35 z" fill="rgb(107,63,160)" transform="translate(0,0)"></path>
<metadata><recraft-signature>{"signed_by": "recraft", "signature_b64": "QTiYR6I2RYC+MewTMQZUD0SpomlL4ObaX3/8Y/SjXwpFJEML8UUW44lqRpLkQnWmajm6IT5xs0YDkMzWupgECg==", "signing_algo": "Ed25519", "generation_timestamp": 1774143330, "identifier": "e5368686-1531-4dd6-9c68-f1851437771f"}</recraft-signature></metadata></svg>