<svg xmlns="http://www.w3.org/2000/svg" height="1024" preserveAspectRatio="none" style="display: block;" version="1.1" viewBox="0 0 2048 2048" width="1024">
<path d="M 1041.47 599.745 C 1055.89 604.898 1072.57 612.716 1086.74 618.988 L 1161.43 652.107 L 1412.47 762.556 C 1307.73 771.587 1222.14 798.24 1138.99 865.506 C 1048.91 938.377 992.853 1051.6 981.663 1166.44 L 883.047 1022.94 C 876.425 1029.03 865.342 1036.46 857.688 1041.98 L 816.209 1072.05 L 669.926 1178.37 C 676.445 1196.68 685.772 1218.1 693.207 1236.31 C 707.194 1270.75 721.413 1305.11 735.863 1339.36 C 717.991 1351.83 699.974 1364.09 681.816 1376.14 C 661.874 1361.58 641.578 1349.18 620.734 1336.03 L 534.233 1281.4 L 384.244 1447.7 C 353.083 1481.99 314.008 1523.82 284.968 1559.02 C 305.317 1555.08 327.267 1553.37 347.781 1549.41 C 360.18 1547.02 373.595 1544.68 385.966 1542.71 C 540.584 1518.05 678.661 1445.18 783.584 1328.58 C 838.44 1267.61 870.902 1219.2 899.839 1141.84 C 925.27 1175.31 948.743 1210.61 974.022 1244.23 C 976.665 1247.74 983.684 1257.28 984.802 1261.35 C 989.653 1279.02 992.71 1297.26 998.311 1314.77 C 1026.02 1412.38 1088.79 1497.05 1172.67 1553.83 C 1193.54 1567.96 1214.2 1579.5 1236.88 1591.66 L 1239.21 1593 L 1238.64 1593.97 C 1235.99 1594.15 1233.91 1594.43 1231.26 1594.01 C 1220.17 1594.79 1202.76 1594.34 1191.13 1594.37 L 1116.55 1594.5 L 875.962 1594.31 L 236.865 1595.84 C 255.187 1554.59 273.584 1501.05 290.058 1458.01 L 392.972 1190.31 C 369.679 1173.32 329.454 1149.89 304.31 1134.41 L 197.96 1067.52 C 179.89 1056.35 142.747 1035.32 127.096 1022.93 C 168.161 1020.92 208.571 1021.23 249.599 1020.7 L 428.586 1018.19 C 437.372 989.911 445.279 956.594 453.438 927.621 L 511.088 721.849 L 599.998 1020.07 L 782.241 1017.48 C 813.09 1017.05 847.629 1017.76 878.098 1016.21 C 850.203 971.121 814.97 927.105 787.63 881.184 C 797.147 869.192 811.081 854.375 821.481 842.671 C 848.433 812.49 875.616 782.517 903.028 752.753 L 1010.95 633.829 C 1021.28 622.525 1030.96 610.859 1041.47 599.745 z" fill="rgb(107,63,160)" transform="translate(0,0)"></path>
<path d="M 461.913 1062.99 C 477.686 999.3 496.011 936.987 511.93 873.769 C 515.371 886.997 522.181 906.276 526.317 920 C 540.929 967.61 555.224 1015.32 569.201 1063.12 C 626.595 1062.76 692.242 1063.52 749.079 1061.35 L 750.216 1065.43 C 737.051 1074.34 723.225 1086.5 710.156 1096.23 L 618.189 1164.42 C 626.445 1182.19 635.145 1205.35 642.394 1223.73 L 681.985 1323.98 L 589.978 1266.18 C 569.493 1253.12 546.103 1237.15 525.246 1225.5 C 479.379 1278.1 431.723 1329.73 384.803 1381.43 C 373.782 1393.57 363.47 1406.17 351.973 1417.9 C 364.555 1392.07 374.218 1362.98 384.896 1336.06 L 448.938 1173.55 C 391.551 1136.35 330.692 1099.65 272.58 1063.16 C 293.693 1063.84 318.843 1063.12 340.235 1063.05 L 461.913 1062.99 z" fill="rgb(20,18,19)" transform="translate(0,0)"></path>
<path d="M 749.079 1061.35 L 751.042 1061.29 C 756.942 1061 752.538 1063.86 750.216 1065.43 L 749.079 1061.35 z" fill="rgb(33,12,35)" transform="translate(0,0)"></path>
<path d="M 1396.2 814.502 C 1608.26 801.589 1790.62 963.1 1803.41 1175.17 C 1816.21 1387.25 1654.59 1569.51 1442.51 1582.19 C 1230.6 1594.85 1048.51 1433.4 1035.73 1221.49 C 1022.94 1009.58 1184.3 827.405 1396.2 814.502 z" fill="rgb(245,241,235)" transform="translate(0,0)"></path>
<path d="M 573.784 443.58 C 579.842 444.236 609.004 457.649 616.658 460.957 L 702.406 498.128 L 959.222 608.674 C 932.977 640.219 901.336 674.656 873.913 705.318 C 848.682 733.22 823.75 761.393 799.123 789.83 L 696.746 631.971 C 655.294 569.478 614.305 506.68 573.784 443.58 z" fill="rgb(107,63,160)" transform="translate(0,0)"></path>
<metadata><recraft-signature>{"signed_by": "recraft", "signature_b64": "gJSn+C4AGvIl1TylEDTsV1PuEz5XGR5+N4L0nEdaAWvgmfd0bbMligVxazGD/Ou8rP2//4vaMerw0qC+fBOWCQ==", "signing_algo": "Ed25519", "generation_timestamp": 1774143312, "identifier": "2839c19c-e8b1-41a2-84ed-b47ea0e4d891"}</recraft-signature></metadata></svg>